<?xml version="1.0" encoding="UTF-8"?>
<svg width="40px" height="40px" viewBox="0 0 40 40" version="1.1" xmlns="http://www.w3.org/2000/svg" xmlns:xlink="http://www.w3.org/1999/xlink">
    <title>ic_about_us</title>
    <g id="页面-1" stroke="none" stroke-width="1" fill="none" fill-rule="evenodd">
        <g id="5-1设置" transform="translate(-24.000000, -960.000000)">
            <g id="ic_about_us" transform="translate(24.000000, 960.000000)">
                <polygon id="Fill-1" fill="#000000" opacity="0" points="0 40 40 40 40 0 0 0"></polygon>
                <g id="编组" transform="translate(3.999800, 4.000500)" fill="#FFFFFF">
                    <path d="M29,27 C29,28.104 28.104,29 27,29 L5,29 C3.896,29 3,28.104 3,27 L3,5 C3,3.896 3.896,3 5,3 L27,3 C28.104,3 29,3.896 29,5 L29,27 Z M28,0 L4,0 C1.791,0 0,1.79 0,4 L0,28 C0,30.209 1.791,32 4,32 L28,32 C30.209,32 32,30.209 32,28 L32,4 C32,1.79 30.209,0 28,0 L28,0 Z" id="Fill-2"></path>
                    <path d="M17.7266,9.9375 C17.7596,11.0405 16.8926,11.9605 15.7896,11.9945 C14.6866,12.0275 13.7666,11.1605 13.7326,10.0565 C13.7006,8.9545 14.5666,8.0335 15.6696,8.0005 C16.7726,7.9675 17.6936,8.8345 17.7266,9.9375" id="Fill-4"></path>
                    <path d="M15.1763,16.3378 C15.0853,16.7268 15.0143,17.0758 14.8523,17.8358 C14.6913,18.5948 14.5663,19.2088 14.4613,19.7028 C14.2643,20.6478 14.1093,21.5088 13.9693,22.3088 C13.8873,22.7608 14.0243,23.2248 14.3353,23.5598 C14.5693,23.8538 14.9323,24.0168 15.3073,23.9978 C15.4703,23.9998 15.6303,23.9608 15.7713,23.8818 C16.4743,23.5608 17.1453,23.1718 17.7733,22.7198 L19.2963,21.7148 L18.7083,20.5658 L16.8783,21.5418 C17.0193,20.8038 17.0723,20.5158 17.1633,20.1488 C17.2553,19.7758 18.1003,15.2948 18.1003,15.2948 C18.1713,14.9238 18.1593,14.5418 18.0663,14.1728 C18.0103,13.8068 17.7593,13.4998 17.4113,13.3768 C17.1243,13.2528 16.7933,13.2628 16.5143,13.4038 C16.1743,13.5578 15.8523,13.7448 15.5513,13.9618 C15.1143,14.2818 12.7043,16.3098 12.7043,16.3098 L13.3093,17.3568 L15.1763,16.3378 Z" id="Fill-6"></path>
                </g>
            </g>
        </g>
    </g>
</svg>