<?xml version="1.0" encoding="UTF-8"?>
<svg width="16px" height="16px" viewBox="0 0 16 16" version="1.1" xmlns="http://www.w3.org/2000/svg" xmlns:xlink="http://www.w3.org/1999/xlink">
    <title>ic_asterisk</title>
    <defs>
        <polygon id="path-1" points="0 0 16 0 16 15.2616943 0 15.2616943"></polygon>
    </defs>
    <g id="页面-1" stroke="none" stroke-width="1" fill="none" fill-rule="evenodd">
        <g id="5-6设置-账号安全-账号注销-输入后" transform="translate(-152.000000, -388.000000)">
            <g id="ic_asterisk" transform="translate(152.000000, 388.000000)">
                <rect id="矩形" fill="#D8D8D8" opacity="0" x="0" y="0" width="16" height="16"></rect>
                <g id="编组" transform="translate(0.000000, 0.666667)">
                    <mask id="mask-2" fill="white">
                        <use xlink:href="#path-1"></use>
                    </mask>
                    <g id="Clip-2"></g>
                    <path d="M9.06997317,6.66723818 C9.90136189,6.28919522 10.7079045,5.89853808 11.4639904,5.50826319 C12.2196941,5.11760605 12.82441,4.84047648 13.265906,4.65126387 C13.6084,4.50027603 13.9753578,4.41083008 14.349196,4.38674847 C14.7799891,4.37948576 15.1966391,4.54232328 15.5085532,4.84047648 C15.8284946,5.12410426 16.0077687,5.53387379 15.9997415,5.96160895 C15.9909498,6.24294325 15.9087666,6.51625035 15.7604545,6.7555374 C15.6484559,6.97762331 15.4730042,7.16186669 15.256652,7.2845682 C13.4899032,7.96955606 11.6509096,8.45118815 9.7756024,8.72143727 C10.0779603,9.04864129 10.5817628,9.50236929 11.1111758,10.0818568 C11.6402066,10.6617265 11.9173362,10.9384739 11.9299504,10.9640845 C12.119163,11.2282176 12.3962926,11.5688003 12.736493,11.9590752 C13.0002439,12.2503479 13.2402955,12.562262 13.4547364,12.8917596 C13.5957858,13.140985 13.6653549,13.4242306 13.6561809,13.7105341 C13.6584744,14.1210681 13.4895209,14.5136365 13.1898388,14.7942063 C12.8725732,15.1084139 12.4391043,15.2773674 11.992639,15.2605485 C11.5014507,15.2605485 10.9598057,14.8825055 10.3424757,14.1264196 C9.427757,12.8378626 8.64262025,11.4617709 7.99891514,10.0187859 C7.02877051,11.782859 6.36098379,12.9548304 6.03339752,13.5217037 C5.77041111,13.9815477 5.44855856,14.4054604 5.07586706,14.7815921 C4.79262153,15.0571927 4.41228508,15.2108563 4.01742321,15.2100918 C3.57095791,15.2200302 3.14092926,15.0419028 2.83283762,14.7185213 C2.54844534,14.4429207 2.3814031,14.0687002 2.36687769,13.6730738 C2.33935586,13.4070294 2.39172379,13.1394561 2.51786553,12.9043737 C3.63708676,11.3887616 4.90347336,9.98744161 6.29791293,8.72143727 C5.22265018,8.55286603 4.26091499,8.3682404 3.41232512,8.16641362 C2.47428929,7.93821175 1.55574809,7.63470709 0.665875474,7.25933985 C0.467871171,7.12899339 0.310385124,6.94589675 0.212147467,6.73030905 C0.0810365101,6.49943145 0.00764495378,6.23988527 -0.00191123845,5.97422312 C-0.0103206876,5.54648796 0.169335726,5.13671844 0.489277042,4.8527084 C0.792399459,4.55761319 1.20025774,4.39477567 1.62340594,4.39936264 C2.02361927,4.41962177 2.41656989,4.51327246 2.78238093,4.67649222 C3.24451838,4.86111785 3.83241533,5.13022023 4.54645401,5.48303484 L6.97831381,6.66723818 C6.8147118,5.86107781 6.67595589,4.92839345 6.56242833,3.88256377 C6.44928301,2.83673409 6.39882632,2.11887293 6.39882632,1.72821579 C6.38124292,1.26531384 6.54369819,0.813497073 6.85217207,0.46832741 C7.15147202,0.149915085 7.5753847,-0.0205673843 8.01152932,0.00198522941 C8.44996741,-0.0106289443 8.87082212,0.174378937 9.15789014,0.505787684 C9.47439122,0.88688863 9.63569975,1.37234319 9.61161814,1.86658946 C9.61161814,2.01795954 9.61161814,2.32031746 9.53631535,2.78665964 C9.46024806,3.25261958 9.42278778,3.79426455 9.34710274,4.43720517 C9.2714177,5.07976353 9.17088656,5.82323529 9.06997317,6.65462401 L9.06997317,6.66723818 Z" id="Fill-1" fill="#FF193C" mask="url(#mask-2)"></path>
                </g>
            </g>
        </g>
    </g>
</svg>