<?xml version="1.0" encoding="UTF-8"?>
<svg width="40px" height="40px" viewBox="0 0 40 40" version="1.1" xmlns="http://www.w3.org/2000/svg" xmlns:xlink="http://www.w3.org/1999/xlink">
    <title>ic_applets</title>
    <defs>
        <polygon id="path-1" points="0 0 21.573509 0 21.573509 21.8181818 0 21.8181818"></polygon>
    </defs>
    <g id="页面-1" stroke="none" stroke-width="1" fill="none" fill-rule="evenodd">
        <g id="5-9落地页" transform="translate(-203.000000, -1454.000000)">
            <g id="ic_applets" transform="translate(203.000000, 1454.000000)">
                <circle id="椭圆形" fill="#FFFFFF" cx="20" cy="20" r="20"></circle>
                <g id="编组" transform="translate(9.090909, 9.090909)">
                    <mask id="mask-2" fill="white">
                        <use xlink:href="#path-1"></use>
                    </mask>
                    <g id="Clip-2"></g>
                    <path d="M15.4118779,0.000272730259 C13.7596779,-0.0046364144 12.1740242,0.649370747 11.0056478,1.81720172 C9.83727135,2.98503269 9.18217327,4.57014095 9.1859915,6.22234086 L9.1859915,15.6506259 C9.1859915,17.3780994 7.76779415,18.7968422 6.04250253,18.7968422 C4.31557453,18.7968422 2.83737652,17.3780994 2.83737652,15.5895343 C2.83737652,13.8020602 4.25502841,12.4471363 5.98250187,12.4471363 C6.39214272,12.4509545 6.78651068,12.2894982 7.07615021,11.9998587 C7.36578975,11.7096737 7.52615514,11.3153057 7.52288238,10.9056649 C7.52560968,10.496024 7.36469882,10.1022015 7.07451383,9.81256199 C6.78487429,9.52292246 6.39050634,9.3620116 5.98086549,9.36582983 C2.72664804,9.47819469 0.115528538,12.091496 0.00425459204,15.3457135 C-0.122837709,18.7968422 2.52973679,21.6916012 5.98086549,21.8181818 C7.63361086,21.8236026 9.22035551,21.16905 10.3887319,19.9995826 C11.5576538,18.8306607 12.211661,17.2439161 12.2062064,15.5911707 L12.2062064,6.16397659 C12.2062064,4.43650312 13.6244037,3.02048762 15.3502408,3.02048762 C17.0755324,3.02048762 18.4915479,4.43868497 18.4915479,6.16397659 C18.4915479,7.89090459 17.0733506,9.30746555 15.4118779,9.30746555 L15.3502408,9.30746555 C14.9400545,9.30364733 14.5456865,9.46455818 14.256047,9.75419772 C13.9664075,10.0438373 13.8049512,10.4376597 13.8082239,10.8473006 C13.8044057,11.2574869 13.9653166,11.6518549 14.2555016,11.9420399 C14.5451411,12.2322249 14.9400545,12.3931357 15.3502408,12.3893175 C17.0018953,12.3936812 18.587549,11.7391285 19.7559254,10.5707521 C20.9237564,9.40237568 21.578309,7.8161765 21.5733999,6.16397659 C21.5897637,4.52432227 20.9455748,2.94685045 19.7864712,1.78774685 C18.6268221,0.628097787 17.0493503,-0.0160910853 15.409696,0.000272730259 L15.4118779,0.000272730259 Z" id="Fill-1" fill="#FF193C" mask="url(#mask-2)"></path>
                </g>
            </g>
        </g>
    </g>
</svg>