<?xml version="1.0" encoding="UTF-8"?>
<svg width="32px" height="32px" viewBox="0 0 32 32" version="1.1" xmlns="http://www.w3.org/2000/svg" xmlns:xlink="http://www.w3.org/1999/xlink">
    <title>ic_boy</title>
    <g id="页面-1" stroke="none" stroke-width="1" fill="none" fill-rule="evenodd">
        <g id="2-9达人主页-名片详情-未收藏" transform="translate(-463.000000, -505.000000)">
            <g id="ic_boy" transform="translate(463.000000, 505.000000)">
                <rect id="矩形" fill="#D8D8D8" opacity="0" x="0" y="0" width="32" height="32"></rect>
                <path d="M14.5106,27.2 C11.917,27.2 9.4786,26.1896 7.6442,24.356 C3.8586,20.5696 3.8586,14.4088 7.6442,10.6224 C9.4786,8.7888 11.917,7.7784 14.5106,7.7784 C17.1042,7.7784 19.5434,8.7888 21.377,10.6224 C25.1634,14.4088 25.1634,20.5696 21.377,24.356 C19.5434,26.1896 17.1042,27.2 14.5106,27.2 M29.5994,1.6 L27.9722,1.6 L23.1306,1.6 C22.6914,1.6 22.3306,1.96 22.3306,2.4 L22.3306,4.028 C22.3306,4.4672 22.6914,4.828 23.1306,4.828 L24.8906,4.828 L22.4202,7.2976 C20.0978,5.492 17.3074,4.5784 14.5106,4.5784 C11.2066,4.5784 7.9026,5.8392 5.3818,8.36 C0.3394,13.4016 0.3394,21.5768 5.3818,26.6184 C7.9026,29.1392 11.2066,30.4 14.5106,30.4 C17.8146,30.4 21.1194,29.1392 23.6402,26.6184 C28.2946,21.964 28.6418,14.6448 24.7018,9.58 L27.1722,7.1096 L27.1722,8.8688 C27.1722,9.3088 27.5322,9.6688 27.9722,9.6688 L29.5994,9.6688 C30.0402,9.6688 30.3994,9.3088 30.3994,8.8688 L30.3994,4.028 L30.3994,2.4 C30.3994,1.96 30.0402,1.6 29.5994,1.6" id="Fill-1" fill="#4A5FFF"></path>
            </g>
        </g>
    </g>
</svg>