<?xml version="1.0" encoding="UTF-8"?>
<svg width="40px" height="40px" viewBox="0 0 40 40" version="1.1" xmlns="http://www.w3.org/2000/svg" xmlns:xlink="http://www.w3.org/1999/xlink">
    <title>ic_clear</title>
    <g id="页面-1" stroke="none" stroke-width="1" fill="none" fill-rule="evenodd">
        <g id="5-1设置" transform="translate(-24.000000, -840.000000)">
            <g id="ic_clear" transform="translate(24.000000, 840.000000)">
                <polygon id="Fill-1" fill="#000000" opacity="0" points="0 40 40 40 40 0 0 0"></polygon>
                <g id="编组" transform="translate(2.999900, 3.000000)" fill="#FFFFFF">
                    <path d="M28,28.999 C28,30.104 27.105,30.999 26,30.999 L8,30.999 C6.896,30.999 6,30.104 6,28.999 L6,7.999 L28,7.999 L28,28.999 Z M3,5 L3,30 C3,32.209 4.791,34 7,34 L27,34 C29.209,34 31,32.209 31,30 L31,5 L3,5 Z" id="Fill-2"></path>
                    <path d="M33,8 L1,8 C0.45,8 0,7.55 0,7 L0,6 C0,5.45 0.45,5 1,5 L33,5 C33.55,5 34,5.45 34,6 L34,7 C34,7.55 33.55,8 33,8" id="Fill-4"></path>
                    <path d="M20,3 L14,3 C13.448,3 13,2.553 13,2 L13,1 C13,0.448 13.448,0 14,0 L20,0 C20.552,0 21,0.448 21,1 L21,2 C21,2.553 20.552,3 20,3" id="Fill-6"></path>
                    <path d="M12,27 L12,13 C12,12.45 12.45,12 13,12 L14,12 C14.55,12 15,12.45 15,13 L15,27 C15,27.55 14.55,28 14,28 L13,28 C12.45,28 12,27.55 12,27" id="Fill-8"></path>
                    <path d="M19,27 L19,13 C19,12.45 19.45,12 20,12 L21,12 C21.55,12 22,12.45 22,13 L22,27 C22,27.55 21.55,28 21,28 L20,28 C19.45,28 19,27.55 19,27" id="Fill-10"></path>
                </g>
            </g>
        </g>
    </g>
</svg>