<?xml version="1.0" standalone="no"?><!DOCTYPE svg PUBLIC "-//W3C//DTD SVG 1.1//EN" "http://www.w3.org/Graphics/SVG/1.1/DTD/svg11.dtd"><svg t="1648368257078" class="icon" viewBox="0 0 1024 1024" version="1.1" xmlns="http://www.w3.org/2000/svg" p-id="1593" xmlns:xlink="http://www.w3.org/1999/xlink" width="48" height="48"><defs><style type="text/css"></style></defs><path d="M512.3 960.5c-247.5 0-448.1-200.6-448.1-448.1S264.8 64.2 512.3 64.2s448.1 200.6 448.1 448.1-200.6 448.2-448.1 448.2z m252.6-587.1c-8.8-8.7-22.9-8.7-31.7 0L463.8 642.8 321.2 500.2c-8.8-8.8-22.9-8.8-31.7 0-8.7 8.8-8.7 22.9 0 31.7L448 690.3c8.8 8.7 22.9 8.7 31.7 0l285.2-285.2c8.7-8.8 8.7-23 0-31.7z" fill="#ffffff" p-id="1594"></path></svg>