<?xml version="1.0" encoding="UTF-8"?>
<svg width="48px" height="48px" viewBox="0 0 48 48" version="1.1" xmlns="http://www.w3.org/2000/svg" xmlns:xlink="http://www.w3.org/1999/xlink">
    <title>ic_collected</title>
    <defs>
        <polygon id="path-1" points="-8.8817842e-16 0 47.9998688 0 47.9998688 45.9928 -8.8817842e-16 45.9928"></polygon>
        <linearGradient x1="100%" y1="45.9381048%" x2="0%" y2="45.9381048%" id="linearGradient-3">
            <stop stop-color="#FF521D" offset="0%"></stop>
            <stop stop-color="#FF193C" offset="100%"></stop>
        </linearGradient>
    </defs>
    <g id="页面-1" stroke="none" stroke-width="1" fill="none" fill-rule="evenodd">
        <g id="2-10达人主页-名片详情-已收藏" transform="translate(-236.000000, -2452.000000)">
            <g id="ic_collected" transform="translate(236.000000, 2452.000000)">
                <rect id="矩形" fill="#D8D8D8" opacity="0" x="0" y="0" width="48" height="48"></rect>
                <g id="编组" transform="translate(0.000000, 1.000000)">
                    <mask id="mask-2" fill="white">
                        <use xlink:href="#path-1"></use>
                    </mask>
                    <g id="Clip-2"></g>
                    <path d="M45.4062122,15.0128 L34.8952122,12.1868 C34.0612122,11.9628 33.3402122,11.4388 32.8692122,10.7158 L26.9332122,1.5918 C26.2432122,0.5308 25.1212122,-0.0002 24.0002122,-0.0002 C22.8782122,-0.0002 21.7562122,0.5308 21.0662122,1.5918 L15.1302122,10.7158 C14.6592122,11.4388 13.9382122,11.9628 13.1052122,12.1868 L2.59321219,15.0128 C0.149212187,15.6698 -0.810787813,18.6248 0.780212187,20.5928 L7.62321219,29.0578 C8.16521219,29.7288 8.44121219,30.5768 8.39621219,31.4388 L7.83621219,42.3088 C7.72921219,44.3878 9.41021219,45.9928 11.3262122,45.9928 C11.7392122,45.9928 12.1642122,45.9188 12.5832122,45.7578 L22.7482122,41.8658 C23.1512122,41.7118 23.5752122,41.6348 24.0002122,41.6348 C24.4242122,41.6348 24.8482122,41.7118 25.2512122,41.8658 L35.4162122,45.7578 C35.8362122,45.9188 36.2602122,45.9928 36.6732122,45.9928 C38.5892122,45.9928 40.2712122,44.3878 40.1632122,42.3088 L39.6032122,31.4388 C39.5592122,30.5768 39.8342122,29.7288 40.3772122,29.0578 L47.2192122,20.5928 C48.8112122,18.6248 47.8502122,15.6698 45.4062122,15.0128" id="Fill-1" fill="url(#linearGradient-3)" mask="url(#mask-2)"></path>
                </g>
            </g>
        </g>
    </g>
</svg>