<?xml version="1.0" standalone="no"?><!DOCTYPE svg PUBLIC "-//W3C//DTD SVG 1.1//EN" "http://www.w3.org/Graphics/SVG/1.1/DTD/svg11.dtd"><svg t="1652360155817" class="icon" viewBox="0 0 1024 1024" version="1.1" xmlns="http://www.w3.org/2000/svg" p-id="11609" xmlns:xlink="http://www.w3.org/1999/xlink" width="48" height="48"><defs><style type="text/css"></style></defs><path d="M0.234057 508.679314C0.234057 789.562514 227.913143 1017.270857 508.781714 1017.270857c280.868571 0 508.576914-227.693714 508.576915-508.576914 0-280.868571-227.693714-508.562286-508.576915-508.562286C227.927771 0.117029 0.234057 227.810743 0.234057 508.679314z" fill="#EBF2FF" p-id="11610"></path><path d="M509.630171 565.057829a127.034514 127.034514 0 0 0 0-254.069029c-54.710857 0-101.156571 34.6112-119.047314 83.061029a125.893486 125.893486 0 0 0-7.9872 43.973485c0 26.770286 8.338286 51.536457 22.440229 72.045715a126.741943 126.741943 0 0 0 104.594285 54.9888z m89.819429 29.184a9.888914 9.888914 0 0 0-9.303771 0.482742c-23.595886 13.897143-51.126857 21.942857-80.515658 21.942858a158.427429 158.427429 0 0 1-75.205485-18.987886 9.684114 9.684114 0 0 0-9.289143-0.146286c-50.102857 26.989714-88.224914 74.605714-96.212114 129.170286-5.295543 36.205714 1.243429 36.205714 45.553371 36.205714h283.179886c50.176 0 49.693257-3.9936 44.602514-36.205714-9.084343-56.978286-49.824914-106.247314-102.8096-132.461714z" fill="#377FFC" p-id="11611"></path><path d="M694.0672 403.543771a191.444114 191.444114 0 0 0-7.094857-23.405714c-0.8192-3.013486-1.2288-6.0416-2.194286-9.069714a5.310171 5.310171 0 0 0-2.691657-3.028114c-29.930057-65.930971-96.256-112.040229-173.348571-112.040229-90.550857 0-166.473143 63.648914-185.592686 148.509257a49.693257 49.693257 0 0 0-36.951772 47.967086 49.927314 49.927314 0 0 0 49.883429 49.883428v-99.766857c-0.6144 0-1.243429 0.131657-1.930971 0.190172 19.543771-78.248229 90.287543-136.528457 174.518857-136.528457 77.092571 0 142.804114 48.713143 168.477257 116.984685 1.857829 7.168 3.437714 14.321371 4.388571 21.474743l-5.2224 74.254629a179.317029 179.317029 0 0 1-35.986285 66.750171 15.9744 15.9744 0 0 0-7.021715-1.653028 16.735086 16.735086 0 0 0 0 33.440914c9.216 0 16.720457-7.489829 16.720457-16.720457 0-2.954971-0.965486-5.558857-2.267428-7.972572 13.692343-15.9744 24.707657-33.514057 32.270628-52.443428a49.737143 49.737143 0 0 0 48.040229-46.036115 49.737143 49.737143 0 0 0-33.9968-50.7904z" fill="#ABC6F6" p-id="11612"></path></svg>