<?xml version="1.0" encoding="UTF-8"?>
<svg width="40px" height="40px" viewBox="0 0 40 40" version="1.1" xmlns="http://www.w3.org/2000/svg" xmlns:xlink="http://www.w3.org/1999/xlink">
    <title>ic-download</title>
    <g id="页面-1" stroke="none" stroke-width="1" fill="none" fill-rule="evenodd">
        <g id="2-4达人相册-查看大图" transform="translate(-670.000000, -1487.000000)" fill="#FFFFFF">
            <g id="编组" transform="translate(670.000000, 1487.000000)">
                <polygon id="Fill-1" opacity="0" points="0 40 40 40 40 0 0 0"></polygon>
                <g transform="translate(1.000100, 1.000100)">
                    <path d="M37,17 L35,17 C34.448,17 34,17.447 34,18 L34,32 C34,33.104 33.104,34 32,34 L6,34 C4.896,34 4,33.104 4,32 L4,17.872 C4,17.319 3.552,16.872 3,16.872 L1,16.872 C0.448,16.872 0,17.319 0,17.872 L0,34 C0,36.2 1.8,38 4,38 L34,38 C36.2,38 38,36.2 38,34 L38,18 C38,17.447 37.552,17 37,17" id="Fill-2"></path>
                    <path d="M18,0 L20,0 C20.552,0 21,0.447 21,1 L21,26 C21,27.104 20.104,28 19,28 C17.896,28 17,27.104 17,26 L17,1 C17,0.447 17.448,0 18,0" id="Fill-4"></path>
                    <path d="M17.5859,22.6416 L12.6359,17.6926 C12.2459,17.3016 11.6119,17.3016 11.2219,17.6926 L9.8079,19.1066 C9.4169,19.4966 9.4169,20.1296 9.8079,20.5206 L16.1709,26.8846 C17.7269,28.4396 20.2729,28.4396 21.8279,26.8846 L28.1919,20.5206 C28.5829,20.1296 28.5829,19.4966 28.1919,19.1066 L26.7779,17.6926 C26.3879,17.3016 25.7539,17.3016 25.3639,17.6926 L20.4139,22.6416 C19.6329,23.4226 18.3669,23.4226 17.5859,22.6416" id="Fill-6"></path>
                </g>
            </g>
        </g>
    </g>
</svg>