<?xml version="1.0" encoding="UTF-8"?>
<svg width="32px" height="32px" viewBox="0 0 32 32" version="1.1" xmlns="http://www.w3.org/2000/svg" xmlns:xlink="http://www.w3.org/1999/xlink">
    <title>ic_delete</title>
    <defs>
        <polygon id="path-1" points="0 0 10.1818182 0 10.1818182 2.9088 0 2.9088"></polygon>
        <polygon id="path-3" points="0 0 29.0908364 0 29.0908364 2.90909091 0 2.90909091"></polygon>
    </defs>
    <g id="页面-1" stroke="none" stroke-width="1" fill="none" fill-rule="evenodd">
        <g id="2-11搜索-历史搜索多行展示" transform="translate(-694.000000, -220.000000)">
            <g id="ic_delete" transform="translate(694.000000, 220.000000)">
                <rect id="矩形" fill="#D8D8D8" opacity="0" x="0" y="0" width="32" height="32"></rect>
                <g id="编组" transform="translate(1.454545, 1.454545)">
                    <g transform="translate(9.454545, 0.000000)">
                        <mask id="mask-2" fill="white">
                            <use xlink:href="#path-1"></use>
                        </mask>
                        <g id="Clip-2"></g>
                        <path d="M9.45454545,2.9088 L0.727272727,2.9088 C0.325818182,2.9088 0,2.58370909 0,2.18152727 L0,0.726981818 C0,0.325527273 0.325818182,-0.000290909091 0.727272727,-0.000290909091 L9.45454545,-0.000290909091 C9.856,-0.000290909091 10.1818182,0.325527273 10.1818182,0.726981818 L10.1818182,2.18152727 C10.1818182,2.58370909 9.856,2.9088 9.45454545,2.9088" id="Fill-1" fill="#6A6E7E" mask="url(#mask-2)"></path>
                    </g>
                    <g transform="translate(0.000000, 4.363345)">
                        <mask id="mask-4" fill="white">
                            <use xlink:href="#path-3"></use>
                        </mask>
                        <g id="Clip-4"></g>
                        <path d="M28.3636364,2.90909091 L0.727272727,2.90909091 C0.327272727,2.90909091 0,2.58254545 0,2.18181818 L0,0.727272727 C0,0.327272727 0.327272727,0 0.727272727,0 L28.3636364,0 C28.7636364,0 29.0909091,0.327272727 29.0909091,0.727272727 L29.0909091,2.18181818 C29.0909091,2.58254545 28.7636364,2.90909091 28.3636364,2.90909091" id="Fill-3" fill="#6A6E7E" mask="url(#mask-4)"></path>
                    </g>
                    <path d="M24,24.7269818 C24,25.5298909 23.3490909,26.1815273 22.5454545,26.1815273 L6.54545455,26.1815273 C5.74181818,26.1815273 5.09090909,25.5298909 5.09090909,24.7269818 L5.09090909,7.27243636 L24,7.27243636 L24,24.7269818 Z M2.18181818,4.36334545 L2.18181818,27.6360727 C2.18181818,28.4397091 2.83272727,29.0906182 3.63636364,29.0906182 L25.4545455,29.0906182 C26.2574545,29.0906182 26.9090909,28.4397091 26.9090909,27.6360727 L26.9090909,4.36334545 L2.18181818,4.36334545 Z" id="Fill-5" fill="#6A6E7E"></path>
                    <path d="M12.3636364,12.3633455 L12.3636364,21.0906182 C12.3636364,21.4928 12.0378182,21.8178909 11.6363636,21.8178909 L10.1818182,21.8178909 C9.78036364,21.8178909 9.45454545,21.4928 9.45454545,21.0906182 L9.45454545,12.3633455 C9.45454545,11.9618909 9.78036364,11.6360727 10.1818182,11.6360727 L11.6363636,11.6360727 C12.0378182,11.6360727 12.3636364,11.9618909 12.3636364,12.3633455" id="Fill-7" fill="#6A6E7E"></path>
                    <path d="M19.6363636,12.3633455 L19.6363636,21.0906182 C19.6363636,21.4928 19.3105455,21.8178909 18.9090909,21.8178909 L17.4545455,21.8178909 C17.0530909,21.8178909 16.7272727,21.4928 16.7272727,21.0906182 L16.7272727,12.3633455 C16.7272727,11.9618909 17.0530909,11.6360727 17.4545455,11.6360727 L18.9090909,11.6360727 C19.3105455,11.6360727 19.6363636,11.9618909 19.6363636,12.3633455" id="Fill-9" fill="#6A6E7E"></path>
                </g>
            </g>
        </g>
    </g>
</svg>