<?xml version="1.0" encoding="UTF-8"?>
<svg width="46px" height="34px" viewBox="0 0 46 34" version="1.1" xmlns="http://www.w3.org/2000/svg" xmlns:xlink="http://www.w3.org/1999/xlink">
    <title>ic_delete</title>
    <g id="页面-1" stroke="none" stroke-width="1" fill="none" fill-rule="evenodd">
        <g id="3-3私信界面-表情" transform="translate(-682.000000, -1417.000000)">
            <g id="Keyboard-Emoji" transform="translate(1.000000, 958.000000)">
                <g id="Categories" transform="translate(40.000000, 446.000000)">
                    <polygon id="路径" fill="#1D1E1F" points="683.87388 16.9701181 679.914814 14.5475119 659.510479 14.5475119 651.488827 20.3798861 642.425742 30 656.163103 43.8666713 670.205159 45.6264427 682.361352 44.5850083 685.345059 39.4940738 685.345059 20.3798861"></polygon>
                    <path d="M644.606537,30.6823005 L644.688556,30.765702 C644.830296,30.9163012 644.889755,30.9785038 644.958974,31.047723 C645.161096,31.2498452 645.260075,31.3499093 645.375502,31.4709176 L649.892306,35.9877218 C649.970718,36.0661248 650.002133,36.0974206 650.042242,36.1369312 C650.134006,36.2166984 650.204058,36.2794746 650.273671,36.3490876 L654.872305,40.9543873 L655.552305,41.6343871 C655.62984,41.7119221 655.713811,41.7946019 655.811389,41.8896338 C655.879162,41.9556388 655.936083,42.0107629 656.047956,42.1188085 C656.095693,42.1622637 656.137685,42.2039566 656.192599,42.2597119 C656.250635,42.3191718 656.250635,42.3191718 656.299981,42.3707458 C656.389268,42.4643982 656.395169,42.4705848 656.386787,42.4622029 C656.711657,42.78747 657.084795,43.060635 657.454542,43.2525148 C657.884317,43.4663418 658.342644,43.617165 658.775386,43.6936124 C659.369135,43.78878 659.969098,43.8399963 660.570387,43.8468442 C660.877037,43.8580195 661.075545,43.8600046 661.584457,43.8603749 C661.897693,43.8655955 662.1548,43.8666713 662.733352,43.8666713 L676.126682,43.8666713 C676.422109,43.8666713 676.551756,43.8666713 676.712144,43.8658615 C676.91965,43.8649896 677.101795,43.8632713 677.320015,43.8600046 C677.784488,43.8600046 677.982996,43.8580195 678.213433,43.8488021 C678.892926,43.8395286 679.496832,43.7881324 680.048307,43.700867 C680.515483,43.6181282 680.968219,43.4681866 681.376535,43.2637346 C681.780041,43.0582442 682.148204,42.7897345 682.474731,42.4607178 C682.79644,42.1391237 683.065865,41.7691873 683.25919,41.392149 C683.473017,40.9623747 683.62384,40.5040479 683.699961,40.0733494 C683.794882,39.4781829 683.846213,38.8768792 683.853544,38.2742355 C683.860309,38.0792826 683.863403,37.9480429 683.86614,37.7637399 C683.867292,37.6832323 683.867292,37.6832323 683.868394,37.5998287 C683.870681,37.4267444 683.871865,37.3474261 683.873346,37.3000062 L683.87388,22.4866659 C683.871865,22.3859234 683.870681,22.3066051 683.868394,22.1335208 C683.867292,22.0501172 683.867292,22.0501172 683.86614,21.9696096 C683.863403,21.7853066 683.860309,21.654067 683.855477,21.5332582 C683.846442,20.8561135 683.795168,20.2554793 683.70639,19.6984984 C683.624262,19.2279399 683.474165,18.7718195 683.273238,18.3690272 C683.065865,17.9641622 682.79644,17.5942258 682.467161,17.2650334 C682.148204,16.943615 681.780041,16.6751053 681.392427,16.4776414 C680.968219,16.2651629 680.515483,16.1152213 680.086735,16.0389991 C679.489009,15.9421274 678.885025,15.8888887 678.266692,15.8794784 C678.139649,15.8769375 678.034463,15.8756227 677.793349,15.8732116 C677.534463,15.8706227 677.417427,15.8691597 677.320015,15.8666782 L661.593341,15.866145 C661.442606,15.8691597 661.32557,15.8706227 661.066684,15.8732116 C660.82557,15.8756227 660.720384,15.8769375 660.578447,15.8797346 C659.976995,15.8884029 659.377002,15.941451 658.815412,16.0330088 C658.342644,16.1161845 657.884317,16.2670077 657.493017,16.4613026 C657.084795,16.6727145 656.711657,16.9458795 656.385638,17.2722959 C656.395169,17.2627647 656.389268,17.2689514 656.303652,17.35876 C656.250635,17.4141777 656.250635,17.4141777 656.192599,17.4736376 C656.137685,17.5293929 656.095693,17.5710858 656.047956,17.614541 C655.936083,17.7225866 655.879162,17.7777107 655.811389,17.8437157 C655.713811,17.9387476 655.62984,18.0214274 655.552305,18.0989624 L650.265639,23.3856278 C650.230992,23.4171412 650.201465,23.4439975 650.176071,23.4670499 C650.093548,23.5449628 650.018308,23.6202028 649.948555,23.6943155 L649.843353,23.8000081 C649.754917,23.8840224 649.675714,23.9622209 649.495357,24.1425769 C649.494593,24.1433407 648.113577,25.5265795 645.352307,28.2922932 L644.958974,28.6856265 C644.889755,28.7548457 644.830296,28.8170483 644.688556,28.9676475 L644.615833,29.0419586 C644.359736,29.293638 644.118095,29.5596166 643.892071,29.8386171 C644.119505,30.1782382 644.355386,30.4378769 644.606537,30.6823005 Z M662.733352,46.5333373 C662.340018,46.5333373 661.940018,46.5333373 661.540019,46.5266706 C661.206685,46.5266706 660.873352,46.5266706 660.540019,46.5133373 C659.80753,46.5049952 659.076656,46.4426036 658.353353,46.3266707 C657.628441,46.1991346 656.925674,45.9678724 656.266687,45.6400042 C655.614751,45.3023762 655.018844,44.8661276 654.50002,44.3466712 C654.453354,44.3000045 654.28002,44.1133379 654.24002,44.0800046 C654.046687,43.893338 653.853354,43.7066713 653.666687,43.5200047 L652.986687,42.8400049 L648.386688,38.2333394 C648.226689,38.0933394 648.113355,37.9800061 648.006689,37.8733394 L643.46669,33.3333406 C643.340023,33.2000122 643.20669,33.066674 643.073356,32.9333407 C642.960023,32.8200074 642.853356,32.7066741 642.74669,32.5933407 C642.417182,32.2726599 642.107709,31.9320169 641.820023,31.573341 C641.623429,31.3740441 641.467228,31.1386113 641.360024,30.8800078 C641.146675,30.2212969 641.146675,29.5120526 641.360024,28.8533417 C641.468864,28.5956128 641.624871,28.3604724 641.820023,28.1600085 C642.109413,27.8027909 642.418797,27.4622459 642.74669,27.1400088 C642.853356,27.0266755 642.960023,26.9133421 643.073356,26.8000088 L643.46669,26.4066756 L647.606689,22.26001 C647.740022,22.1266767 647.873355,21.9933434 648.006689,21.8666767 C648.113355,21.7533434 648.226689,21.6400101 648.340022,21.5333435 C648.348911,21.5244546 650.124466,19.7511217 653.666687,16.2133448 C653.853354,16.0266782 654.046687,15.8400116 654.24002,15.6533449 C654.28002,15.6200116 654.453354,15.433345 654.50002,15.3866783 C655.018844,14.8672219 655.614751,14.4309733 656.266687,14.0933453 C656.925674,13.7654771 657.628441,13.5342149 658.353353,13.4066788 C659.076492,13.2885247 659.807366,13.2239047 660.540019,13.2133455 C660.873352,13.2066789 661.206685,13.2066789 661.540019,13.2000122 L677.320015,13.2000122 C677.653348,13.2066789 677.986681,13.2066789 678.320014,13.2133455 C679.054848,13.2244919 679.787895,13.289107 680.513347,13.4066788 C681.233976,13.5343051 681.932331,13.7655931 682.58668,14.0933453 C683.242772,14.4274681 683.841396,14.864059 684.360013,15.3866783 C684.878395,15.9048758 685.312531,16.5009693 685.646679,17.1533446 C685.975475,17.8119501 686.206783,18.5148555 686.333346,19.2400107 C686.448996,19.9633492 686.511386,20.6942022 686.520012,21.4266768 C686.533346,21.7600101 686.533346,22.10001 686.540012,22.4333433 L686.540012,37.3000062 C686.533346,37.6333395 686.533346,37.9733394 686.520012,38.3066727 C686.511102,39.0391335 686.448714,39.7699658 686.333346,40.4933388 C686.20581,41.21825 685.974547,41.9210178 685.646679,42.5800049 C685.312531,43.2323803 684.878395,43.8284737 684.360013,44.3466712 C683.841396,44.8692906 683.242772,45.3058814 682.58668,45.6400042 C681.932331,45.9677564 681.233976,46.1990444 680.513347,46.3266707 C679.787736,46.4420421 679.054687,46.5044292 678.320014,46.5133373 C677.986681,46.5266706 677.653348,46.5266706 677.320015,46.5266706 C676.920015,46.5333373 676.526682,46.5333373 676.126682,46.5333373 L662.733352,46.5333373 Z M675.576665,22.4984877 C676.023987,22.6831883 676.315801,23.1193886 676.315801,23.603343 C676.315801,23.925818 676.186235,24.2270903 675.967431,24.4468811 L675.980015,24.4600094 L670.588012,29.8560122 L675.859991,35.1176773 C675.904087,35.1505866 675.946439,35.1869186 675.986682,35.2266734 C676.329655,35.5681136 676.432904,36.082667 676.248204,36.5299896 C676.063503,36.9773121 675.627303,37.2691253 675.143349,37.2691253 C674.820873,37.2691253 674.519601,37.1395601 674.29981,36.9207555 L674.286682,36.9333397 L668.897012,31.5490122 L663.513351,36.9400063 L663.497849,36.9229331 C663.389763,37.0291111 663.260619,37.1157316 663.115075,37.1758309 C662.666021,37.3612593 662.149467,37.2576276 661.806685,36.9133397 C661.340533,36.4451397 661.340533,35.6882068 661.806685,35.2200068 C661.875242,35.1511492 661.950749,35.0919178 662.031277,35.0427 L667.207012,29.8610122 L661.806685,24.4666761 L661.823332,24.4507388 C661.717348,24.3427414 661.630879,24.2137486 661.570861,24.0684002 C661.385432,23.6193454 661.489064,23.1027922 661.833352,22.7600098 C662.301552,22.2938573 663.058485,22.2938573 663.526685,22.7600098 C663.594365,22.8273944 663.652746,22.9014942 663.701459,22.9804764 L668.897012,28.1680122 L674.147126,22.9103826 C674.184452,22.8577292 674.226526,22.8074073 674.273349,22.7600098 C674.614789,22.417037 675.129342,22.3137872 675.576665,22.4984877 Z" id="ic_delete" fill="#FFFFFF" fill-rule="nonzero"></path>
                </g>
            </g>
        </g>
    </g>
</svg>