<?xml version="1.0" encoding="UTF-8"?>
<svg width="40px" height="40px" viewBox="0 0 40 40" version="1.1" xmlns="http://www.w3.org/2000/svg" xmlns:xlink="http://www.w3.org/1999/xlink">
    <title>ic_edit</title>
    <defs>
        <polygon id="path-1" points="0 0 33.2741988 0 33.2741988 33.2729868 0 33.2729868"></polygon>
        <polygon id="path-3" points="0 0 36.7357122 0 36.7357122 3.06132211 0 3.06132211"></polygon>
    </defs>
    <g id="页面-1" stroke="none" stroke-width="1" fill="none" fill-rule="evenodd">
        <g id="4-5我的-基础信息-填写后" transform="translate(-355.000000, -292.000000)">
            <g id="ic_edit" transform="translate(355.000000, 292.000000)">
                <polygon id="Fill-1" fill="#131313" opacity="0" points="0 39.9992347 40.0007653 39.9992347 40.0007653 0 0 0"></polygon>
                <g id="编组" transform="translate(0.000000, 0.000077)">
                    <g>
                        <mask id="mask-2" fill="white">
                            <use xlink:href="#path-1"></use>
                        </mask>
                        <g id="Clip-3"></g>
                        <path d="M32.3776141,5.22529417 L28.047374,0.896584713 C26.8519277,-0.298861571 24.9141108,-0.298861571 23.7186645,0.896584713 L0.448024491,24.1656941 C0.106687075,24.5070315 -0.0525016742,24.987659 0.0148474122,25.4652253 L0.827628432,31.1485698 C0.924060078,31.82053 1.45213814,32.3501387 2.12562901,32.4465704 L7.8089735,33.2578207 C8.28500909,33.3251698 8.76716732,33.1659811 9.10697407,32.8246436 L32.3776141,9.55400364 C33.5730604,8.36008801 33.5730604,6.42074046 32.3776141,5.22529417" id="Fill-2" fill="#FFFFFF" mask="url(#mask-2)"></path>
                    </g>
                    <g transform="translate(0.000000, 36.938601)">
                        <mask id="mask-4" fill="white">
                            <use xlink:href="#path-3"></use>
                        </mask>
                        <g id="Clip-5"></g>
                        <path d="M35.2050512,3.06132211 L1.53050799,3.06132211 C0.688644408,3.06132211 -0.000153066105,2.3740553 -0.000153066105,1.53066105 C-0.000153066105,0.688797474 0.688644408,0 1.53050799,0 L35.2050512,0 C36.0469148,0 36.7357122,0.688797474 36.7357122,1.53066105 C36.7357122,2.3740553 36.0469148,3.06132211 35.2050512,3.06132211" id="Fill-4" fill="#FFFFFF" mask="url(#mask-4)"></path>
                    </g>
                </g>
            </g>
        </g>
    </g>
</svg>