<?xml version="1.0" encoding="UTF-8"?>
<svg width="64px" height="64px" viewBox="0 0 64 64" version="1.1" xmlns="http://www.w3.org/2000/svg" xmlns:xlink="http://www.w3.org/1999/xlink">
    <title>ic_expression</title>
    <g id="页面-1" stroke="none" stroke-width="1" fill="none" fill-rule="evenodd">
        <g id="3-2私信界面-键盘" transform="translate(-662.000000, -942.000000)">
            <g id="ic_expression" transform="translate(662.000000, 942.000000)">
                <circle id="椭圆形" stroke="#FFFFFF" stroke-width="4" fill-opacity="0" fill="#000000" cx="32" cy="32" r="30"></circle>
                <g id="编组-2" transform="translate(19.000000, 20.000000)" fill="#FFFFFF">
                    <path d="M24.9942,8.49710658 C24.4902,8.49710658 23.9902,8.28010658 23.6442,7.86210658 C22.4332,6.39710658 20.7882,6.03210658 19.9152,5.94510658 C19.0922,5.86210658 18.4092,5.32810658 18.1292,4.55210658 C17.8472,3.76810658 18.0352,2.91410658 18.6202,2.32110658 C21.3972,-0.494893419 25.3182,0.0291065811 25.4832,0.0541065811 C26.4392,0.191106581 27.1042,1.07810658 26.9672,2.03410658 C26.8302,2.98710658 25.9492,3.66310658 24.9972,3.51910658 C24.9652,3.51710658 24.4742,3.46110658 23.8082,3.54410658 C24.6772,4.01610658 25.5592,4.68410658 26.3422,5.63210658 C26.9582,6.37710658 26.8532,7.48010658 26.1082,8.09610658 C25.7822,8.36510658 25.3872,8.49710658 24.9942,8.49710658" id="Fill-3"></path>
                    <path d="M8,4.24800658 C8,6.45700658 6.209,8.24800658 4,8.24800658 C1.791,8.24800658 0,6.45700658 0,4.24800658 C0,2.03900658 1.791,0.248006581 4,0.248006581 C6.209,0.248006581 8,2.03900658 8,4.24800658" id="Fill-5"></path>
                    <path d="M22.312,15.5547066 C21.562,15.5547066 20.894,15.9837066 20.54,16.6437066 C19.192,19.1607066 16.542,20.8787066 13.493,20.8787066 C10.443,20.8787066 7.793,19.1607066 6.445,16.6437066 C6.091,15.9837066 5.422,15.5547066 4.673,15.5547066 C3.187,15.5547066 2.189,17.1347066 2.882,18.4487066 C4.895,22.2627066 8.9,24.8787066 13.493,24.8787066 C18.084,24.8787066 22.089,22.2627066 24.103,18.4487066 C24.795,17.1347066 23.797,15.5547066 22.312,15.5547066" id="Fill-7"></path>
                </g>
            </g>
        </g>
    </g>
</svg>