<?xml version="1.0" encoding="UTF-8"?>
<svg width="240px" height="240px" viewBox="0 0 240 240" version="1.1" xmlns="http://www.w3.org/2000/svg" xmlns:xlink="http://www.w3.org/1999/xlink">
    <title>img_default_page</title>
    <defs>
        <linearGradient x1="0%" y1="50%" x2="100%" y2="50%" id="linearGradient-1">
            <stop stop-color="#232633" offset="0%"></stop>
            <stop stop-color="#232633" stop-opacity="0" offset="100%"></stop>
        </linearGradient>
        <linearGradient x1="0%" y1="50%" x2="100%" y2="50%" id="linearGradient-2">
            <stop stop-color="#232633" offset="0%"></stop>
            <stop stop-color="#232633" stop-opacity="0" offset="100%"></stop>
        </linearGradient>
        <polygon id="path-3" points="5.56430281e-15 1.11286056e-14 43.9674865 1.11286056e-14 43.9674865 5.30730515 5.56430281e-15 5.30730515"></polygon>
        <polygon id="path-5" points="0 176.470588 161.822982 176.470588 161.822982 0 0 0"></polygon>
    </defs>
    <g id="页面-1" stroke="none" stroke-width="1" fill="none" fill-rule="evenodd">
        <g id="6-5消息-缺省页" transform="translate(-255.000000, -696.000000)">
            <g id="img_default_page" transform="translate(255.000000, 696.000000)">
                <rect id="矩形" fill="#D8D8D8" opacity="0" x="0" y="0" width="240" height="240"></rect>
                <rect id="矩形" fill="#D8D8D8" opacity="0" x="0" y="0" width="240" height="240"></rect>
                <g id="编组-3" transform="translate(60.000000, 0.000000)">
                    <rect id="矩形" fill="#13161F" x="11.25" y="12.4038462" width="168.75" height="216.346154" rx="20"></rect>
                    <rect id="矩形" fill="#1C1F2A" x="0" y="0" width="168.75" height="216.346154" rx="16"></rect>
                    <circle id="椭圆形" fill="#232633" cx="31.875" cy="42.1875" r="11.25"></circle>
                    <rect id="矩形" fill="url(#linearGradient-1)" x="58.125" y="32.8125" width="110.625" height="5.625" rx="2.8125"></rect>
                    <rect id="矩形备份-2" fill="url(#linearGradient-2)" x="58.125" y="45.9375" width="57.6171875" height="5.625" rx="2.8125"></rect>
                </g>
                <g id="编组" transform="translate(0.000000, 63.529412)">
                    <polygon id="Fill-1" fill="#FFD1BE" points="124.570473 38.9791404 130.820442 55.3722899 149.727753 49.0698528 142.393574 31.0736853"></polygon>
                    <polygon id="Fill-2" fill="#FFD1BE" points="19.664105 22.1469817 40.0969068 47.3073944 21.8685483 62.1108387 1.43574654 36.950426"></polygon>
                    <g>
                        <path d="M8.13995618,40.3820748 L8.13995618,40.3820748 C6.84156643,41.436527 4.91669188,41.236835 3.86223965,39.9384453 L0.676955983,36.0162588 C-0.377496248,34.7178691 -0.177804218,32.7929945 1.12058553,31.7385423 C2.41858373,30.6840901 4.34384984,30.8837821 5.39791052,32.1821719 L8.58358573,36.1043583 C9.63764641,37.402748 9.43834593,39.3276226 8.13995618,40.3820748" id="Fill-3" fill="#FFD1BE"></path>
                        <path d="M12.6423458,36.7256354 L12.6423458,36.7256354 C11.3439561,37.7800877 9.41908153,37.5803956 8.36462929,36.2820059 L5.17934563,32.3598195 C4.1248934,31.0614297 4.32458543,29.1365552 5.62297518,28.0821029 C6.92136493,27.0276507 8.84623949,27.2273427 9.90069172,28.5257325 L13.0859754,32.4483104 C14.1404276,33.7463086 13.9407356,35.6715747 12.6423458,36.7256354" id="Fill-5" fill="#FFD1BE"></path>
                        <path d="M17.1448138,33.0691569 L17.1448138,33.0691569 C15.846424,34.1236091 13.9215495,33.9239171 12.8670973,32.6259189 L9.68181359,28.7033409 C8.62736136,27.4049512 8.82705339,25.4800766 10.1254431,24.4256244 C11.4234413,23.3711721 13.3487074,23.5708642 14.4027681,24.8692539 L17.5884433,28.7918319 C18.642504,30.0898301 18.4432035,32.0150962 17.1448138,33.0691569" id="Fill-7" fill="#FFD1BE"></path>
                        <path d="M21.6472034,29.4126783 L21.6472034,29.4126783 C20.3488137,30.4671306 18.4239391,30.2674385 17.3694869,28.9694403 L14.1842032,25.0468624 C13.129751,23.7484726 13.329443,21.8235981 14.6278328,20.7691458 C15.9262225,19.7146936 17.8510971,19.9143856 18.9055493,21.2127754 L22.090833,25.1353533 C23.1452852,26.4333515 22.9455932,28.3586177 21.6472034,29.4126783" id="Fill-9" fill="#FFD1BE"></path>
                        <path d="M28.0129155,39.751557 L28.0129155,39.751557 C26.5132675,39.5961105 25.4137867,38.2421202 25.5692332,36.7424722 L26.5974514,26.8256093 C26.7528979,25.3263529 28.1068882,24.2268721 29.6065362,24.3823186 C31.1057927,24.5377652 32.205665,25.8917554 32.0502185,27.3910119 L31.0220003,37.3078747 C30.8665538,38.8075227 29.5121719,39.9070036 28.0129155,39.751557" id="Fill-11" fill="#FFD1BE"></path>
                        <polygon id="Fill-13" fill="#35211F" points="10.5581092 38.4182016 10.2241145 38.6895478 4.54659598 31.698369 4.88059069 31.4274143"></polygon>
                        <line x1="9.21617876" y1="27.9064914" x2="14.8936973" y2="34.8972787" id="Stroke-15" stroke="#35211F" stroke-width="1.099"></line>
                        <line x1="13.609286" y1="24.3387388" x2="19.2868045" y2="31.329526" id="Stroke-17" stroke="#35211F" stroke-width="1.099"></line>
                        <polygon id="Fill-19" fill="#35211F" points="21.7706209 29.5646792 8.26321707 40.5340365 8.01653868 40.2301914 21.5239426 29.2608341"></polygon>
                        <path d="M24.1700186,40.6159103 L23.8360239,40.8872565 C22.5239298,39.2713173 21.9843697,37.5735434 22.2318312,35.8405299 C22.6778101,32.7151538 25.5079552,30.5169753 26.0389011,30.1289462 L26.3838592,26.8034866 L26.8114351,26.8477321 L26.4465077,30.3681851 L26.3650647,30.4245688 C26.3317827,30.4464957 23.1112593,32.7124129 22.6570578,35.9035699 C22.4279993,37.5124612 22.9370182,39.0978593 24.1700186,40.6159103" id="Fill-21" fill="#35211F"></path>
                        <path d="M61.268804,174.227851 L17.9364165,174.227851 C17.5859766,174.227851 17.3013175,173.943583 17.3013175,173.592752 L17.3013175,173.405981 L61.268804,173.405981 L61.268804,174.227851 Z" id="Fill-23" fill="#4A5FFF"></path>
                        <g transform="translate(17.301435, 171.163283)">
                            <mask id="mask-4" fill="white">
                                <use xlink:href="#path-3"></use>
                            </mask>
                            <g id="Clip-26"></g>
                            <path d="M43.9674865,1.94954239 C43.7685776,1.83912445 43.5786744,1.67545529 43.3210325,1.45148697 C42.615454,0.839098081 41.6498843,1.11286056e-14 39.8326868,1.11286056e-14 C38.0158809,1.11286056e-14 37.0499196,0.839098081 36.3447327,1.45148697 C35.8137868,1.91234486 35.571807,2.12300037 34.9445391,2.12300037 C34.3184459,2.12300037 34.0768577,1.91273641 33.5463034,1.45187853 C32.841508,0.839098081 31.8759383,1.11286056e-14 30.0599154,1.11286056e-14 C28.2431095,1.11286056e-14 27.2775398,0.839098081 26.5723529,1.45187853 C26.0417985,1.91273641 25.7998188,2.12300037 25.173334,2.12300037 C24.5472407,2.12300037 24.305261,1.91273641 23.7754898,1.45187853 C23.0703028,0.839098081 22.1047331,1.11286056e-14 20.2887103,1.11286056e-14 C18.4722959,1.11286056e-14 17.5067262,0.839098081 16.8019308,1.45187853 C16.2721596,1.91273641 16.0305714,2.12300037 15.4048697,2.12300037 C14.779168,2.12300037 14.5371883,1.91273641 14.0070255,1.45187853 C13.3022301,0.839098081 12.3366604,1.11286056e-14 10.5198545,1.11286056e-14 C8.70344011,1.11286056e-14 7.73826196,0.839098081 7.033075,1.45187853 C6.50330379,1.91273641 6.26093249,2.12300037 5.63523079,2.12300037 C5.00913754,2.12300037 4.76754934,1.91273641 4.23738658,1.45187853 C3.53259118,0.839098081 2.56702147,1.11286056e-14 0.750607103,1.11286056e-14 C0.477694661,1.11286056e-14 0.224751423,0.0751781762 5.56430281e-15,0.196168054 L5.56430281e-15,2.38925641 C5.56430281e-15,2.80821812 0.323814332,3.18215124 0.74238449,3.18450056 L0.750607103,3.18450056 C1.3763088,3.18450056 1.61828855,3.39476452 2.14845132,3.85523085 C2.85324672,4.46840285 3.81881642,5.30750093 5.63523079,5.30750093 C7.45164516,5.30750093 8.41721486,4.46840285 9.12201026,3.85523085 C9.65217303,3.39476452 9.89415278,3.18450056 10.5198545,3.18450056 C11.1459477,3.18450056 11.3879275,3.39476452 11.9180902,3.85523085 C12.6228856,4.46840285 13.5884553,5.30750093 15.4048697,5.30750093 C17.2212841,5.30750093 18.1864622,4.46840285 18.8916492,3.85523085 C19.4210288,3.39476452 19.6630086,3.18450056 20.2887103,3.18450056 C20.914412,3.18450056 21.1563918,3.39476452 21.686163,3.85523085 C22.3913499,4.46840285 23.3569196,5.30750093 25.173334,5.30750093 C26.9901399,5.30750093 27.9557096,4.46840285 28.6608966,3.8556224 C29.1910593,3.39476452 29.4330391,3.18450056 30.0599154,3.18450056 C30.6856171,3.18450056 30.9275969,3.39476452 31.4573681,3.85523085 C32.1625551,4.46840285 33.1281248,5.30750093 34.9445391,5.30750093 C36.7617366,5.30750093 37.7273063,4.46840285 38.4328848,3.85601395 C38.9634391,3.39476452 39.2058104,3.18450056 39.8326868,3.18450056 C40.4599547,3.18450056 40.7019345,3.39476452 41.2328803,3.85601395 C41.6408786,4.21036942 42.1393255,4.6387284 42.8382476,4.93709179 C43.3735006,5.16497564 43.9674865,4.75501964 43.9674865,4.17317188 L43.9674865,1.94954239 Z" id="Fill-25" fill="#FFCFBC" mask="url(#mask-4)"></path>
                        </g>
                        <path d="M61.268804,173.330607 L17.3013175,173.330607 L17.3013175,170.723256 C17.3013175,166.035583 21.1455849,162.23517 25.8872917,162.23517 L61.268804,162.23517 L61.268804,173.330607 Z" id="Fill-27" fill="#4A5FFF"></path>
                        <mask id="mask-6" fill="white">
                            <use xlink:href="#path-5"></use>
                        </mask>
                        <g id="Clip-30"></g>
                        <polygon id="Fill-29" fill="#35211F" mask="url(#mask-6)" points="17.3015525 171.564821 61.2690389 171.564821 61.2690389 171.154082 17.3015525 171.154082"></polygon>
                        <path d="M61.268804,174.227851 L17.9364165,174.227851 C17.5859766,174.227851 17.3013175,173.943583 17.3013175,173.592752 L17.3013175,173.405981 L61.268804,173.405981 L61.268804,174.227851 Z" id="Fill-31" fill="#4A5FFF" mask="url(#mask-6)"></path>
                        <path d="M61.2689215,173.112825 C61.0700125,173.002408 60.8801093,172.838738 60.6224675,172.61477 C59.916889,172.002381 58.9513193,171.163283 57.1341218,171.163283 C55.3173159,171.163283 54.3513546,172.002381 53.6461676,172.61477 C53.1152218,173.075628 52.873242,173.286283 52.2459741,173.286283 C51.6198809,173.286283 51.3782927,173.076019 50.8477384,172.615162 C50.1429429,172.002381 49.1773732,171.163283 47.3613504,171.163283 C45.5445445,171.163283 44.5789748,172.002381 43.8737878,172.615162 C43.3432335,173.076019 43.1012538,173.286283 42.474769,173.286283 C41.8486757,173.286283 41.606696,173.076019 41.0769248,172.615162 C40.3717378,172.002381 39.4061681,171.163283 37.5901453,171.163283 C35.7737309,171.163283 34.8081612,172.002381 34.1033658,172.615162 C33.5735946,173.076019 33.3320064,173.286283 32.7063047,173.286283 C32.080603,173.286283 31.8386233,173.076019 31.3084605,172.615162 C30.6036651,172.002381 29.6380954,171.163283 27.8212895,171.163283 C26.0048751,171.163283 25.0396969,172.002381 24.33451,172.615162 C23.8047388,173.076019 23.5623675,173.286283 22.9366658,173.286283 C22.3105725,173.286283 22.0689843,173.076019 21.5388216,172.615162 C20.8340262,172.002381 19.8684565,171.163283 18.0520421,171.163283 C17.7791297,171.163283 17.5261864,171.238461 17.301435,171.359451 L17.301435,173.552539 C17.301435,173.971501 17.6252493,174.345434 18.0438195,174.347784 L18.0520421,174.347784 C18.6777438,174.347784 18.9197235,174.558048 19.4498863,175.018514 C20.1546817,175.631686 21.1202514,176.470784 22.9366658,176.470784 C24.7530802,176.470784 25.7186499,175.631686 26.4234453,175.018514 C26.953608,174.558048 27.1955878,174.347784 27.8212895,174.347784 C28.4473827,174.347784 28.6893625,174.558048 29.2195252,175.018514 C29.9243206,175.631686 30.8898903,176.470784 32.7063047,176.470784 C34.5227191,176.470784 35.4878972,175.631686 36.1930842,175.018514 C36.7224638,174.558048 36.9644436,174.347784 37.5901453,174.347784 C38.215847,174.347784 38.4578267,174.558048 38.987598,175.018514 C39.6927849,175.631686 40.6583546,176.470784 42.474769,176.470784 C44.2915749,176.470784 45.2571446,175.631686 45.9623316,175.018905 C46.4924943,174.558048 46.7344741,174.347784 47.3613504,174.347784 C47.9870521,174.347784 48.2290319,174.558048 48.7588031,175.018514 C49.46399,175.631686 50.4295597,176.470784 52.2459741,176.470784 C54.0631716,176.470784 55.0287413,175.631686 55.7343198,175.019297 C56.2648741,174.558048 56.5072454,174.347784 57.1341218,174.347784 C57.7613897,174.347784 58.0033694,174.558048 58.5343153,175.019297 C58.9423135,175.373653 59.4407605,175.802011 60.1396826,176.100375 C60.6749356,176.328259 61.2689215,175.918303 61.2689215,175.336455 L61.2689215,173.112825 Z" id="Fill-32" fill="#FFCFBC" mask="url(#mask-6)"></path>
                        <path d="M61.268804,173.330607 L17.3013175,173.330607 L17.3013175,170.723256 C17.3013175,166.035583 21.1455849,162.23517 25.8872917,162.23517 L61.268804,162.23517 L61.268804,173.330607 Z" id="Fill-33" fill="#4A5FFF" mask="url(#mask-6)"></path>
                        <polygon id="Fill-34" fill="#35211F" mask="url(#mask-6)" points="17.3015525 171.564821 61.2690389 171.564821 61.2690389 171.154082 17.3015525 171.154082"></polygon>
                        <path d="M76.1804344,174.227851 L119.512822,174.227851 C119.863262,174.227851 120.147921,173.943583 120.147921,173.592752 L120.147921,173.405981 L76.1804344,173.405981 L76.1804344,174.227851 Z" id="Fill-35" fill="#4A5FFF" mask="url(#mask-6)"></path>
                        <path d="M76.1804344,173.112825 C76.3793433,173.002408 76.5692465,172.838738 76.8268884,172.61477 C77.5320754,172.002381 78.4980366,171.163283 80.3152341,171.163283 C82.13204,171.163283 83.0980013,172.002381 83.8031882,172.61477 C84.3337425,173.075628 84.5761139,173.286283 85.2033818,173.286283 C85.8290835,173.286283 86.0710632,173.076019 86.601226,172.615162 C87.3064129,172.002381 88.2715911,171.163283 90.0880055,171.163283 C91.9048114,171.163283 92.8703811,172.002381 93.575568,172.615162 C94.1061223,173.076019 94.3481021,173.286283 94.9745869,173.286283 C95.6006802,173.286283 95.8422684,173.076019 96.3724311,172.615162 C97.0772265,172.002381 98.0427962,171.163283 99.8592106,171.163283 C101.675625,171.163283 102.640803,172.002381 103.34599,172.615162 C103.87537,173.076019 104.117349,173.286283 104.74266,173.286283 C105.368753,173.286283 105.610733,173.076019 106.140895,172.615162 C106.845691,172.002381 107.81126,171.163283 109.628066,171.163283 C111.444481,171.163283 112.409659,172.002381 113.114846,172.615162 C113.644617,173.076019 113.886597,173.286283 114.51269,173.286283 C115.138783,173.286283 115.380372,173.076019 115.910534,172.615162 C116.61533,172.002381 117.580899,171.163283 119.396922,171.163283 C119.670226,171.163283 119.923169,171.238461 120.147921,171.359451 L120.147921,173.552539 C120.147921,173.971501 119.824107,174.345434 119.405145,174.347784 L119.396922,174.347784 C118.771221,174.347784 118.529241,174.558048 117.99947,175.018514 C117.294674,175.631686 116.329104,176.470784 114.51269,176.470784 C112.696276,176.470784 111.730706,175.631686 111.025911,175.018514 C110.495748,174.558048 110.253768,174.347784 109.628066,174.347784 C109.001973,174.347784 108.759993,174.558048 108.229831,175.018514 C107.524644,175.631686 106.559074,176.470784 104.74266,176.470784 C102.926637,176.470784 101.961459,175.631686 101.256272,175.018514 C100.7265,174.558048 100.484912,174.347784 99.8592106,174.347784 C99.2335089,174.347784 98.9915291,174.558048 98.4613664,175.018514 C97.756571,175.631686 96.7910013,176.470784 94.9745869,176.470784 C93.157781,176.470784 92.1922113,175.631686 91.4870243,175.018905 C90.9568616,174.558048 90.7148818,174.347784 90.0880055,174.347784 C89.4623038,174.347784 89.220324,174.558048 88.6901612,175.018514 C87.9853658,175.631686 87.0197961,176.470784 85.2033818,176.470784 C83.3861843,176.470784 82.420223,175.631686 81.7150361,175.019297 C81.1844818,174.558048 80.9421105,174.347784 80.3152341,174.347784 C79.6879662,174.347784 79.4459864,174.558048 78.9150406,175.019297 C78.5066508,175.373653 78.0085954,175.802011 77.3092817,176.100375 C76.7744203,176.328259 76.1804344,175.918303 76.1804344,175.336455 L76.1804344,173.112825 Z" id="Fill-36" fill="#FFCFBC" mask="url(#mask-6)"></path>
                        <path d="M76.1804344,173.330607 L120.147921,173.330607 L120.147921,170.723256 C120.147921,166.035583 116.303654,162.23517 111.561947,162.23517 L78.3222293,163.409829 L76.1804344,173.330607 Z" id="Fill-37" fill="#4A5FFF" mask="url(#mask-6)"></path>
                        <polygon id="Fill-38" fill="#35211F" mask="url(#mask-6)" points="76.1805519 171.564821 120.148038 171.564821 120.148038 171.154082 76.1805519 171.154082"></polygon>
                        <path d="M76.1804344,174.227851 L119.512822,174.227851 C119.863262,174.227851 120.147921,173.943583 120.147921,173.592752 L120.147921,173.405981 L76.1804344,173.405981 L76.1804344,174.227851 Z" id="Fill-39" fill="#4A5FFF" mask="url(#mask-6)"></path>
                        <path d="M76.1804344,173.112825 C76.3793433,173.002408 76.5692465,172.838738 76.8268884,172.61477 C77.5320754,172.002381 78.4980366,171.163283 80.3152341,171.163283 C82.13204,171.163283 83.0980013,172.002381 83.8031882,172.61477 C84.3337425,173.075628 84.5761139,173.286283 85.2033818,173.286283 C85.8290835,173.286283 86.0710632,173.076019 86.601226,172.615162 C87.3064129,172.002381 88.2715911,171.163283 90.0880055,171.163283 C91.9048114,171.163283 92.8703811,172.002381 93.575568,172.615162 C94.1061223,173.076019 94.3481021,173.286283 94.9745869,173.286283 C95.6006802,173.286283 95.8422684,173.076019 96.3724311,172.615162 C97.0772265,172.002381 98.0427962,171.163283 99.8592106,171.163283 C101.675625,171.163283 102.640803,172.002381 103.34599,172.615162 C103.87537,173.076019 104.117349,173.286283 104.74266,173.286283 C105.368753,173.286283 105.610733,173.076019 106.140895,172.615162 C106.845691,172.002381 107.81126,171.163283 109.628066,171.163283 C111.444481,171.163283 112.409659,172.002381 113.114846,172.615162 C113.644617,173.076019 113.886597,173.286283 114.51269,173.286283 C115.138783,173.286283 115.380372,173.076019 115.910534,172.615162 C116.61533,172.002381 117.580899,171.163283 119.396922,171.163283 C119.670226,171.163283 119.923169,171.238461 120.147921,171.359451 L120.147921,173.552539 C120.147921,173.971501 119.824107,174.345434 119.405145,174.347784 L119.396922,174.347784 C118.771221,174.347784 118.529241,174.558048 117.99947,175.018514 C117.294674,175.631686 116.329104,176.470784 114.51269,176.470784 C112.696276,176.470784 111.730706,175.631686 111.025911,175.018514 C110.495748,174.558048 110.253768,174.347784 109.628066,174.347784 C109.001973,174.347784 108.759993,174.558048 108.229831,175.018514 C107.524644,175.631686 106.559074,176.470784 104.74266,176.470784 C102.926637,176.470784 101.961459,175.631686 101.256272,175.018514 C100.7265,174.558048 100.484912,174.347784 99.8592106,174.347784 C99.2335089,174.347784 98.9915291,174.558048 98.4613664,175.018514 C97.756571,175.631686 96.7910013,176.470784 94.9745869,176.470784 C93.157781,176.470784 92.1922113,175.631686 91.4870243,175.018905 C90.9568616,174.558048 90.7148818,174.347784 90.0880055,174.347784 C89.4623038,174.347784 89.220324,174.558048 88.6901612,175.018514 C87.9853658,175.631686 87.0197961,176.470784 85.2033818,176.470784 C83.3861843,176.470784 82.420223,175.631686 81.7150361,175.019297 C81.1844818,174.558048 80.9421105,174.347784 80.3152341,174.347784 C79.6879662,174.347784 79.4459864,174.558048 78.9150406,175.019297 C78.5066508,175.373653 78.0085954,175.802011 77.3092817,176.100375 C76.7744203,176.328259 76.1804344,175.918303 76.1804344,175.336455 L76.1804344,173.112825 Z" id="Fill-40" fill="#FFCFBC" mask="url(#mask-6)"></path>
                        <path d="M76.1804344,173.330607 L120.147921,173.330607 L120.147921,170.723256 C120.147921,166.035583 116.303654,162.23517 111.561947,162.23517 L78.8422117,162.23517 L76.1804344,169.872803 L76.1804344,173.330607 Z" id="Fill-41" fill="#4A5FFF" mask="url(#mask-6)"></path>
                        <polygon id="Fill-42" fill="#35211F" mask="url(#mask-6)" points="76.1805519 171.564821 120.148038 171.564821 120.148038 171.154082 76.1805519 171.154082"></polygon>
                        <path d="M84.2010452,100.859237 L61.2701353,169.872803 L26.5327277,162.307999 L51.3477907,78.3692157 L114.638026,78.3692157 C114.638026,78.3692157 125.432751,110.78119 126.31492,113.427305 C127.196697,116.073029 129.401532,122.90837 126.31492,131.066376 C123.227916,139.224775 113.105096,162.371822 113.105096,162.371822 L76.1761665,169.872803 L91.1691224,126.920222 C92.2204423,123.907221 92.1440894,120.615044 90.9537683,117.65412 L84.2010452,100.859237 Z" id="Fill-43" fill="#FFFFFF" mask="url(#mask-6)"></path>
                        <path d="M34.710038,39.452528 L15.6374914,56.7611284 C15.6374914,56.7611284 31.0717276,74.7310618 32.3947851,76.1641458 C33.7178427,77.5972298 41.1040985,84.2121262 51.3569139,78.3689808 L114.638144,78.3689808 L117.283867,71.7544759 C117.283867,71.7544759 139.112556,88.9526584 140.54564,89.8344357 C141.979115,90.7166046 161.823021,98.103252 161.823021,75.6132307 L152.782845,48.0514234 L128.308434,56.2098218 C128.308434,56.2098218 124.119208,44.5239225 123.237039,43.8621979 C122.355262,43.2008649 118.900981,40.7019736 111.698364,40.7019736 C104.495355,40.7019736 70.0989898,40.848806 70.0989898,40.848806 C70.0989898,40.848806 64.6599271,41.2896947 61.4260908,42.9068086 C58.1922546,44.5239225 45.6977983,51.7265399 45.6977983,51.7265399 L34.710038,39.452528 Z" id="Fill-44" fill="#FF3E6C" mask="url(#mask-6)"></path>
                        <polygon id="Fill-45" fill="#9B0A3A" mask="url(#mask-6)" points="69.7790519 67.5650154 51.3192856 78.3996785 49.1469496 84.8281957"></polygon>
                        <polygon id="Fill-46" fill="#9B0A3A" mask="url(#mask-6)" points="121.234363 59.4068129 117.283985 71.7544368 120.461829 74.2545027"></polygon>
                        <polygon id="Fill-47" fill="#9B0A3A" mask="url(#mask-6)" points="34.710038 39.452528 13.4377466 54.5468962 15.6374914 56.7611284"></polygon>
                        <line x1="59.5716567" y1="94.7781448" x2="40.3272182" y2="154.194746" id="Stroke-48" stroke="#35211F" mask="url(#mask-6)"></line>
                        <line x1="59.4630399" y1="165.9041" x2="29.9172335" y2="156.863924" id="Stroke-49" stroke="#35211F" mask="url(#mask-6)"></line>
                        <path d="M69.7025816,84.8283131 C69.7025816,84.8283131 68.379524,95.4119908 52.8348698,95.4119908" id="Stroke-50" stroke="#35211F" mask="url(#mask-6)"></path>
                        <path d="M94.9143661,97.882651 L102.183939,116.056192 C103.75485,119.983077 103.888761,124.338713 102.562962,128.355263 L93.1504198,156.863846" id="Stroke-51" stroke="#35211F" mask="url(#mask-6)"></path>
                        <line x1="82.5668596" y1="163.147919" x2="109.466942" y2="156.863885" id="Stroke-52" stroke="#35211F" mask="url(#mask-6)"></line>
                        <polygon id="Fill-53" fill="#B8B9BF" mask="url(#mask-6)" points="87.6279171 89.1273693 84.2010452 100.85908 86.5895185 106.799331"></polygon>
                        <path d="M86.319112,40.8874131 C86.5978978,43.3275714 88.6104802,45.2829871 91.1414788,45.4020192 C93.6724774,45.5206598 95.8593009,43.7625868 96.3659705,41.359626 L96.761439,41.378029 C96.2418482,44.0010426 93.8749103,45.9223932 91.1230758,45.7931807 C88.3712413,45.6639682 86.1949897,43.5292212 85.9236435,40.8690101 L86.319112,40.8874131 Z" id="Fill-54" fill="#35211F" mask="url(#mask-6)"></path>
                        <path d="M93.8527876,20.9512571 L93.8527876,20.9512571 C97.5098926,21.1227573 100.361182,24.2555729 100.189681,27.9126779 C100.074565,30.3606673 98.6293426,32.4425546 96.5917008,33.5032717 C96.7408825,34.0236456 96.8133198,34.5745607 96.7863026,35.1434872 L96.5278777,40.6498971 C96.3955327,43.4659462 93.9827832,45.662167 91.166734,45.5298221 L91.1663424,45.5298221 C88.3499017,45.3974772 86.1540725,42.9847276 86.2864174,40.1686784 L86.5789075,33.9371124 L86.7856474,29.5415384 L86.8913668,27.2877593 C87.0632585,23.6310459 90.1956825,20.7793654 93.8527876,20.9512571" id="Fill-55" fill="#FFCFBC" mask="url(#mask-6)"></path>
                        <path d="M97.7423184,25.1931466 C97.7270479,25.5173525 97.9776418,25.7922227 98.3014561,25.8074932 C98.625662,25.8227638 98.9005322,25.5721699 98.9158028,25.2483555 C98.9310734,24.9241497 98.6804794,24.6492795 98.3566651,24.6340089 C98.0324592,24.6187383 97.757589,24.8693322 97.7423184,25.1931466" id="Fill-56" fill="#35211F" mask="url(#mask-6)"></path>
                        <path d="M94.6352279,27.0545895 C94.6199574,27.3787954 94.8705513,27.6536656 95.1943656,27.6689362 C95.5185715,27.6838152 95.7934417,27.4336128 95.8087123,27.1097985 C95.8239828,26.7855926 95.5733889,26.5107224 95.2495746,26.4954519 C94.9253687,26.4801813 94.6504985,26.7303837 94.6352279,27.0545895" id="Fill-57" fill="#35211F" mask="url(#mask-6)"></path>
                        <path d="M97.4861253,27.9724681 C97.5405512,27.9748174 97.5957602,27.9552397 97.6364817,27.912952 L97.9947527,27.5413682 C98.240648,27.2864672 98.2590509,26.8859085 98.0374319,26.6098636 L96.1685495,24.2362693 C96.1015939,24.1513023 95.9782547,24.1364233 95.8932877,24.2033789 C95.8083207,24.2703345 95.7938332,24.3932821 95.8607888,24.4786407 L97.7308459,26.8534096 C97.830692,26.9779235 97.8224693,27.1560801 97.7132261,27.2692389 L97.3545635,27.6408227 C97.2793853,27.7187417 97.2817347,27.8424725 97.3592621,27.9176507 C97.3948935,27.9521073 97.4403136,27.9705103 97.4861253,27.9724681" id="Fill-58" fill="#35211F" mask="url(#mask-6)"></path>
                        <path d="M96.5308535,23.6462773 C96.7031368,23.3291194 96.9736999,23.1149399 97.2896832,23.0291898 C97.3938363,23.0009979 97.4557017,22.8933209 97.4271183,22.7887762 C97.3989265,22.6846231 97.2912494,22.6231493 97.1870963,22.6513411 C96.7685261,22.765283 96.4098636,23.0487674 96.2031236,23.4297485 L96.3585701,23.5534792 L96.5308535,23.6462773 Z" id="Fill-59" fill="#35211F" mask="url(#mask-6)"></path>
                        <path d="M94.049817,25.5809015 C94.1152064,25.5840339 94.1770718,25.5538843 94.21192,25.4900612 C94.3845948,25.1721202 94.655158,24.9583322 94.9707497,24.8725821 C95.0752943,24.8439988 95.1367682,24.7367132 95.1085763,24.6321686 C95.079993,24.5276239 94.9723159,24.4673248 94.8681628,24.4943419 C94.4495926,24.6082839 94.0913216,24.8917682 93.8841901,25.2727493 C93.8325051,25.3678967 93.8595223,25.5014162 93.9546696,25.5534928 C93.9856023,25.5703296 94.0181012,25.5793353 94.049817,25.5809015" id="Fill-60" fill="#35211F" mask="url(#mask-6)"></path>
                        <path d="M97.9061834,28.9970448 C97.9061834,28.9970448 96.3705125,29.101981 95.7471601,28.4175464 C95.7471601,28.4175464 95.6293027,29.8467148 96.4840629,29.8866532 C97.3392146,29.9269832 97.9061834,28.9970448 97.9061834,28.9970448" id="Fill-61" fill="#FF395F" mask="url(#mask-6)"></path>
                        <path d="M93.852905,20.9512571 C94.0639521,20.961046 94.2714752,20.9833645 94.476649,21.0123394 C94.4602037,21.7496337 94.2530722,24.9717233 91.9495659,27.7125944 C91.9495659,27.7125944 90.7474982,27.2658324 90.3923596,27.5865143 C90.0560156,27.8895763 90.0207758,29.3880496 89.8798167,29.5771697 C89.0023464,30.1742881 87.9572915,30.6927042 86.7133276,31.0830826 L86.7853734,29.5415384 L86.8914842,27.2877593 C87.063376,23.6310459 90.1958,20.7793654 93.852905,20.9512571" id="Fill-62" fill="#35211F" mask="url(#mask-6)"></path>
                        <path d="M90.7012558,21.585064 C90.7012558,21.585064 92.0724744,14.3229305 87.83313,10.5922135 C83.5937857,6.86110493 78.7138606,7.36777451 71.9752335,9.84708811 C65.2366063,12.3264017 55.1513757,7.73231035 50.1504608,4.55407464 C45.1491543,1.37623049 31.3351644,4.11201131 26.9587765,15.8261024 C22.5823886,27.539802 29.5348037,42.4352613 48.7404784,40.8357673 C67.9457616,39.2362733 71.4364566,10.3142108 88.3300108,23.469217 L90.7012558,21.585064 Z" id="Fill-63" fill="#35211F" mask="url(#mask-6)"></path>
                        <path d="M96.5966344,33.5230451 C96.7419005,34.0379373 96.8127716,34.5818044 96.7865376,35.1432914 L96.7097932,36.779983 C96.172974,36.484752 92.094558,33.8930627 92.094558,33.8930627 C94.4164673,34.2525084 95.9748482,33.7759884 96.5966344,33.5230451" id="Fill-64" fill="#35211F" mask="url(#mask-6)"></path>
                        <path d="M92.1916631,31.260691 C92.2010604,31.2610826 92.2100661,31.2614741 92.2194634,31.2618657 C92.327532,31.2665643 92.4187638,31.1823804 92.4230709,31.0743118 C92.427378,30.9662432 92.3580731,30.8683549 92.2351255,30.8707042 C90.8114388,30.8041402 90.3544964,30.0124201 90.2060978,29.539424 C90.000141,28.8820065 90.1618523,28.1223937 90.5745492,27.8099344 C91.3435593,27.2276951 92.146243,28.0280295 92.1799165,28.0624861 C92.2562694,28.1396221 92.3796085,28.1407967 92.4567445,28.0648354 C92.5338804,27.9892657 92.5350551,27.8651434 92.4594854,27.7880075 C92.0898593,27.4121166 91.1704929,26.8678579 90.3380512,27.4978667 C89.793401,27.9097804 89.5760891,28.8381526 89.8325563,29.6564984 C90.1352267,30.6208934 90.9939025,31.2043074 92.1916631,31.260691" id="Fill-65" fill="#35211F" mask="url(#mask-6)"></path>
                        <polygon id="Fill-66" fill="#35211F" mask="url(#mask-6)" points="92.0169913 122.349545 91.7820595 122.036303 95.678795 119.113751 95.9137268 119.426994"></polygon>
                        <path d="M136.780701,43.4898701 L136.780701,43.4898701 C134.524572,44.3794786 131.950503,43.2615947 131.060503,41.0050748 L126.700952,29.9499674 C125.810952,27.693839 126.929227,25.1197695 129.185356,24.2301611 C131.441876,23.3401611 134.015945,24.4584365 134.905554,26.7145649 L139.265105,37.7696723 C140.155105,40.0258007 139.036829,42.6002617 136.780701,43.4898701" id="Fill-67" fill="#334AD1" mask="url(#mask-6)"></path>
                        <path d="M139.280884,0.186731626 C139.280884,0.186731626 119.669169,17.8520368 115.767343,21.7534709 C111.15015,26.3710555 116.0614,32.6312048 119.883349,31.8958683 C123.705297,31.1609233 150.568574,22.4426042 150.568574,22.4426042 L139.280884,0.186731626 Z" id="Fill-68" fill="#4A5FFF" mask="url(#mask-6)"></path>
                        <path d="M148.939126,9.27867062 C152.05628,15.4244865 152.785743,21.3185338 150.56877,22.4426825 C148.351797,23.5672227 144.027485,19.4966377 140.910332,13.3508218 C137.793179,7.20500593 137.063715,1.3109586 139.280688,0.186809937 C141.498053,-0.937730282 145.821973,3.13285472 148.939126,9.27867062" id="Fill-69" fill="#213070" mask="url(#mask-6)"></path>
                        <path d="M140.887896,9.17275553 C140.307223,9.17275553 139.753959,9.29139609 139.251204,9.50479248 C139.692876,10.7467986 140.246924,12.042839 140.910606,13.3506261 C141.573114,14.6572384 142.290439,15.8687034 143.030082,16.9572207 C144.254469,16.2261913 145.077122,14.8917787 145.077122,13.3623726 C145.077122,11.048686 143.201583,9.17275553 140.887896,9.17275553" id="Fill-70" fill="#FFFFFF" mask="url(#mask-6)"></path>
                        <path d="M125.105139,30.4374508 C118.505513,27.4287576 118.289767,20.6255242 118.311302,19.3185203 C118.178566,19.4430341 118.048179,19.5651987 117.921707,19.6842308 C117.963603,21.6224181 118.595961,27.6640809 124.584765,30.6179568 C124.750783,30.5690127 124.919542,30.5188939 125.091043,30.467992 L125.105139,30.4374508 Z" id="Fill-71" fill="#7D96FF" mask="url(#mask-6)"></path>
                        <path d="M149.727871,42.7885596 C149.275235,41.4639357 147.821008,40.7505262 146.496384,41.203553 C147.821008,40.7505262 148.534417,39.2966899 148.08139,37.9720661 C147.628755,36.6474423 146.174919,35.9340327 144.849903,36.386668 C146.174919,35.9340327 146.887937,34.4798049 146.435301,33.1551811 C145.982666,31.8309488 144.528438,31.1175393 143.203815,31.5701745 C144.528438,31.1175393 145.241848,29.6633114 144.788821,28.3386876 C144.336186,27.0140638 142.88235,26.3006542 141.557726,26.7536811 L134.551276,29.1484192 C133.226653,29.6010545 132.513243,31.0552823 132.965878,32.3799061 C133.418905,33.7041384 134.873133,34.4175479 136.197365,33.9649127 C134.873133,34.4175479 134.159723,35.8717758 134.612359,37.1963996 C135.064994,38.5210234 136.519222,39.2340414 137.843846,38.7814061 C136.519222,39.2340414 135.805812,40.6882693 136.258447,42.0128931 C136.711474,43.3375169 138.165702,44.0509264 139.489934,43.5978996 C138.165702,44.0509264 137.452293,45.5047627 137.904928,46.8293865" id="Fill-72" fill="#FFD1BE" mask="url(#mask-6)"></path>
                        <path d="M137.90481,46.8295431 C138.357446,48.1541669 139.811673,48.8675765 141.136297,48.4145497 L148.142747,46.0202031 C149.46737,45.5671763 150.18078,44.11334 149.727753,42.7887162" id="Fill-73" fill="#FFD1BE" mask="url(#mask-6)"></path>
                        <path d="M148.205904,46.2050944 L141.199455,48.5998326 C139.769503,49.0884907 138.208381,48.3230046 137.719723,46.8926615 L138.090132,46.7661899 C138.509094,47.9917508 139.847031,48.6483851 141.072983,48.2294234 L148.079433,45.8346853 C149.304993,45.4157236 149.961628,44.077787 149.542666,42.8518345 L149.913075,42.7249713 C150.401733,44.1553145 149.636247,45.7164363 148.205904,46.2050944" id="Fill-74" fill="#35211F" mask="url(#mask-6)"></path>
                        <polygon id="Fill-75" fill="#35211F" mask="url(#mask-6)" points="143.580293 31.6621895 136.264908 34.1626469 136.129822 33.7667869 143.445207 31.2667209"></polygon>
                        <polygon id="Fill-76" fill="#35211F" mask="url(#mask-6)" points="145.226617 36.4788004 137.911232 38.9792579 137.776146 38.5833978 145.091531 36.0833319"></polygon>
                        <polygon id="Fill-77" fill="#35211F" mask="url(#mask-6)" points="146.872862 41.2954113 139.557477 43.7958688 139.422391 43.4004003 146.737776 40.8999428"></polygon>
                        <g mask="url(#mask-6)">
                            <g transform="translate(126.133866, 32.577894)">
                                <path d="M2.49497572,14.2393936 C6.46375694,12.5118618 5.43475565,6.11819284 5.43475565,6.11819284 C5.43475565,6.11819284 5.40264831,5.93768691 5.32433771,5.65341943 L7.76214669,4.76107014 C9.03038686,4.29707984 9.68858746,2.87926642 9.2242056,1.61102625 C8.75982374,0.342786079 7.34240187,-0.315414516 6.0741617,0.148967343 C6.0741617,0.148967343 0.23610646,2.36319956 0,2.58834254" id="Fill-78" stroke="none" fill="#FFD1BE" fill-rule="evenodd"></path>
                                <path d="M2.49497572,14.2393936 C6.46375694,12.5118618 5.43475565,6.11819284 5.43475565,6.11819284 C5.43475565,6.11819284 5.40264831,5.93768691 5.32433771,5.65341943 L7.76214669,4.76107014 C9.03038686,4.29707984 9.68858746,2.87926642 9.2242056,1.61102625 C8.75982374,0.342786079 7.34240187,-0.315414516 6.0741617,0.148967343 C6.0741617,0.148967343 0.23610646,2.36319956 0,2.58834254" id="Stroke-79" stroke="#35211F" stroke-width="1" fill="none"></path>
                            </g>
                        </g>
                        <path d="M126.134022,35.1662756 C122.510591,36.7614625 122.728686,40.5422983 123.153521,42.6649071 C123.59441,44.8697421 128.308316,56.2099001 128.308316,56.2099001 L137.485144,53.1381668 L128.628998,46.8173267" id="Fill-80" fill="#FFD1BE" mask="url(#mask-6)"></path>
                        <polygon id="Fill-81" fill="#35211F" mask="url(#mask-6)" points="133.353672 71.5501244 127.652661 56.4338292 123.455604 44.1543356 123.826405 44.0274724 133.724081 71.4236528"></polygon>
                        <polygon id="Fill-82" fill="#35211F" mask="url(#mask-6)" points="128.370456 56.3954179 128.246725 56.0242256 152.721137 47.8658273 152.844867 48.2374111"></polygon>
                        <polygon id="Fill-83" fill="#35211F" mask="url(#mask-6)" points="47.8514182 56.0830369 45.5259849 51.8201994 45.8697684 51.6326455 48.1952017 55.895483"></polygon>
                        <polygon id="Fill-84" fill="#35211F" mask="url(#mask-6)" points="68.1615464 78.5647181 114.638105 78.5647181 114.638105 78.1731651 68.1615464 78.1731651"></polygon>
                        <path d="M121.494472,60.3990865 L121.102919,60.3990865 C121.102919,47.9304727 117.168986,45.7103672 117.129047,45.6896149 L117.309162,45.3415243 C117.479879,45.4296237 121.494472,47.6379826 121.494472,60.3990865" id="Fill-85" fill="#35211F" mask="url(#mask-6)"></path>
                    </g>
                </g>
            </g>
        </g>
    </g>
</svg>