<?xml version="1.0" encoding="UTF-8"?>
<svg width="32px" height="32px" viewBox="0 0 32 32" version="1.1" xmlns="http://www.w3.org/2000/svg" xmlns:xlink="http://www.w3.org/1999/xlink">
    <title>ic_edit</title>
    <g id="页面-1" stroke="none" stroke-width="1" fill="none" fill-rule="evenodd">
        <g id="4-3我的-已审核" transform="translate(-487.000000, -336.000000)" fill="#FFFFFF">
            <g id="ic_edit" transform="translate(487.000000, 336.000000)">
                <polygon id="Fill-1" opacity="0" points="0 32 32 32 32 0 0 0"></polygon>
                <g id="编组" transform="translate(0.888978, 0.888578)">
                    <path d="M29.9045333,2.83177778 L12.5880889,20.1482222 C12.1640889,20.5722222 11.4716444,20.5722222 11.0485333,20.1482222 L10.0734222,19.174 C9.65031111,18.7508889 9.65031111,18.0575556 10.0734222,17.6344444 L27.3907556,0.318 C27.8138667,-0.106 28.5063111,-0.106 28.9303111,0.318 L29.9045333,1.29311111 C30.3285333,1.71533333 30.3285333,2.40866667 29.9045333,2.83177778" id="Fill-2"></path>
                    <path d="M26.6666667,9.778 L26.6666667,24.8891111 C26.6666667,25.8704444 25.8711111,26.6668889 24.8888889,26.6668889 L5.33333333,26.6668889 C4.352,26.6668889 3.55555556,25.8704444 3.55555556,24.8891111 L3.55555556,5.33355556 C3.55555556,4.35222222 4.352,3.55577778 5.33333333,3.55577778 L20.4444444,3.55577778 C20.9351111,3.55577778 21.3333333,3.15844444 21.3333333,2.66688889 L21.3333333,0.889111111 C21.3333333,0.398444444 20.9351111,0.000222222222 20.4444444,0.000222222222 L3.55555556,0.000222222222 C1.6,0.000222222222 0,1.60022222 0,3.55577778 L0,26.6668889 C0,28.6224444 1.6,30.2224444 3.55555556,30.2224444 L26.6666667,30.2224444 C28.6222222,30.2224444 30.2222222,28.6224444 30.2222222,26.6668889 L30.2222222,9.778 C30.2222222,9.28733333 29.824,8.88911111 29.3333333,8.88911111 L27.5555556,8.88911111 C27.0648889,8.88911111 26.6666667,9.28733333 26.6666667,9.778" id="Fill-4"></path>
                </g>
            </g>
        </g>
    </g>
</svg>