<?xml version="1.0" encoding="UTF-8"?>
<svg width="44px" height="44px" viewBox="0 0 44 44" version="1.1" xmlns="http://www.w3.org/2000/svg" xmlns:xlink="http://www.w3.org/1999/xlink">
    <title>ic_filter</title>
    <defs>
        <polygon id="path-1" points="0 0 43.9997 0 43.9997 15.9998 0 15.9998"></polygon>
        <polygon id="path-3" points="0 0 43.9993 0 43.9993 16 0 16"></polygon>
    </defs>
    <g id="页面-1" stroke="none" stroke-width="1" fill="none" fill-rule="evenodd">
        <g id="2-13搜索结果-名片" transform="translate(-682.000000, -111.000000)">
            <g id="ic_filter" transform="translate(682.000000, 111.000000)">
                <rect id="矩形" fill="#D8D8D8" opacity="0" x="0" y="0" width="44" height="44"></rect>
                <g id="编组" transform="translate(0.000000, 3.000000)">
                    <g>
                        <mask id="mask-2" fill="white">
                            <use xlink:href="#path-1"></use>
                        </mask>
                        <g id="Clip-2"></g>
                        <path d="M32,11.9998 C30.526,11.9998 29.25,11.1898 28.556,9.9998 C28.212,9.4088 28,8.7318 28,7.9998 C28,7.2688 28.212,6.5908 28.556,5.9998 C29.25,4.8108 30.526,3.9998 32,3.9998 C33.474,3.9998 34.749,4.8108 35.443,5.9998 C35.788,6.5908 36,7.2688 36,7.9998 C36,8.7318 35.788,9.4088 35.443,9.9998 C34.749,11.1898 33.474,11.9998 32,11.9998 M43,5.9998 L39.737,5.9998 C38.849,2.5518 35.726,-0.0002 32,-0.0002 C28.273,-0.0002 25.151,2.5518 24.262,5.9998 L1,5.9998 C0.45,5.9998 0,6.4498 0,6.9998 L0,8.9998 C0,9.5498 0.45,9.9998 1,9.9998 L24.262,9.9998 C25.151,13.4488 28.273,15.9998 32,15.9998 C35.726,15.9998 38.849,13.4488 39.737,9.9998 L43,9.9998 C43.55,9.9998 44,9.5498 44,8.9998 L44,6.9998 C44,6.4498 43.55,5.9998 43,5.9998" id="Fill-1" fill="#FFFFFF" mask="url(#mask-2)"></path>
                    </g>
                    <g transform="translate(0.000400, 21.999800)">
                        <mask id="mask-4" fill="white">
                            <use xlink:href="#path-3"></use>
                        </mask>
                        <g id="Clip-4"></g>
                        <path d="M15.443,10 C14.749,11.19 13.473,12 12,12 C10.526,12 9.25,11.19 8.555,10 C8.212,9.409 8,8.732 8,8 C8,7.269 8.212,6.591 8.555,6 C9.25,4.811 10.526,4 12,4 C13.473,4 14.749,4.811 15.443,6 C15.788,6.591 16,7.269 16,8 C16,8.732 15.788,9.409 15.443,10 M43,6 L19.737,6 C18.848,2.552 15.725,0 12,0 C8.273,0 5.151,2.552 4.261,6 L1,6 C0.45,6 0,6.45 0,7 L0,9 C0,9.55 0.45,10 1,10 L4.261,10 C5.151,13.449 8.273,16 12,16 C15.725,16 18.848,13.449 19.737,10 L43,10 C43.549,10 44,9.55 44,9 L44,7 C44,6.45 43.549,6 43,6" id="Fill-3" fill="#FFFFFF" mask="url(#mask-4)"></path>
                    </g>
                </g>
            </g>
        </g>
    </g>
</svg>