<?xml version="1.0" encoding="UTF-8"?>
<svg width="26px" height="26px" viewBox="0 0 26 26" version="1.1" xmlns="http://www.w3.org/2000/svg" xmlns:xlink="http://www.w3.org/1999/xlink">
    <title>ic_go</title>
    <defs>
        <polygon id="path-1" points="0 0 12.0439091 0 12.0439091 12.0437614 0 12.0437614"></polygon>
        <polygon id="path-3" points="0 0 12.0439091 0 12.0439091 12.0442045 0 12.0442045"></polygon>
    </defs>
    <g id="页面-1" stroke="none" stroke-width="1" fill="none" fill-rule="evenodd">
        <g id="3-5通告小助手" transform="translate(-676.000000, -929.000000)">
            <g id="ic_go" transform="translate(689.000000, 942.000000) scale(-1, 1) translate(-689.000000, -942.000000) translate(676.000000, 929.000000)">
                <rect id="底板" fill="#FFFFFF" opacity="0" x="0" y="0" width="26" height="26"></rect>
                <g id="编组" transform="translate(7.090909, 2.363636)">
                    <g transform="translate(0.000000, 9.192270)">
                        <mask id="mask-2" fill="white">
                            <use xlink:href="#path-1"></use>
                        </mask>
                        <g id="Clip-2"></g>
                        <path d="M1.84381364,0.172397727 L11.8721318,10.2007159 C12.1014045,10.4299886 12.1014045,10.8063977 11.8721318,11.0362614 L11.0359955,11.8718068 C10.8061318,12.1010795 10.4303136,12.1010795 10.20045,11.8718068 L0.172131818,1.84348864 C-0.0577318182,1.613625 -0.0577318182,1.23780682 0.172131818,1.00794318 L1.00826818,0.172397727 C1.23813182,-0.0574659091 1.61395,-0.0574659091 1.84381364,0.172397727" id="Fill-1" fill="#6A6E7E" mask="url(#mask-2)"></path>
                    </g>
                    <g>
                        <mask id="mask-4" fill="white">
                            <use xlink:href="#path-3"></use>
                        </mask>
                        <g id="Clip-4"></g>
                        <path d="M0.172072727,10.2002727 L10.2003909,0.171954545 C10.4302545,-0.0573181818 10.8060727,-0.0573181818 11.0359364,0.171954545 L11.8720727,1.0075 C12.1013455,1.23795455 12.1013455,1.61377273 11.8720727,1.84304545 L1.84375455,11.8713636 C1.61389091,12.1018182 1.23807273,12.1018182 1.00820909,11.8713636 L0.172072727,11.0358182 C-0.0577909091,10.8059545 -0.0577909091,10.4301364 0.172072727,10.2002727" id="Fill-3" fill="#6A6E7E" mask="url(#mask-4)"></path>
                    </g>
                </g>
            </g>
        </g>
    </g>
</svg>