<?xml version="1.0" encoding="UTF-8"?>
<svg width="32px" height="32px" viewBox="0 0 32 32" version="1.1" xmlns="http://www.w3.org/2000/svg" xmlns:xlink="http://www.w3.org/1999/xlink">
    <title>ic_girl</title>
    <defs>
        <polygon id="path-1" points="0 0 28.8 0 28.8 28.8 0 28.8"></polygon>
    </defs>
    <g id="页面-1" stroke="none" stroke-width="1" fill="none" fill-rule="evenodd">
        <g id="2-10达人主页-名片详情-已收藏" transform="translate(-463.000000, -505.000000)">
            <g id="ic_girl" transform="translate(463.000000, 505.000000)">
                <rect id="矩形" fill="#D8D8D8" opacity="0" x="0" y="0" width="32" height="32"></rect>
                <g id="编组" transform="translate(2.000000, 2.000000)">
                    <mask id="mask-2" fill="white">
                        <use xlink:href="#path-1"></use>
                    </mask>
                    <g id="Clip-2"></g>
                    <path d="M22.8532541,19.3773313 C21.0594049,21.1711804 18.6742736,22.1593177 16.1379214,22.1593177 C13.6015691,22.1593177 11.2164378,21.1711804 9.42258869,19.3773313 C5.7196744,15.674417 5.7196744,9.64958022 9.42258869,5.94666593 C11.2164378,4.15281678 13.6015691,3.16547965 16.1379214,3.16547965 C18.6742736,3.16547965 21.0594049,4.15281678 22.8532541,5.94666593 C24.6471032,7.74051507 25.6352405,10.1256463 25.6352405,12.6619986 C25.6352405,15.1983509 24.6471032,17.5834822 22.8532541,19.3773313 M25.091965,3.7087551 C22.6188215,1.23561161 19.3783714,-0.000560077789 16.1379214,-0.000560077789 C12.8974713,-0.000560077789 9.65702125,1.23561161 7.18467787,3.7087551 C2.61924378,8.27338908 2.27839644,15.4519861 6.14213307,20.419076 L4.70353327,21.8576758 L2.47122323,19.6253657 C2.31600167,19.4693441 2.11117322,19.3917333 1.90554466,19.3917333 C1.70071621,19.3917333 1.49588776,19.4693441 1.33986609,19.6253657 L0.233312405,20.7319194 C-0.0779308237,21.0431627 -0.0779308237,21.5528334 0.233312405,21.8632766 L2.46642256,24.0955866 L0.233312405,26.3286968 C-0.0779308237,26.6391399 -0.0779308237,27.1488107 0.233312405,27.4600539 L1.33986609,28.5666076 C1.49588776,28.7226293 1.70071621,28.80024 1.90554466,28.80024 C2.11117322,28.80024 2.31600167,28.7226293 2.47122323,28.5666076 L4.70353327,26.3342975 L6.93584331,28.5666076 C7.09186498,28.7226293 7.29749354,28.80024 7.50152188,28.80024 C7.70715044,28.80024 7.91197889,28.7226293 8.06800056,28.5666076 L9.17455424,27.4600539 C9.48579747,27.1488107 9.48579747,26.6391399 9.17455424,26.3286968 L6.9422442,24.0955866 L8.38084401,22.6577869 C10.6579603,24.4284328 13.3959405,25.3245573 16.1379214,25.3245573 C19.3783714,25.3245573 22.6188215,24.0883856 25.091965,21.6152421 C30.0374519,16.6705554 30.0374519,8.65344187 25.091965,3.7087551" id="Fill-1" fill="#FF193C" mask="url(#mask-2)"></path>
                </g>
            </g>
        </g>
    </g>
</svg>