<?xml version="1.0" encoding="UTF-8"?>
<svg width="24px" height="24px" viewBox="0 0 24 24" version="1.1" xmlns="http://www.w3.org/2000/svg" xmlns:xlink="http://www.w3.org/1999/xlink">
    <title>ic_hint</title>
    <defs>
        <polygon id="path-1" points="0 0 23.9999 0 23.9999 23.9999 0 23.9999"></polygon>
    </defs>
    <g id="页面-1" stroke="none" stroke-width="1" fill="none" fill-rule="evenodd">
        <g id="4-1我的-未认证" transform="translate(-278.000000, -745.000000)">
            <g id="ic_hint" transform="translate(278.000000, 745.000000)">
                <g id="编组">
                    <mask id="mask-2" fill="white">
                        <use xlink:href="#path-1"></use>
                    </mask>
                    <g id="Clip-2"></g>
                    <path d="M12,-0.0001 C5.373,-0.0001 0,5.3729 0,11.9999 C0,18.6279 5.373,23.9999 12,23.9999 C18.627,23.9999 24,18.6279 24,11.9999 C24,5.3729 18.627,-0.0001 12,-0.0001 M12,2.9999 C16.962,2.9999 21,7.0369 21,11.9999 C21,16.9629 16.962,20.9999 12,20.9999 C7.037,20.9999 3,16.9629 3,11.9999 C3,7.0369 7.037,2.9999 12,2.9999" id="Fill-1" fill="#FFFFFF" mask="url(#mask-2)"></path>
                </g>
                <path d="M12,12.9999 L12,12.9999 C11.175,12.9999 10.5,12.3249 10.5,11.4999 L10.5,8.4999 C10.5,7.6749 11.175,6.9999 12,6.9999 C12.825,6.9999 13.5,7.6749 13.5,8.4999 L13.5,11.4999 C13.5,12.3249 12.825,12.9999 12,12.9999" id="Fill-3" fill="#FFFFFF"></path>
                <path d="M13.5,15.4999 C13.5,16.3279 12.828,16.9999 12,16.9999 C11.171,16.9999 10.5,16.3279 10.5,15.4999 C10.5,14.6719 11.171,13.9999 12,13.9999 C12.828,13.9999 13.5,14.6719 13.5,15.4999" id="Fill-5" fill="#FFFFFF"></path>
            </g>
        </g>
    </g>
</svg>