<?xml version="1.0" encoding="UTF-8"?>
<svg width="48px" height="48px" viewBox="0 0 48 48" version="1.1" xmlns="http://www.w3.org/2000/svg" xmlns:xlink="http://www.w3.org/1999/xlink">
    <title>ic_home_page</title>
    <defs>
        <polygon id="path-1" points="0 0 45.9995 0 45.9995 45.9999 0 45.9999"></polygon>
    </defs>
    <g id="页面-1" stroke="none" stroke-width="1" fill="none" fill-rule="evenodd">
        <g id="2-10达人主页-名片详情-已收藏" transform="translate(-44.000000, -2452.000000)">
            <g id="ic_home_page" transform="translate(44.000000, 2452.000000)">
                <rect id="矩形" fill="#D8D8D8" opacity="0" x="0" y="0" width="48" height="48"></rect>
                <g id="编组" transform="translate(1.000000, 1.000000)">
                    <g>
                        <mask id="mask-2" fill="white">
                            <use xlink:href="#path-1"></use>
                        </mask>
                        <g id="Clip-2"></g>
                        <path d="M41.9995,40 C41.9995,41.104 41.1035,42 39.9995,42 L5.9995,42 C4.8955,42 3.9995,41.104 3.9995,40 L3.9995,6 C3.9995,4.896 4.8955,4 5.9995,4 L39.9995,4 C41.1035,4 41.9995,4.896 41.9995,6 L41.9995,40 Z M41.9995,0 L3.9995,0 C1.8005,0 -0.0005,1.8 -0.0005,4 L-0.0005,42 C-0.0005,44.2 1.8005,46 3.9995,46 L41.9995,46 C44.1995,46 45.9995,44.2 45.9995,42 L45.9995,4 C45.9995,1.8 44.1995,0 41.9995,0 L41.9995,0 Z" id="Fill-1" fill="#FFFFFF" mask="url(#mask-2)"></path>
                    </g>
                    <path d="M30.9995,36 L14.9995,36 C13.8995,36 12.9995,35.1 12.9995,34 C12.9995,32.9 13.8995,32 14.9995,32 L30.9995,32 C32.1005,32 32.9995,32.9 32.9995,34 C32.9995,35.1 32.1005,36 30.9995,36" id="Fill-3" fill="#FFFFFF"></path>
                    <path d="M22.9995,24 C20.2425,24 17.9995,21.757 17.9995,19 C17.9995,16.243 20.2425,14 22.9995,14 C25.7565,14 27.9995,16.243 27.9995,19 C27.9995,21.757 25.7565,24 22.9995,24 M22.9995,10 C18.0295,10 13.9995,14.029 13.9995,19 C13.9995,23.971 18.0295,28 22.9995,28 C27.9705,28 31.9995,23.971 31.9995,19 C31.9995,14.029 27.9705,10 22.9995,10" id="Fill-5" fill="#FFFFFF"></path>
                </g>
            </g>
        </g>
    </g>
</svg>