<?xml version="1.0" encoding="UTF-8"?>
<svg width="120px" height="120px" viewBox="0 0 120 120" version="1.1" xmlns="http://www.w3.org/2000/svg" xmlns:xlink="http://www.w3.org/1999/xlink">
    <title>ic_housekeeper</title>
    <defs>
        <linearGradient x1="100%" y1="45.9381048%" x2="0%" y2="45.9381048%" id="linearGradient-1">
            <stop stop-color="#BB1CFF" offset="0%"></stop>
            <stop stop-color="#8C1CFF" offset="100%"></stop>
        </linearGradient>
        <polygon id="path-2" points="5.55111512e-16 7.10542736e-15 26.9777694 7.10542736e-15 26.9777694 34.5978 5.55111512e-16 34.5978"></polygon>
    </defs>
    <g id="页面-1" stroke="none" stroke-width="1" fill="none" fill-rule="evenodd">
        <g id="6-5消息-缺省页" transform="translate(-565.000000, -320.000000)">
            <rect fill="#10121A" x="0" y="0" width="750" height="1624"></rect>
            <g id="ic_housekeeper" transform="translate(565.000000, 320.000000)">
                <circle id="椭圆形" fill="url(#linearGradient-1)" cx="60" cy="60" r="60"></circle>
                <g id="编组" transform="translate(47.000000, 35.000000)">
                    <g transform="translate(0.000000, 14.830102)">
                        <mask id="mask-3" fill="white">
                            <use xlink:href="#path-2"></use>
                        </mask>
                        <g id="Clip-2"></g>
                        <path d="M19.9686261,7.10542736e-15 C20.8376261,7.10542736e-15 21.5916261,0.602 21.7856261,1.448 L26.9176261,23.906 C27.1246261,24.807 26.7876261,25.746 26.0556261,26.311 L14.8916261,34.107 C14.0286261,34.771 12.8236261,34.76 11.9726261,34.083 L0.893626053,26.112 C0.174626053,25.54 -0.148373947,24.603 0.0646260532,23.709 L5.35262605,1.433 C5.55262605,0.593 6.30362605,7.10542736e-15 7.16762605,7.10542736e-15 L19.9686261,7.10542736e-15 Z" id="Fill-1" fill="#FFFFFF" mask="url(#mask-3)"></path>
                    </g>
                    <path d="M22.7176261,0 C23.3406261,0 23.9236261,0.307002389 24.2776261,0.819002389 C24.6316261,1.33200239 24.7106261,1.98600239 24.4896261,2.56900239 L21.8666261,9.46100239 C21.5906261,10.1860024 20.8976261,10.6640024 20.1226261,10.663004 L6.99462605,10.663004 C6.23462605,10.6640024 5.54962605,10.2020024 5.26562605,9.49700239 L2.47862605,2.60700239 C2.24162605,2.02200239 2.31162605,1.35800239 2.66462605,0.835002389 C3.01862605,0.312002389 3.60862605,-0.000997611045 4.23862605,0 L22.7196261,0 L22.7176261,0 Z" id="Fill-3" fill="#FFFFFF"></path>
                </g>
            </g>
        </g>
    </g>
</svg>