<?xml version="1.0" encoding="UTF-8"?>
<svg width="40px" height="40px" viewBox="0 0 40 40" version="1.1" xmlns="http://www.w3.org/2000/svg" xmlns:xlink="http://www.w3.org/1999/xlink">
    <title>ic_information</title>
    <g id="页面-1" stroke="none" stroke-width="1" fill="none" fill-rule="evenodd">
        <g id="5-1设置" transform="translate(-24.000000, -240.000000)">
            <g id="ic_information" transform="translate(24.000000, 240.000000)">
                <polygon id="Fill-1" fill="#000000" opacity="0" points="0 40 40 40 40 0 0 0"></polygon>
                <g id="编组" transform="translate(2.999900, 4.414700)" fill="#FFFFFF">
                    <path d="M31,23 C31,24.104 30.105,25 29,25 L20.586,25 C20.056,25 19.547,25.211 19.172,25.586 L17.708,27.051 C17.317,27.441 16.684,27.441 16.293,27.051 L14.829,25.586 C14.454,25.211 13.945,25 13.415,25 L5,25 C3.895,25 3,24.104 3,23 L3,5 C3,3.896 3.895,3 5,3 L29,3 C30.105,3 31,3.896 31,5 L31,23 Z M30,0 L4,0 C1.791,0 0,1.79 0,4 L0,24 C0,26.209 1.791,28 4,28 L13,28 L15.586,30.585 C16.367,31.366 17.633,31.366 18.415,30.585 L21,28 L30,28 C32.209,28 34,26.209 34,24 L34,4 C34,1.79 32.209,0 30,0 L30,0 Z" id="Fill-2"></path>
                    <path d="M22,16.0176 L12,16.0176 C11.45,16.0176 11,15.5676 11,15.0176 L11,14.0176 C11,13.4676 11.45,13.0176 12,13.0176 L22,13.0176 C22.55,13.0176 23,13.4676 23,14.0176 L23,15.0176 C23,15.5676 22.55,16.0176 22,16.0176" id="Fill-4"></path>
                </g>
            </g>
        </g>
    </g>
</svg>