<?xml version="1.0" encoding="UTF-8"?>
<svg width="102px" height="40px" viewBox="0 0 102 40" version="1.1" xmlns="http://www.w3.org/2000/svg" xmlns:xlink="http://www.w3.org/1999/xlink">
    <title>ic_logo_wefree</title>
    <defs>
        <linearGradient x1="18.1186626%" y1="50%" x2="125.424383%" y2="50%" id="linearGradient-1">
            <stop stop-color="#FFFFFF" offset="0%"></stop>
            <stop stop-color="#FFFFFF" stop-opacity="0.397696542" offset="100%"></stop>
        </linearGradient>
    </defs>
    <g id="页面-1" stroke="none" stroke-width="1" fill="none" fill-rule="evenodd">
        <g id="2-8达人主页-海报已生成-1个平台" transform="translate(-48.000000, -475.000000)">
            <g id="ic_logo_wefree" transform="translate(48.000000, 475.000000)">
                <path d="M15.9293432,0 L16.691,14.229 L22.5341928,0 L27.1964396,0 L18.2604666,21.7609003 L13.2096992,21.7609003 L12.377,6.217 L5.43928793,21.7609003 L0.388520566,21.7609003 L0,0 L4.27372623,0 L4.527,14.227 L10.8785759,0 L15.9293432,0 Z M32.622993,22.1052632 C35.424586,22.1052632 37.5724739,21.1089696 39.5958465,18.4314307 L36.9187688,16.3143069 C35.4557148,18.1512231 34.3662064,18.5871016 32.9342811,18.5871016 C30.7863932,18.5871016 30.0393018,17.5285397 30.0393018,15.971831 L30.0394494,15.9075332 C30.0404086,15.7630245 30.0476028,15.5795404 30.1015594,15.255745 C37.4168298,15.0378058 40.4363244,12.920682 40.4363244,9.55819125 C40.4363244,6.00889548 37.0432841,5.01260193 34.5841081,5.01260193 C29.1676951,5.01260193 25.7123972,9.83839881 25.7123972,15.06894 C25.7123972,19.3965901 27.9848003,22.1052632 32.622993,22.1052632 Z M30.5684916,12.4848036 L30.6930068,11.7687176 C31.0665525,9.65159377 32.4984778,8.34395849 34.3350776,8.34395849 C35.1132979,8.34395849 36.2028062,8.59303188 36.2028062,9.99406968 C36.2028062,11.301705 35.2378131,12.204596 30.5684916,12.4848036 Z M46.2885407,21.7316531 L48.0317541,12.9829503 L56.0318583,12.9829503 L56.8412073,8.99777613 L48.8411031,8.99777613 L49.8372251,3.9851742 L58.9268376,3.9851742 L59.7361867,0 L46.1328966,0 L41.7748632,21.7316531 L46.2885407,21.7316531 Z M62.9113253,21.7316531 L64.6234099,13.1386212 C65.1525997,10.4922165 66.5222673,9.6204596 69.2927314,9.6204596 L70.3822398,9.6204596 L71.2538464,5.38621201 L70.4756262,5.38621201 C68.7946704,5.38621201 67.2952994,5.7260934 65.9775131,6.40585619 L66.1798504,5.38621201 L61.821817,5.38621201 L58.5532919,21.7316531 L62.9113253,21.7316531 Z M78.4134728,22.1052632 C81.2150657,22.1052632 83.3629536,21.1089696 85.3863262,18.4314307 L82.7092486,16.3143069 C81.2461945,18.1512231 80.1566861,18.5871016 78.7247609,18.5871016 C76.576873,18.5871016 75.8297815,17.5285397 75.8297815,15.971831 L75.8299291,15.9075332 C75.8308883,15.7630245 75.8380825,15.5795404 75.8920392,15.255745 C83.2073095,15.0378058 86.2268041,12.920682 86.2268041,9.55819125 C86.2268041,6.00889548 82.8337638,5.01260193 80.3745878,5.01260193 C74.9581748,5.01260193 71.5028769,9.83839881 71.5028769,15.06894 C71.5028769,19.3965901 73.7752801,22.1052632 78.4134728,22.1052632 Z M76.3589713,12.4848036 L76.4834865,11.7687176 C76.8570323,9.65159377 78.2889575,8.34395849 80.1255573,8.34395849 C80.9037776,8.34395849 81.9932859,8.59303188 81.9932859,9.99406968 C81.9932859,11.301705 81.0282928,12.204596 76.3589713,12.4848036 Z" id="WeFree" fill="#FFFFFF" fill-rule="nonzero"></path>
                <path d="M99.1733758,20.5224952 C97.7035637,21.6489652 96.097621,22.1052632 94.1878773,22.1052632 C92.0591898,22.1052632 90.4288925,21.5429167 89.2879551,20.5220683 Z M91.9037431,17.4619429 C92.2944077,18.195442 93.0991815,18.6386732 94.4991173,18.6386732 C95.5926601,18.6386732 96.4864683,18.38811 97.4995275,17.4632102 L99.8453505,17.4611579 L101.159652,18.4852842 C101.024508,18.661527 100.888808,18.8303772 100.752395,18.992036 L88.1042115,18.9923708 C87.8600719,18.5273914 87.6703162,18.0159662 87.5346058,17.461988 Z M98.030692,14.4011409 C96.4422867,14.9487709 94.3418085,15.2776122 91.6668338,15.3561499 C91.6128855,15.6751989 91.6056924,15.8559934 91.6047333,15.9983837 L91.6053505,15.9311579 L87.3035609,15.9318335 C87.2925092,15.7693539 87.2850941,15.6042231 87.2813098,15.4365096 L87.2783505,15.1720832 C87.2783505,14.9135999 87.2870405,14.6561197 87.3042319,14.4001923 Z M92.3949911,11.3400478 C92.3399613,11.5257511 92.2941661,11.719294 92.2581897,11.9202378 L92.2581897,11.9202378 L92.1336937,12.6258269 C95.2122853,12.4437595 96.6803304,11.9948927 97.3231993,11.3408033 L101.724936,11.3412101 C101.513617,11.9043385 101.177739,12.416007 100.707677,12.8713567 L87.5114023,12.8704913 C87.6190017,12.3466797 87.7630037,11.8348131 87.9416194,11.3401077 Z M101.767771,8.28042604 C101.91708,8.71007721 102,9.19535301 102,9.74211485 C102,9.7651789 101.999854,9.78818349 101.999561,9.81112839 L97.7391093,9.80973821 C97.5639391,8.74689105 96.6042328,8.54568114 95.899697,8.54568114 C94.8075629,8.54568114 93.8585473,9.00143529 93.1901496,9.80968411 L88.6354211,9.81068203 C88.938992,9.26420434 89.2903942,8.75104051 89.6864617,8.28042248 Z M96.148689,5.26315789 C97.6685024,5.26315789 99.5450561,5.63822562 100.756673,6.75060203 L91.351393,6.74948475 C92.6829348,5.81619586 94.3017856,5.26315789 96.148689,5.26315789 Z" id="形状结合" fill="url(#linearGradient-1)"></path>
                <path d="M9.35270922,39.7756501 L10.4262431,29.5926576 L5.90741457,29.5926576 L6.58149396,28.4459804 L5.08353977,28.4459804 L4.72153417,29.5926576 L2.12508023,29.5926576 L1.05154639,39.7756501 L9.35270922,39.7756501 Z M8.85339116,32.5216702 L3.08626751,32.5216702 L3.27351178,30.7891904 L9.04063543,30.7891904 L8.85339116,32.5216702 Z M8.56628327,35.4257549 L2.79915962,35.4257549 L2.96143799,33.6808113 L8.74104459,33.6808113 L8.56628327,35.4257549 Z M8.22924358,38.5915812 L2.44963697,38.5915812 L2.66184715,36.5973599 L8.4289708,36.5973599 L8.22924358,38.5915812 Z M20.717545,39.7756501 L21.7036982,30.4526656 L18.0461934,30.4526656 L18.2584036,28.4459804 L16.9352107,28.4459804 L16.7230005,30.4526656 L13.0654957,30.4526656 L12.0793425,39.7756501 L20.717545,39.7756501 Z M16.2985802,34.5158915 L13.9268194,34.5158915 L14.2264102,31.6242706 L16.598171,31.6242706 L16.2985802,34.5158915 Z M19.9685679,34.5158915 L17.6092901,34.5158915 L17.9088809,31.6242706 L20.2681588,31.6242706 L19.9685679,34.5158915 Z M15.8741598,38.5915812 L13.502399,38.5915812 L13.8144728,35.6002493 L16.1737506,35.6002493 L15.8741598,38.5915812 Z M19.5441476,38.5915812 L17.1848697,38.5915812 L17.5219094,35.6002493 L19.8562214,35.6002493 L19.5441476,38.5915812 Z M26.5524333,39.9501445 L26.8020923,37.7066455 L27.3388592,37.6069345 L27.4636888,36.4353294 L26.9144389,36.5475044 L27.6259671,29.8170075 L28.0628704,29.8170075 L28.1877,28.7077219 L24.04336,28.7077219 L23.9434964,29.8170075 L24.2805361,29.8170075 L23.5065931,37.2205541 L23.1321045,37.2953374 L23.007275,38.504334 L25.6911096,37.9434593 L25.4788994,39.9501445 L26.5524333,39.9501445 Z M32.4443865,34.8524163 L33.0934999,28.7077219 L28.5497055,28.7077219 L27.9005921,34.8524163 L32.4443865,34.8524163 Z M26.3901549,31.3874568 L25.1793086,31.3874568 L25.341587,29.8170075 L26.5524333,29.8170075 L26.3901549,31.3874568 Z M31.3583697,33.6932752 L29.211302,33.6932752 L29.6232394,29.879327 L31.7703071,29.879327 L31.3583697,33.6932752 Z M26.103047,34.0298 L24.9046837,34.0298 L25.079445,32.434423 L26.2653254,32.434423 L26.103047,34.0298 Z M24.5926099,36.9962042 L24.8048201,35.101694 L25.9907005,35.101694 L25.8159391,36.7593904 L24.5926099,36.9962042 Z M27.913075,39.9501445 L29.5358587,35.4880743 L28.1877,35.4880743 L26.9518877,39.9501445 L27.913075,39.9501445 Z M32.3195569,39.9501445 L32.0199661,35.4880743 L30.6842903,35.4880743 L31.3583697,39.9501445 L32.3195569,39.9501445 Z M43.5096314,39.7133307 L43.6469439,38.4420146 L40.9755923,38.4420146 L42.0241602,28.4584443 L40.7633821,28.4584443 L39.7023312,38.4420146 L38.1169963,38.4420146 L39.1780472,28.4584443 L37.9047862,28.4584443 L36.8437353,38.4420146 L34.1723836,38.4420146 L34.0350711,39.7133307 L43.5096314,39.7133307 Z M36.3319342,36.5101127 L36.3069683,30.2532434 L35.0337073,30.2532434 L35.4081958,36.5101127 L36.3319342,36.5101127 Z M42.8230691,36.5101127 L44.5082676,30.2532434 L43.2225235,30.2532434 L41.9118136,36.5101127 L42.8230691,36.5101127 Z M53.8009334,39.7756501 L54.425081,33.9051612 L49.6191446,33.9051612 L51.0422011,32.8332672 L55.4237171,32.8332672 L55.5360637,31.7115178 L52.5401553,31.7115178 L55.6234444,29.3932355 L53.6136891,29.3932355 L53.0145075,29.879327 L53.0644393,29.3932355 L51.2544113,29.3932355 L51.3417919,28.4335165 L50.1184627,28.4335165 L50.031082,29.3932355 L47.1724861,29.3932355 L47.0476566,30.5399128 L49.9062525,30.5399128 L49.781423,31.7115178 L46.161367,31.7115178 L46.0365375,32.8332672 L49.3195538,32.8332672 L45.6121171,35.8121353 L46.8104805,35.8121353 L46.3860601,39.7756501 L53.8009334,39.7756501 Z M51.0297182,31.4622401 L51.1295818,30.5399128 L52.1781497,30.5399128 L51.0297182,31.4622401 Z M52.9021609,36.3106906 L48.0213268,36.3106906 L48.1586393,35.0393745 L53.0394734,35.0393745 L52.9021609,36.3106906 Z M52.6525019,38.6414367 L47.7841507,38.6414367 L47.9089802,37.3451929 L52.7898143,37.3451929 L52.6525019,38.6414367 Z M65.9646781,39.464053 L66.0895077,38.1802731 L62.0075825,38.1802731 L62.8314573,30.303099 L66.4390303,30.303099 L66.5763428,29.0317829 L58.0380039,29.0317829 L57.9131743,30.303099 L61.5082644,30.303099 L60.6719066,38.1802731 L56.6274303,38.1802731 L56.4901178,39.464053 L65.9646781,39.464053 Z M69.8771918,40 L70.7509984,31.6118067 L69.8147771,31.6118067 L71.7121857,28.4210526 L70.3889928,28.4210526 L68.1545445,32.6213812 L69.2155954,32.6213812 L69.4652544,32.1976092 L68.6663455,40 L69.8771918,40 Z M73.3100035,40 L73.5971114,37.0709875 L77.0299231,37.0709875 L77.1547526,35.8619908 L73.7219409,35.8619908 L73.9341511,33.9176251 L77.2670992,33.9176251 L77.3919287,32.6961645 L74.0714636,32.6961645 L74.2711908,30.7517988 L77.9661445,30.7517988 L78.090974,29.5428021 L73.3474524,29.5428021 L73.8342875,28.4210526 L72.5235776,28.4210526 L70.9382427,33.070081 L71.7995664,33.070081 L73.1227593,30.0538213 L72.0991572,40 L73.3100035,40 Z M84.1630383,39.9626084 L84.5999416,35.9741658 L88.6569009,35.9741658 L88.7942134,34.7153136 L84.7122882,34.7153136 L85.2365722,29.9541102 L88.894077,29.9541102 L89.0064236,28.7201858 L80.368221,28.7201858 L80.2309086,29.9541102 L83.9008963,29.9541102 L83.3890953,34.7153136 L79.332136,34.7153136 L79.1948236,35.9741658 L83.2517829,35.9741658 L82.8523284,39.9626084 L84.1630383,39.9626084 Z M82.1158343,33.8677695 L81.916107,30.8141182 L80.4805676,30.8141182 L81.1296811,33.8677695 L82.1158343,33.8677695 Z M87.1090149,33.8677695 L88.4696566,30.8141182 L87.0341172,30.8141182 L86.1228617,33.8677695 L87.1090149,33.8677695 Z M99.8969072,33.070081 L98.7984075,29.6799048 L97.375351,29.6799048 L98.1742599,31.8236927 L92.993835,31.8236927 L95.0285561,28.4459804 L93.5555678,28.4459804 L90.9591139,33.070081 L99.8969072,33.070081 Z M98.7609586,39.7756501 L99.3351744,34.3413971 L91.2711876,34.3413971 L90.7094548,39.7756501 L98.7609586,39.7756501 Z M97.6125271,38.5417257 L92.1200284,38.5417257 L92.4321021,35.5753215 L97.9370838,35.5753215 L97.6125271,38.5417257 Z" id="自由职业者工作平台" fill="#FFFFFF" fill-rule="nonzero"></path>
            </g>
        </g>
    </g>
</svg>