<?xml version="1.0" encoding="UTF-8"?>
<svg width="225px" height="48px" viewBox="0 0 225 48" version="1.1" xmlns="http://www.w3.org/2000/svg" xmlns:xlink="http://www.w3.org/1999/xlink">
    <title>ic_logo</title>
    <defs>
        <linearGradient x1="18.1186626%" y1="50%" x2="125.424383%" y2="50%" id="linearGradient-1">
            <stop stop-color="#FFFFFF" offset="0%"></stop>
            <stop stop-color="#FFFFFF" stop-opacity="0.397696542" offset="100%"></stop>
        </linearGradient>
    </defs>
    <g id="页面-1" stroke="none" stroke-width="1" fill="none" fill-rule="evenodd">
        <g id="1-6新用户完善资料" transform="translate(-383.000000, -235.000000)">
            <g id="ic_logo" transform="translate(383.000000, 235.000000)">
                <path d="M34.907358,0 L36.577,30.895 L49.3811406,0 L59.5979284,0 L40.0157519,47.2522407 L28.9475652,47.2522407 L27.123,13.5 L11.9195857,47.2522407 L0.851398977,47.2522407 L0,0 L9.36538874,0 L9.921,30.897 L23.8391713,0 L34.907358,0 Z M71.4896078,48 C77.6289825,48 82.3358365,45.8366197 86.7698293,40.0225352 L80.9033157,35.4253521 C77.6971978,39.4140845 75.3096632,40.3605634 72.1717605,40.3605634 C67.4649066,40.3605634 65.82774,38.0619718 65.82774,34.6816901 L65.8280634,34.542072 C65.8301654,34.2282817 65.8459307,33.8298592 65.9641706,33.1267606 C81.9947601,32.6535211 88.6116417,28.056338 88.6116417,20.7549296 C88.6116417,13.0478873 81.1761768,10.884507 75.7871701,10.884507 C63.9177123,10.884507 56.3458168,21.3633803 56.3458168,32.7211268 C56.3458168,42.1183099 61.3255319,48 71.4896078,48 Z M66.9873997,27.1098592 L67.2602608,25.5549296 C68.0788441,20.9577465 71.2167467,18.1183099 75.2414479,18.1183099 C76.9468298,18.1183099 79.3343644,18.6591549 79.3343644,21.7014085 C79.3343644,24.5408451 77.2196909,26.5014085 66.9873997,27.1098592 Z M101.436113,47.1887324 L105.256169,28.1915493 L122.787494,28.1915493 L124.561091,19.5380282 L107.029766,19.5380282 L109.212655,8.65352113 L129.131515,8.65352113 L130.905112,0 L101.095037,0 L91.5448985,47.1887324 L101.436113,47.1887324 Z M137.86307,47.1887324 L141.61491,28.5295775 C142.77457,22.7830986 145.776042,20.8901408 151.847201,20.8901408 L154.234736,20.8901408 L156.144764,11.6957746 L154.439382,11.6957746 C150.755757,11.6957746 147.470055,12.4338028 144.582275,13.9098592 L145.025674,11.6957746 L135.475535,11.6957746 L128.312932,47.1887324 L137.86307,47.1887324 Z M171.834277,48 C177.973651,48 182.680505,45.8366197 187.114498,40.0225352 L181.247985,35.4253521 C178.041867,39.4140845 175.654332,40.3605634 172.516429,40.3605634 C167.809576,40.3605634 166.172409,38.0619718 166.172409,34.6816901 L166.172732,34.542072 C166.174834,34.2282817 166.1906,33.8298592 166.30884,33.1267606 C182.339429,32.6535211 188.956311,28.056338 188.956311,20.7549296 C188.956311,13.0478873 181.520846,10.884507 176.131839,10.884507 C164.262381,10.884507 156.690486,21.3633803 156.690486,32.7211268 C156.690486,42.1183099 161.670201,48 171.834277,48 Z M167.332069,27.1098592 L167.60493,25.5549296 C168.423513,20.9577465 171.561416,18.1183099 175.586117,18.1183099 C177.291499,18.1183099 179.679033,18.6591549 179.679033,21.7014085 C179.679033,24.5408451 177.56436,26.5014085 167.332069,27.1098592 Z" id="WeFree" fill="#FFFFFF" fill-rule="nonzero"></path>
                <path d="M218.710023,44.513225 C215.438171,46.9948137 211.86329,48 207.61202,48 C202.873829,48 199.245045,46.7614428 196.705565,44.5130546 Z M202.527496,37.7730863 C203.396813,39.3890819 205.188155,40.3656234 208.304768,40.3656234 C210.740621,40.3656234 212.731224,39.8129625 214.988212,37.7722127 L220.20401,37.7720909 L223.12958,40.0278192 C222.828935,40.4157536 222.527055,40.7874244 222.223589,41.143274 L194.070398,41.1430783 C193.527233,40.1191866 193.105061,38.9930565 192.803131,37.7732551 Z M216.163831,31.0339016 C212.628574,32.2396445 207.953845,32.9636734 202.000759,33.136612 C201.898626,33.7342538 201.871781,34.1116153 201.864726,34.4040157 L192.289005,34.402715 C192.251659,33.8588679 192.23301,33.3015353 192.23301,32.7312469 C192.23301,32.1627103 192.252303,31.5963773 192.290472,31.0334537 Z M203.6212,24.2929583 C203.498837,24.7016535 203.396998,25.1275875 203.316981,25.5697963 L203.316981,25.5697963 L203.039882,27.123696 C209.89211,26.7227344 213.15964,25.7342083 214.590519,24.293727 L224.388029,24.293937 C223.917873,25.5339083 223.170583,26.6605953 222.124751,27.6633035 L192.75144,27.6639051 C192.990913,26.5100863 193.311441,25.382579 193.709043,24.2928776 Z M224.482858,17.5532159 C224.815345,18.4996034 225,19.5685506 225,20.7729757 C225,20.8234005 224.999679,20.8736962 224.999036,20.9238625 L215.516342,20.9225013 C215.126719,18.5812972 212.990403,18.1381023 211.422135,18.1381023 C208.990437,18.1381023 206.877513,19.1425076 205.38973,20.923671 L195.254061,20.9230433 C195.929745,19.719677 196.711873,18.5896714 197.5934,17.5533532 Z M211.976334,10.9090909 C215.358318,10.9090909 219.533962,11.7347166 222.230801,14.1831771 L201.29697,14.1835612 C204.260995,12.1274948 207.864771,10.9090909 211.976334,10.9090909 Z" id="形状结合" fill="url(#linearGradient-1)"></path>
            </g>
        </g>
    </g>
</svg>