<?xml version="1.0" encoding="UTF-8"?>
<svg width="214px" height="120px" viewBox="0 0 214 120" version="1.1" xmlns="http://www.w3.org/2000/svg" xmlns:xlink="http://www.w3.org/1999/xlink">
    <title>ic_logo</title>
    <g id="页面-1" stroke="none" stroke-width="1" fill="none" fill-rule="evenodd">
        <g id="2-1首页-探索-缺省图" transform="translate(-268.000000, -608.000000)" fill="#363949">
            <g id="位图" transform="translate(24.000000, 200.000000)">
                <g id="ic_logo" transform="translate(244.000000, 408.000000)">
                    <path d="M32.4325546,8.39113126 L81.697094,93.605775 C86.5711848,102.25563 83.7196087,112.881783 75.6892233,117.6099 C67.0741589,122.477523 56.4319319,119.630254 51.6577407,111.608869 L2.39320139,26.394225 C-2.48088947,17.7443705 0.370686665,7.11821694 8.40107204,2.39010001 C17.0161364,-2.47752309 27.6583635,0.369746158 32.4325546,8.39113126 Z M113.989399,8.39113126 L163.253938,93.605775 C168.128029,102.25563 165.276453,112.881783 157.246067,117.6099 C148.631003,122.477523 137.988776,119.630254 133.214585,111.608869 L83.9500455,26.394225 C79.0759546,17.7443705 81.9275307,7.11821694 89.9579161,2.39010001 C98.5729805,-2.47752309 109.215208,0.369746158 113.989399,8.39113126 Z M194.795259,8.39113126 L211.617297,38.3962875 C216.465791,47.0564488 213.643755,57.6764338 205.609426,62.4004125 C197.170739,67.2666034 186.638757,64.420987 181.577943,56.3993813 L164.755906,26.394225 C159.907412,17.7340637 162.729448,7.11407875 170.763776,2.39010001 C179.202463,-2.47609085 189.734445,0.36952553 194.795259,8.39113126 Z"></path>
                </g>
            </g>
        </g>
    </g>
</svg>