<?xml version="1.0" encoding="UTF-8"?>
<svg width="340px" height="133px" viewBox="0 0 340 133" version="1.1" xmlns="http://www.w3.org/2000/svg" xmlns:xlink="http://www.w3.org/1999/xlink">
    <title>ic_logo</title>
    <defs>
        <linearGradient x1="100%" y1="45.9381048%" x2="0%" y2="45.9381048%" id="linearGradient-1">
            <stop stop-color="#FF521D" offset="0%"></stop>
            <stop stop-color="#FF193C" offset="100%"></stop>
        </linearGradient>
        <linearGradient x1="18.1186626%" y1="50%" x2="125.424383%" y2="50%" id="linearGradient-2">
            <stop stop-color="#FF521D" offset="0%"></stop>
            <stop stop-color="#FF521D" stop-opacity="0.397696542" offset="100%"></stop>
        </linearGradient>
        <linearGradient x1="100%" y1="45.9381048%" x2="0%" y2="45.9381048%" id="linearGradient-3">
            <stop stop-color="#FF521D" offset="0%"></stop>
            <stop stop-color="#FF193C" offset="100%"></stop>
        </linearGradient>
        <path d="M34.4064605,132.428462 L37.9507547,98.8619928 L23.0317491,98.8619928 L25.2572361,95.0821701 L20.3117094,95.0821701 L19.1165404,98.8619928 L10.5442941,98.8619928 L7,132.428462 L34.4064605,132.428462 Z M32.7579516,108.516975 L13.7176738,108.516975 L14.3358646,102.806156 L33.3761425,102.806156 L32.7579516,108.516975 Z M31.810059,118.089787 L12.7697812,118.089787 L13.3055466,112.337883 L32.3870371,112.337883 L31.810059,118.089787 Z M30.6973155,128.525385 L11.6158249,128.525385 L12.3164412,121.95178 L31.356719,121.95178 L30.6973155,128.525385 Z M71.9277007,132.428462 L75.1835057,101.69686 L63.108178,101.69686 L63.8087943,95.0821701 L59.4402457,95.0821701 L58.7396294,101.69686 L46.6643017,101.69686 L43.4084966,132.428462 L71.9277007,132.428462 Z M57.3383969,115.09058 L49.5079796,115.09058 L50.4970849,105.558853 L58.3275022,105.558853 L57.3383969,115.09058 Z M69.4549373,115.09058 L61.6657327,115.09058 L62.6548381,105.558853 L70.4440426,105.558853 L69.4549373,115.09058 Z M55.9371643,128.525385 L48.106747,128.525385 L49.1370651,118.664977 L56.9262696,118.664977 L55.9371643,128.525385 Z M68.0537047,128.525385 L60.2645002,128.525385 L61.3772437,118.664977 L69.0840228,118.664977 L68.0537047,128.525385 Z M91.1917047,133.003653 L92.0159592,125.608347 L93.7881062,125.279667 L94.2002335,121.417674 L92.3868737,121.78744 L94.7359988,99.6015234 L96.1784441,99.6015234 L96.5905714,95.9449557 L82.9079475,95.9449557 L82.5782457,99.6015234 L83.6909892,99.6015234 L81.1358004,124.006031 L79.8994187,124.252541 L79.4872915,128.237789 L88.3480268,126.388963 L87.6474106,133.003653 L91.1917047,133.003653 Z M110.64411,116.199876 L112.787171,95.9449557 L97.7857403,95.9449557 L95.6426787,116.199876 L110.64411,116.199876 Z M90.6559393,104.778237 L86.6583052,104.778237 L87.1940706,99.6015234 L91.1917047,99.6015234 L90.6559393,104.778237 Z M107.058603,112.378968 L99.9700146,112.378968 L101.330034,99.8069485 L108.418623,99.8069485 L107.058603,112.378968 Z M89.7080467,113.488264 L85.7516253,113.488264 L86.3286034,108.22938 L90.2438121,108.22938 L89.7080467,113.488264 Z M84.7213073,123.266501 L85.4219235,117.021576 L89.3371322,117.021576 L88.7601541,122.485885 L84.7213073,123.266501 Z M95.6838915,133.003653 L101.041545,118.295212 L96.5905714,118.295212 L92.5105118,133.003653 L95.6838915,133.003653 Z M110.231983,133.003653 L109.242877,118.295212 L104.833116,118.295212 L107.058603,133.003653 L110.231983,133.003653 Z M147.176245,132.223037 L147.629585,128.032364 L138.810062,128.032364 L142.271931,95.1232551 L138.109446,95.1232551 L134.606364,128.032364 L129.372348,128.032364 L132.87543,95.1232551 L128.671732,95.1232551 L125.168651,128.032364 L116.349128,128.032364 L115.895788,132.223037 L147.176245,132.223037 Z M123.478929,121.664185 L123.396504,101.039499 L119.192806,101.039499 L120.429188,121.664185 L123.478929,121.664185 Z M144.909545,121.664185 L150.473262,101.039499 L146.228352,101.039499 L141.901016,121.664185 L144.909545,121.664185 Z M181.153191,132.428462 L183.213827,113.077413 L167.346929,113.077413 L172.045179,109.544101 L186.510845,109.544101 L186.881759,105.846448 L176.990706,105.846448 L187.170248,98.2046324 L180.535,98.2046324 L178.556789,99.8069485 L178.72164,98.2046324 L172.745795,98.2046324 L173.034284,95.041085 L168.995437,95.041085 L168.706948,98.2046324 L159.269235,98.2046324 L158.857108,101.984455 L168.294821,101.984455 L167.882694,105.846448 L155.931004,105.846448 L155.518877,109.544101 L166.357823,109.544101 L154.117645,119.363423 L158.074066,119.363423 L156.672833,132.428462 L181.153191,132.428462 Z M172.003966,105.024747 L172.333668,101.984455 L175.795537,101.984455 L172.003966,105.024747 Z M178.185875,121.006824 L162.0717,121.006824 L162.52504,116.816151 L178.639214,116.816151 L178.185875,121.006824 Z M177.36162,128.689725 L161.288658,128.689725 L161.700786,124.416882 L177.81496,124.416882 L177.36162,128.689725 Z M221.312045,131.401337 L221.724172,127.169579 L208.247612,127.169579 L210.967652,101.20384 L222.878128,101.20384 L223.331468,97.0131665 L195.141966,97.0131665 L194.729839,101.20384 L206.599103,101.20384 L203.837851,127.169579 L190.484928,127.169579 L190.031589,131.401337 L221.312045,131.401337 Z M234.22929,133.167993 L237.11418,105.517768 L234.023226,105.517768 L240.28756,95 L235.919011,95 L228.541934,108.845655 L232.045015,108.845655 L232.86927,107.448764 L230.231656,133.167993 L234.22929,133.167993 Z M245.562788,133.167993 L246.510681,123.513011 L257.84418,123.513011 L258.256307,119.527763 L246.922808,119.527763 L247.623425,113.118498 L258.627221,113.118498 L259.039349,109.092165 L248.076765,109.092165 L248.736168,102.682901 L260.935134,102.682901 L261.347261,98.6976527 L245.686427,98.6976527 L247.293723,95 L242.966387,95 L237.732371,110.324716 L240.576049,110.324716 L244.944598,100.382139 L241.565154,133.167993 L245.562788,133.167993 Z M281.394307,133.044738 L282.836752,119.897528 L296.230887,119.897528 L296.684227,115.74794 L283.207667,115.74794 L284.938601,100.053459 L297.013929,100.053459 L297.384843,95.9860407 L268.865639,95.9860407 L268.412299,100.053459 L280.52884,100.053459 L278.839118,115.74794 L265.444983,115.74794 L264.991643,119.897528 L278.385778,119.897528 L277.066971,133.044738 L281.394307,133.044738 Z M274.63542,112.954158 L273.976017,102.888326 L269.236554,102.888326 L271.379615,112.954158 L274.63542,112.954158 Z M291.120509,112.954158 L295.612696,102.888326 L290.873233,102.888326 L287.864704,112.954158 L291.120509,112.954158 Z M333.34,110.324716 L329.71328,99.149588 L325.01503,99.149588 L327.652644,106.216213 L310.549364,106.216213 L317.267038,95.0821701 L312.403937,95.0821701 L303.831691,110.324716 L333.34,110.324716 Z M329.589642,132.428462 L331.485427,114.515389 L304.862009,114.515389 L303.007436,132.428462 L329.589642,132.428462 Z M325.798072,128.361045 L307.664474,128.361045 L308.694792,118.582807 L326.869603,118.582807 L325.798072,128.361045 Z" id="path-4"></path>
    </defs>
    <g id="页面-1" stroke="none" stroke-width="1" fill="none" fill-rule="evenodd">
        <g id="1-0启动页" transform="translate(-205.000000, -480.000000)">
            <g id="ic_logo" transform="translate(205.000000, 480.000000)">
                <g id="编组">
                    <path d="M52.8030303,0 L55.329,46.861 L74.6969697,0 L90.1515152,0 L60.530303,71.671484 L43.7878788,71.671484 L41.028,20.478 L18.030303,71.671484 L1.28787879,71.671484 L0,0 L14.1666667,0 L15.008,46.861 L36.0606061,0 L52.8030303,0 Z M108.139605,72.805674 C117.426404,72.805674 124.546282,69.5242915 131.253414,60.7055761 L122.379363,53.7326383 C117.52959,59.7826872 113.918058,61.2182921 109.171472,61.2182921 C102.051593,61.2182921 99.5751138,57.7318232 99.5751138,52.604663 L99.575603,52.3928923 C99.5787827,51.91694 99.6026302,51.3126187 99.7814871,50.2461694 C124.030349,49.528367 134.039454,42.5554292 134.039454,31.4807633 C134.039454,19.7908381 122.792109,16.5094557 114.640364,16.5094557 C96.6858877,16.5094557 85.23217,32.4036521 85.23217,49.6309102 C85.23217,63.8844154 92.7647951,72.805674 108.139605,72.805674 Z M101.329287,41.1198243 L101.742033,38.7613307 C102.980273,31.7883929 107.726859,27.4815784 113.814871,27.4815784 C116.394537,27.4815784 120.00607,28.301924 120.00607,32.9163681 C120.00607,37.2231826 116.807284,40.1969355 101.329287,41.1198243 Z M153.438543,71.5751556 L159.216995,42.7605156 L185.735964,42.7605156 L188.418816,29.6349856 L161.899848,29.6349856 L165.201821,13.12553 L195.332322,13.12553 L198.015175,0 L152.92261,0 L138.47648,71.5751556 L153.438543,71.5751556 Z M208.540212,71.5751556 L214.215478,43.2732316 C215.969651,34.5570594 220.509863,31.6858497 229.693475,31.6858497 L233.305008,31.6858497 L236.194234,17.7399741 L233.614568,17.7399741 C228.042489,17.7399741 223.072332,18.8594041 218.704097,21.098264 L219.37481,17.7399741 L204.92868,17.7399741 L194.094082,71.5751556 L208.540212,71.5751556 Z M259.927162,72.805674 C269.213961,72.805674 276.333839,69.5242915 283.040971,60.7055761 L274.16692,53.7326383 C269.317147,59.7826872 265.705615,61.2182921 260.959029,61.2182921 C253.83915,61.2182921 251.362671,57.7318232 251.362671,52.604663 L251.36316,52.3928923 C251.36634,51.91694 251.390187,51.3126187 251.569044,50.2461694 C275.817906,49.528367 285.827011,42.5554292 285.827011,31.4807633 C285.827011,19.7908381 274.579666,16.5094557 266.427921,16.5094557 C248.473445,16.5094557 237.019727,32.4036521 237.019727,49.6309102 C237.019727,63.8844154 244.552352,72.805674 259.927162,72.805674 Z M253.116844,41.1198243 L253.52959,38.7613307 C254.76783,31.7883929 259.514416,27.4815784 265.602428,27.4815784 C268.182094,27.4815784 271.793627,28.301924 271.793627,32.9163681 C271.793627,37.2231826 268.594841,40.1969355 253.116844,41.1198243 Z" id="WeFree" fill="url(#linearGradient-1)" fill-rule="nonzero"></path>
                    <path d="M330.630469,67.5138261 C325.757082,71.2801052 320.432335,72.805674 314.100152,72.805674 C307.042558,72.805674 301.637424,70.9258383 297.854807,67.5133156 Z M306.52655,57.2832282 C307.821393,59.7360519 310.489656,61.2182921 315.132018,61.2182921 C318.759596,61.2182921 321.724214,60.379787 325.085267,57.283802 L332.857716,57.2824557 L337.213961,60.7055761 C336.766186,61.2943214 336.316573,61.8583867 335.864597,62.3984433 L293.929487,62.3981764 C293.120482,60.8441997 292.491681,59.1350639 292.041962,57.2837699 Z M326.839005,47.0544498 C321.573064,48.8846622 314.609707,49.983673 305.742033,50.2461694 C305.590075,51.1522347 305.550008,51.7247194 305.539443,52.1683107 L291.276149,52.1682439 C291.220504,51.3426727 291.192716,50.4966267 291.192716,49.6309102 C291.192716,48.7678616 291.221463,47.9081588 291.278333,47.0536325 Z M308.155603,36.8237627 C307.973392,37.4439529 307.821741,38.0902963 307.70258,38.7613307 L307.70258,38.7613307 L307.289833,41.1198243 C317.496878,40.5112206 322.363926,39.0107348 324.495103,36.8242218 L339.088801,36.8239091 C338.388398,38.7066001 337.274932,40.4172391 335.716482,41.9395781 L291.965158,41.938638 C292.321804,40.1879201 292.799112,38.4771176 293.391154,36.8236608 Z M339.230035,26.5948044 C339.725074,28.0309847 340,29.6531063 340,31.4807633 C340,31.557048 339.999525,31.6331381 339.998574,31.7090328 L325.873913,31.70813 C325.293741,28.154308 322.111485,27.4815784 319.775417,27.4815784 C316.153699,27.4815784 313.006709,29.0057522 310.790652,31.7086825 L295.692667,31.7085041 C296.698941,29.8823699 297.863709,28.1675427 299.176484,26.5948579 Z M320.60091,16.5094557 C325.638581,16.5094557 331.858484,17.7626405 335.875487,21.4790908 L304.693193,21.4797876 C309.108284,18.3588845 314.476387,16.5094557 320.60091,16.5094557 Z" id="形状结合" fill="url(#linearGradient-2)"></path>
                </g>
                <g id="自由职业者工作平台" fill-rule="nonzero">
                    <use fill="#5FCF73" xlink:href="#path-4"></use>
                    <use fill="url(#linearGradient-3)" xlink:href="#path-4"></use>
                </g>
            </g>
        </g>
    </g>
</svg>