<?xml version="1.0" encoding="UTF-8"?>
<svg width="28px" height="28px" viewBox="0 0 28 28" version="1.1" xmlns="http://www.w3.org/2000/svg" xmlns:xlink="http://www.w3.org/1999/xlink">
    <title>ic_position</title>
    <g id="页面-1" stroke="none" stroke-width="1" fill="none" fill-rule="evenodd">
        <g id="2-3达人主页-达人名片" transform="translate(-24.000000, -496.000000)">
            <g id="ic_position" transform="translate(24.000000, 496.000000)">
                <rect id="矩形" fill="#D8D8D8" opacity="0" x="0" y="0" width="28" height="28"></rect>
                <path d="M14,15.372097 C11.791,15.372097 10,13.581097 10,11.372097 C10,9.16309698 11.791,7.37209698 14,7.37209698 C16.209,7.37209698 18,9.16309698 18,11.372097 C18,13.581097 16.209,15.372097 14,15.372097 M14.467,0.00909697849 C7.627,-0.255903022 2,5.30309698 2,12.196097 C2,16.696097 4.396,20.626097 7.963,22.740097 C9.284,23.523097 11.988,26.314097 13.28,27.686097 C13.673,28.103097 14.327,28.103097 14.719,27.686097 C16.012,26.314097 18.715,23.523097 20.037,22.740097 C23.685,20.578097 26.108,16.516097 25.996,11.888097 C25.842,5.54409698 20.706,0.249096978 14.467,0.00909697849" id="Fill-1" fill="#6A6E7E"></path>
            </g>
        </g>
    </g>
</svg>