<?xml version="1.0" encoding="UTF-8"?>
<svg width="24px" height="24px" viewBox="0 0 24 24" version="1.1" xmlns="http://www.w3.org/2000/svg" xmlns:xlink="http://www.w3.org/1999/xlink">
    <title>ic_like</title>
    <defs>
        <polygon id="path-1" points="0 0 24 0 24 24 0 24"></polygon>
    </defs>
    <g id="页面-1" stroke="none" stroke-width="1" fill="none" fill-rule="evenodd">
        <g id="2-10达人主页-名片详情-已收藏" transform="translate(-88.000000, -984.000000)">
            <g id="9651" transform="translate(48.000000, 952.000000)">
                <g id="编组-5" transform="translate(24.000000, 24.000000)">
                    <g id="ic_like" transform="translate(16.000000, 8.000000)">
                        <mask id="mask-2" fill="white">
                            <use xlink:href="#path-1"></use>
                        </mask>
                        <g id="Clip-2" opacity="0"></g>
                        <path d="M17.1943846,2 C15.4525385,2 13.7116154,2.66369327 12.3823846,3.99292404 L12.0002308,4.37507788 L11.6180769,3.99292404 C10.2888462,2.66461634 8.547,2 6.80515385,2 C5.06330769,1.99907788 3.32238462,2.66461634 1.99315385,3.99292404 C-0.664384615,6.6504625 -0.664384615,10.9593856 1.99315385,13.616924 L10.5076154,22.1313856 C10.9156154,22.5403087 11.4519231,22.7433856 11.9873077,22.7433856 L12.0002308,22.7433856 L12.0122308,22.7433856 C12.5485385,22.7433856 13.0839231,22.5403087 13.4928462,22.1313856 L22.0063846,13.616924 C24.6648462,10.9593856 24.6648462,6.6504625 22.0063846,3.99292404 C20.6771538,2.66461634 18.9362308,2 17.1943846,2 M17.1943846,4.76923021 C18.2725385,4.76923021 19.287,5.18830865 20.0485385,5.95077019 C20.811,6.71323173 21.231,7.72677019 21.231,8.80492404 C21.231,9.88307788 20.811,10.8966163 20.0485385,11.6590779 L12.0002308,19.7083087 L3.951,11.6590779 C3.18853846,10.8966163 2.76946154,9.88307788 2.76946154,8.80492404 C2.76946154,7.72677019 3.18853846,6.71323173 3.951,5.95077019 C4.71346154,5.18830865 5.727,4.76830865 6.80515385,4.76923021 C7.88330769,4.76923021 8.89776923,5.18830865 9.66023077,5.95077019 L10.0423846,6.33292404 L12.0002308,8.29077019 L13.9580769,6.33292404 L14.3402308,5.95077019 C15.1026923,5.18830865 16.1162308,4.76923021 17.1943846,4.76923021" id="Fill-1" fill="#FFFFFF" mask="url(#mask-2)"></path>
                    </g>
                </g>
            </g>
        </g>
    </g>
</svg>