<?xml version="1.0" encoding="UTF-8"?>
<svg width="192px" height="192px" viewBox="0 0 192 192" version="1.1" xmlns="http://www.w3.org/2000/svg" xmlns:xlink="http://www.w3.org/1999/xlink">
    <title>ic_logo</title>
    <defs>
        <linearGradient x1="100%" y1="45.9381048%" x2="0%" y2="45.9381048%" id="linearGradient-1">
            <stop stop-color="#FF521D" offset="0%"></stop>
            <stop stop-color="#FF193C" offset="100%"></stop>
        </linearGradient>
    </defs>
    <g id="页面-1" stroke="none" stroke-width="1" fill="none" fill-rule="evenodd">
        <g id="5-8设置-关于wefree" transform="translate(-279.000000, -296.000000)">
            <g id="ic_logo" transform="translate(279.000000, 296.000000)">
                <path d="M61.5332448,-2.48601674e-15 L130.466755,2.48601674e-15 C151.863205,-1.44444732e-15 159.622075,2.22781467 167.444297,6.41118489 C175.266519,10.5945551 181.405445,16.7334809 185.588815,24.5557031 C189.772185,32.3779253 192,40.136795 192,61.5332448 L192,130.466755 C192,151.863205 189.772185,159.622075 185.588815,167.444297 C181.405445,175.266519 175.266519,181.405445 167.444297,185.588815 C159.622075,189.772185 151.863205,192 130.466755,192 L61.5332448,192 C40.136795,192 32.3779253,189.772185 24.5557031,185.588815 C16.7334809,181.405445 10.5945551,175.266519 6.41118489,167.444297 C2.22781467,159.622075 9.62964878e-16,151.863205 -1.65734449e-15,130.466755 L1.65734449e-15,61.5332448 C-9.62964878e-16,40.136795 2.22781467,32.3779253 6.41118489,24.5557031 C10.5945551,16.7334809 16.7334809,10.5945551 24.5557031,6.41118489 C32.3779253,2.22781467 40.136795,1.44444732e-15 61.5332448,-2.48601674e-15 Z" id="矩形" fill="url(#linearGradient-1)"></path>
                <g id="编组-2" transform="translate(41.000000, 66.000000)" fill="#FFFFFF">
                    <path d="M34.9831286,58.7417702 L34.9831286,58.7417702 C30.4779829,61.3404563 24.6640375,59.7820012 22.0653515,55.2806382 L1.26073253,19.2470381 C-1.34173617,14.7418924 0.216718927,8.92794711 4.7218646,6.32926107 C9.22322761,3.72679237 15.0409556,5.28524746 17.6396416,9.79039313 L38.4442606,45.8239932 C41.0467293,50.3253562 39.4844916,56.1430842 34.9831286,58.7417702" id="Fill-3"></path>
                    <path d="M77.19797,56.2077676 L77.19797,56.2077676 C72.6928244,58.8064537 66.878879,57.2479986 64.280193,52.7466356 L43.475574,16.7130355 C40.8731053,12.2078899 42.4315604,6.39394452 46.9367061,3.79525848 C51.4418517,1.19278978 57.2557971,2.75124487 59.8544831,7.25639054 L80.6591021,43.2899906 C83.2615708,47.7913536 81.7031157,53.6090816 77.19797,56.2077676" id="Fill-5"></path>
                    <path d="M104.282558,27.468267 L104.282558,27.468267 C99.7774121,30.066953 93.9634668,28.508498 91.3647808,24.0071349 L85.6907938,14.1760068 C83.0883251,9.6746438 84.6467802,3.86069846 89.1519258,1.25822976 C93.6570715,-1.34045628 99.4710168,0.217998814 102.069703,4.71936183 L107.74369,14.55049 C110.346159,19.051853 108.787703,24.869581 104.282558,27.468267" id="Fill-7"></path>
                </g>
            </g>
        </g>
    </g>
</svg>