<?xml version="1.0" encoding="UTF-8"?>
<svg width="120px" height="120px" viewBox="0 0 120 120" version="1.1" xmlns="http://www.w3.org/2000/svg" xmlns:xlink="http://www.w3.org/1999/xlink">
    <title>ic_moments</title>
    <defs>
        <polygon id="path-1" points="0 0 17.3333333 0 17.3333333 19.0666667 0 19.0666667"></polygon>
        <polygon id="path-3" points="0 0 19.5 0 19.5 16.9 0 16.9"></polygon>
        <polygon id="path-5" points="0 0 17.3333333 0 17.3333333 19.0666667 0 19.0666667"></polygon>
        <polygon id="path-7" points="0 0 19.5 0 19.5 16.9 0 16.9"></polygon>
    </defs>
    <g id="页面-1" stroke="none" stroke-width="1" fill="none" fill-rule="evenodd">
        <g id="2-6达人主页-分享" transform="translate(-315.000000, -1218.000000)">
            <g id="ic_moments" transform="translate(315.000000, 1218.000000)">
                <circle id="椭圆形备份-3" fill="#383A4A" cx="60" cy="60" r="60"></circle>
                <g id="编组" transform="translate(34.000000, 34.000000)">
                    <g transform="translate(17.333333, 0.000000)">
                        <mask id="mask-2" fill="white">
                            <use xlink:href="#path-1"></use>
                        </mask>
                        <g id="Clip-2"></g>
                        <path d="M17.3282361,1.3847346 C17.3282361,1.3847346 13.8769692,-1.53095623e-05 8.66392499,-1.53095623e-05 C3.45118972,-1.53095623e-05 0,1.58628499 0,1.58628499 L17.3333333,19.0666667 L17.3282361,1.3847346 Z" id="Fill-1" fill="#FB5453" mask="url(#mask-2)"></path>
                    </g>
                    <path d="M44.485889,7.52975659 C40.6597656,3.89466167 36.9606829,2.6 36.9606829,2.6 L36.8333333,26.8666667 L49.8333333,14.5293162 C49.8333333,14.5344998 48.3174184,11.1644647 44.485889,7.52975659" id="Fill-3" fill="#6468F1"></path>
                    <g transform="translate(32.500000, 16.900000)">
                        <mask id="mask-4" fill="white">
                            <use xlink:href="#path-3"></use>
                        </mask>
                        <g id="Clip-6"></g>
                        <path d="M17.8736923,0 L0,16.9 L18.0821338,16.9 C18.0821338,16.9 19.5000618,13.5339837 19.5000618,8.44732844 C19.4945785,3.36593995 17.8736923,0 17.8736923,0" id="Fill-5" fill="#5283F0" mask="url(#mask-4)"></path>
                    </g>
                    <path d="M37.0443468,48.9666667 C37.0443468,48.9666667 40.5342855,47.552937 44.2951324,43.9780337 C48.0559025,40.4034399 49.4,36.9538713 49.4,36.9538713 L24.2666667,36.8333333 L37.0443468,48.9666667 Z" id="Fill-7" fill="#00B2FE"></path>
                    <g transform="translate(17.333333, 32.933333)">
                        <mask id="mask-6" fill="white">
                            <use xlink:href="#path-5"></use>
                        </mask>
                        <g id="Clip-10"></g>
                        <path d="M0.00509719877,17.6822525 C0.00509719877,17.6822525 3.45659584,19.0666973 8.66933111,19.0666973 C13.8872408,19.0666973 17.3333333,17.4803192 17.3333333,17.4803192 L0,0 L0.00509719877,17.6822525 Z" id="Fill-9" fill="#66D020" mask="url(#mask-6)"></path>
                    </g>
                    <path d="M7.94733972,44.0369874 C11.7737857,47.6719276 15.4730336,48.9666667 15.4730336,48.9666667 L15.6,24.7 L2.6,37.0372731 C2.60517442,37.0322442 4.12112542,40.402202 7.94733972,44.0369874" id="Fill-11" fill="#9AD122"></path>
                    <g transform="translate(0.000000, 16.900000)">
                        <mask id="mask-8" fill="white">
                            <use xlink:href="#path-7"></use>
                        </mask>
                        <g id="Clip-14"></g>
                        <path d="M1.41816328,0 C1.41816328,0 -1.54460461e-05,3.36510031 -1.54460461e-05,8.45 C-1.54460461e-05,13.535205 1.62151048,16.9 1.62151048,16.9 L19.5,0.00503780385 L1.41816328,0.00503780385 L1.41816328,0 Z" id="Fill-13" fill="#FFC71A" mask="url(#mask-8)"></path>
                    </g>
                    <path d="M14.9557664,2.6 C14.9557664,2.6 11.4657957,4.01372969 7.70499117,7.58832351 C3.94410983,11.1632268 2.6,14.6130274 2.6,14.6130274 L27.7333333,14.7333333 L14.9557664,2.6 Z" id="Fill-15" fill="#FF7612"></path>
                </g>
            </g>
        </g>
    </g>
</svg>