<?xml version="1.0" encoding="UTF-8"?>
<svg width="120px" height="120px" viewBox="0 0 120 120" version="1.1" xmlns="http://www.w3.org/2000/svg" xmlns:xlink="http://www.w3.org/1999/xlink">
    <title>ic_poster</title>
    <defs>
        <polygon id="path-1" points="0 0 53.9998962 0 53.9998962 54 0 54"></polygon>
    </defs>
    <g id="页面-1" stroke="none" stroke-width="1" fill="none" fill-rule="evenodd">
        <g id="2-6达人主页-分享" transform="translate(-549.000000, -1218.000000)">
            <g id="ic_poster" transform="translate(549.000000, 1218.000000)">
                <circle id="椭圆形备份-4" fill="#383A4A" cx="60" cy="60" r="60"></circle>
                <g id="编组" transform="translate(33.000000, 33.000000)">
                    <g>
                        <mask id="mask-2" fill="white">
                            <use xlink:href="#path-1"></use>
                        </mask>
                        <g id="Clip-2"></g>
                        <path d="M53.9998962,26.9998962 C53.9998962,41.9112227 41.9111189,54 26.9997923,54 C12.0884657,54 -0.00031153966,41.9112227 -0.00031153966,26.9998962 C-0.00031153966,12.0885696 12.0884657,-0.000207693107 26.9997923,-0.000207693107 C41.9111189,-0.000207693107 53.9998962,12.0885696 53.9998962,26.9998962" id="Fill-1" fill="#4A5FFF" mask="url(#mask-2)"></path>
                    </g>
                    <path d="M44.2470433,40.7525029 L34.3930438,25.4507133 C33.0222693,23.3228974 29.9110266,23.3228974 28.5412905,25.4507133 L21.5731868,36.2715241 C21.3686091,36.5882561 20.904415,36.5882561 20.6998373,36.2715241 L18.9292536,33.5216674 C18.0081346,32.0917004 15.9197805,32.0917004 14.9986615,33.5206289 L9.92056508,41.4067362 C9.66614102,41.8023915 9.70041039,42.3268166 10.0202578,42.6715872 C14.1969661,47.1930661 20.168143,50.0322309 26.7935531,50.0322309 C33.7481567,50.0322309 39.9810269,46.9064496 44.1743507,41.9893153 C44.4703133,41.6424679 44.4931596,41.1356967 44.2470433,40.7525029" id="Fill-3" fill="#FFFFFF"></path>
                    <path d="M17.0218001,17.4690672 C17.0218001,19.4764211 15.3945246,21.1036966 13.3871707,21.1036966 C11.3798168,21.1036966 9.75254136,19.4764211 9.75254136,17.4690672 C9.75254136,15.4617133 11.3798168,13.8344378 13.3871707,13.8344378 C15.3945246,13.8344378 17.0218001,15.4617133 17.0218001,17.4690672" id="Fill-5" fill="#FFFFFF"></path>
                </g>
            </g>
        </g>
    </g>
</svg>