<?xml version="1.0" encoding="UTF-8"?>
<svg width="40px" height="40px" viewBox="0 0 40 40" version="1.1" xmlns="http://www.w3.org/2000/svg" xmlns:xlink="http://www.w3.org/1999/xlink">
    <title>ic_protocol</title>
    <g id="页面-1" stroke="none" stroke-width="1" fill="none" fill-rule="evenodd">
        <g id="5-1设置" transform="translate(-24.000000, -600.000000)">
            <g id="ic_protocol" transform="translate(24.000000, 600.000000)">
                <polygon id="Fill-1" fill="#000000" opacity="0" points="0 40 40 40 40 0 0 0"></polygon>
                <g id="编组" transform="translate(2.500100, 2.500100)" fill="#FFFFFF">
                    <path d="M32,29.9998 C32,31.1038 31.104,31.9998 30,31.9998 L5,31.9998 C3.896,31.9998 3,31.1038 3,29.9998 L3,23.1618 C3,21.8918 4.169,20.9428 5.412,21.2048 L17.588,23.9788 C17.86,24.0348 18.14,24.0348 18.412,23.9788 L29.588,21.2048 C30.831,20.9428 32,21.8918 32,23.1618 L32,29.9998 Z M30.176,18.0158 L18.824,20.8258 C18.281,20.9408 17.719,20.9408 17.176,20.8258 L4.824,18.0158 C2.338,17.4918 0,19.3888 0,21.9298 L0,30.9998 C0,33.2088 1.791,34.9998 4,34.9998 L31,34.9998 C33.209,34.9998 35,33.2088 35,30.9998 L35,21.9298 C35,19.3888 32.662,17.4918 30.176,18.0158 L30.176,18.0158 Z" id="Fill-2"></path>
                    <path d="M6.9995,20.491 L6.9995,5 C6.9995,3.895 7.8955,3 8.9995,3 L25.9995,3 C27.1045,3 27.9995,3.895 27.9995,5 L27.9995,20.491 L30.9995,20.491 L30.9995,4 C30.9995,1.791 29.2085,0 26.9995,0 L7.9995,0 C5.7905,0 3.9995,1.791 3.9995,4 L3.9995,20.491 L6.9995,20.491 Z" id="Fill-4"></path>
                    <path d="M22.5,13.3836 L12.5,13.3836 C11.95,13.3836 11.5,12.9336 11.5,12.3836 L11.5,11.3836 C11.5,10.8336 11.95,10.3836 12.5,10.3836 L22.5,10.3836 C23.05,10.3836 23.5,10.8336 23.5,11.3836 L23.5,12.3836 C23.5,12.9336 23.05,13.3836 22.5,13.3836" id="Fill-6"></path>
                </g>
            </g>
        </g>
    </g>
</svg>