<?xml version="1.0" encoding="UTF-8"?>
<svg width="24px" height="24px" viewBox="0 0 24 24" version="1.1" xmlns="http://www.w3.org/2000/svg" xmlns:xlink="http://www.w3.org/1999/xlink">
    <title>ic_picture</title>
    <defs>
        <polygon id="path-1" points="0 0 19.4999719 0 19.4999719 19.5001219 0 19.5001219"></polygon>
        <polygon id="path-3" points="-6.66137978e-16 0 19.3781089 0 19.3781089 19.3778839 -6.66137978e-16 19.3778839"></polygon>
    </defs>
    <g id="页面-1" stroke="none" stroke-width="1" fill="none" fill-rule="evenodd">
        <g id="2-1首页-探索" transform="translate(-72.000000, -244.000000)">
            <g id="编组-5" transform="translate(56.000000, 232.000000)">
                <g id="ic_picture" transform="translate(16.000000, 12.000000)">
                    <rect id="矩形" fill="#FFFFFF" opacity="0" x="0" y="0" width="23.999925" height="23.999925"></rect>
                    <g id="编组">
                        <g transform="translate(0.000000, 4.499803)">
                            <mask id="mask-2" fill="white">
                                <use xlink:href="#path-1"></use>
                            </mask>
                            <g id="Clip-2"></g>
                            <path d="M16.4999531,19.5001219 L2.99986875,19.5001219 C1.34985844,19.5001219 -0.000150000938,18.1501134 -0.000150000938,16.5001031 L-0.000150000938,3.00001875 C-0.000150000938,1.35075844 1.34985844,0 2.99986875,0 L16.4999531,0 C18.1499634,0 19.4999719,1.35075844 19.4999719,3.00001875 L19.4999719,16.5001031 C19.4999719,18.1501134 18.1499634,19.5001219 16.4999531,19.5001219" id="Fill-1" fill="#FFFFFF" mask="url(#mask-2)"></path>
                        </g>
                        <g transform="translate(4.621891, 0.000000)">
                            <mask id="mask-4" fill="white">
                                <use xlink:href="#path-3"></use>
                            </mask>
                            <g id="Clip-4"></g>
                            <path d="M16.3780901,-0.000225001406 L2.87800576,-0.000225001406 C1.56549755,-0.000225001406 0.441990533,0.854780342 0.0377380064,2.03528772 C-0.124263006,2.51004069 0.25748938,2.99979375 0.759242516,2.99979375 L1.96600006,2.99979375 C2.17525137,2.99979375 2.37625262,2.9120432 2.51500349,2.75529222 C2.7887552,2.44704029 3.18550768,2.24978906 3.62801045,2.24978906 L15.6280854,2.24978906 C16.4530906,2.24978906 17.1280948,2.92479328 17.1280948,3.74979844 L17.1280948,15.7498734 C17.1280948,16.1931262 16.9315936,16.5891287 16.6233417,16.8628804 C16.4658407,17.0023813 16.3780901,17.2026325 16.3780901,17.4118838 L16.3780901,18.6186414 C16.3780901,19.1203945 16.8678432,19.5021469 17.3425962,19.3401459 C18.5231035,18.9358933 19.3781089,17.8131363 19.3781089,16.4998781 L19.3781089,2.99979375 C19.3781089,1.34978344 18.0281004,-0.000225001406 16.3780901,-0.000225001406" id="Fill-3" fill="#FFFFFF" mask="url(#mask-4)"></path>
                        </g>
                    </g>
                </g>
            </g>
        </g>
    </g>
</svg>