<?xml version="1.0" standalone="no"?><!DOCTYPE svg PUBLIC "-//W3C//DTD SVG 1.1//EN" "http://www.w3.org/Graphics/SVG/1.1/DTD/svg11.dtd"><svg t="1651808013099" class="icon" viewBox="0 0 1024 1024" version="1.1" xmlns="http://www.w3.org/2000/svg" p-id="1931" xmlns:xlink="http://www.w3.org/1999/xlink" width="48" height="48"><defs><style type="text/css"></style></defs><path d="M512 64C264.6 64 64 264.6 64 512s200.6 448 448 448 448-200.6 448-448S759.4 64 512 64z m0 840c-216.1 0-392-175.9-392-392s175.9-392 392-392 392 175.9 392 392-175.9 392-392 392z" p-id="1932" fill="#7A5F2B"></path><path d="M512 372c-15.5 0-28 12.5-28 28v364c0 15.5 12.5 28 28 28s28-12.5 28-28V400c0-15.5-12.5-28-28-28z" p-id="1933" fill="#7A5F2B"></path><path d="M512 288m-28 0a28 28 0 1 0 56 0 28 28 0 1 0-56 0Z" p-id="1934" fill="#7A5F2B"></path></svg>