<?xml version="1.0" encoding="UTF-8"?>
<svg width="96px" height="96px" viewBox="0 0 96 96" version="1.1" xmlns="http://www.w3.org/2000/svg" xmlns:xlink="http://www.w3.org/1999/xlink">
    <title>ic_subscript_tiktok</title>
    <g id="页面-1" stroke="none" stroke-width="1" fill="none" fill-rule="evenodd">
        <g id="4-9我收藏的名片" transform="translate(-486.000000, -880.000000)">
            <g id="编组-2" transform="translate(-120.000000, 880.000000)">
                <g id="ic_subscript_tiktok" transform="translate(606.000000, 0.000000)">
                    <path d="M72,0 L0,0 L0,0 L96,96 L96,24 C96,10.745166 85.254834,-2.4348735e-15 72,0 Z" id="路径-3备份-2" fill="#280A1F"></path>
                    <g id="编组" transform="translate(68.000000, 31.000000) rotate(15.000000) translate(-68.000000, -31.000000) translate(50.000000, 11.000000)">
                        <path d="M25.3928032,1.83165939 L19.0446251,1.83165939 L19.0446251,27.4774555 C19.0446251,30.5183141 16.6051109,32.9729832 13.6033296,32.9729832 C10.5924794,32.9729832 8.16203401,30.5183141 8.16203401,27.4774555 C8.16203401,24.445756 10.5924794,21.9819277 13.6033296,21.9819277 C14.2381474,21.9819277 14.8457587,22.0918383 15.4170947,22.3034161 L15.4170947,15.7170261 C14.8276211,15.6162748 14.2200097,15.5704787 13.6033296,15.5704787 C7.09191255,15.5704787 1.81385587,20.9011406 1.81385587,27.4774555 C1.81385587,34.0537703 7.09191255,39.3844322 13.6033296,39.3844322 C20.1147466,39.3844322 25.3928032,34.0537703 25.3928032,27.4774555 L25.3928032,14.4164179 C27.9320745,16.2940565 31.0698883,17.4023213 34.4616291,17.4023213 L34.4616291,10.9908723 C29.4547304,10.9908723 25.3928032,6.88846082 25.3928032,1.83165939" id="Fill-1" fill="#FF004A"></path>
                        <path d="M23.5790381,-0.000183184258 L17.2308599,-0.000183184258 L17.2308599,25.6456129 C17.2308599,28.6864716 14.7913457,31.1411406 11.7895644,31.1411406 C8.77871417,31.1411406 6.34826883,28.6864716 6.34826883,25.6456129 C6.34826883,22.6139134 8.77871417,20.1500852 11.7895644,20.1500852 C12.4243822,20.1500852 13.0319935,20.2599957 13.6033296,20.4715735 L13.6033296,13.8851835 C13.0138559,13.7844322 12.4062445,13.7386361 11.7895644,13.7386361 C5.27814737,13.7386361 9.06882591e-05,19.069298 9.06882591e-05,25.6456129 C9.06882591e-05,32.2219277 5.27814737,37.5525896 11.7895644,37.5525896 C18.3009814,37.5525896 23.5790381,32.2219277 23.5790381,25.6456129 L23.5790381,12.5845753 C26.1183093,14.462214 29.2561231,15.5704787 32.647864,15.5704787 L32.647864,9.1590297 C27.6409652,9.1590297 23.5790381,5.05661825 23.5790381,-0.000183184258" id="Fill-3" fill="#4BF2EE"></path>
                        <path d="M32.647864,10.8075048 L32.647864,15.5702955 C29.2561231,15.5702955 26.1183093,14.4620308 23.5790381,12.5843921 L23.5790381,25.6454297 C23.5790381,32.2217445 18.3009814,37.5524064 11.7895644,37.5524064 C8.99636599,37.5524064 6.43895709,36.5723707 4.41660891,34.9337875 C2.79328907,32.8903671 1.81385587,30.2983098 1.81385587,27.4772723 C1.81385587,20.9018733 7.09191255,15.5702955 13.6033296,15.5702955 L13.6033296,20.4713903 C13.0319935,20.2598125 12.4243822,20.149902 11.7895644,20.149902 C8.77871417,20.149902 6.34826883,22.6146462 6.34826883,25.6454297 C6.34826883,27.6421381 7.39118381,29.3823886 8.96915951,30.3441059 C9.91231741,31.9204064 11.6353943,32.9728 13.6033296,32.9728 C16.6051109,32.9728 19.0446251,30.5190469 19.0446251,27.4772723 L19.0446251,1.83147621 L23.7604146,1.83147621 C24.2138559,4.06724007 25.4653538,5.99891807 27.1974996,7.30960143 C27.2065684,7.32700394 27.2156372,7.32700394 27.2247061,7.33616315 C28.5215482,9.08557281 30.4350704,10.3495442 32.647864,10.8075048" id="Fill-5" fill="#FFFFFF"></path>
                    </g>
                </g>
            </g>
        </g>
    </g>
</svg>