<?xml version="1.0" encoding="UTF-8"?>
<svg width="20px" height="16px" viewBox="0 0 20 16" version="1.1" xmlns="http://www.w3.org/2000/svg" xmlns:xlink="http://www.w3.org/1999/xlink">
    <title>ic_switch</title>
    <defs>
        <polygon id="path-1" points="0 0 20 0 20 15.4173706 0 15.4173706"></polygon>
    </defs>
    <g id="页面-1" stroke="none" stroke-width="1" fill="none" fill-rule="evenodd">
        <g id="2-1首页-探索" transform="translate(-200.000000, -131.000000)">
            <g id="编组-6" transform="translate(176.000000, 115.000000)">
                <g id="ic_switch" transform="translate(24.000000, 16.000000)">
                    <mask id="mask-2" fill="white">
                        <use xlink:href="#path-1"></use>
                    </mask>
                    <g id="Clip-2"></g>
                    <path d="M19.6807246,11.6039251 C19.6910031,11.5936466 19.6980696,11.5840105 19.705136,11.5730896 C19.7115601,11.5660232 19.7147721,11.5595991 19.7218386,11.5525327 C19.732117,11.5383998 19.7391835,11.5287637 19.749462,11.5146308 C19.752674,11.5082067 19.7597405,11.5011403 19.7629525,11.4940738 C19.770019,11.4805833 19.7802974,11.4703048 19.7873639,11.4568143 C19.7905759,11.4497479 19.7937879,11.4426814 19.8008544,11.4356149 C19.8079209,11.4221244 19.8143449,11.411846 19.8214114,11.3983554 C19.8252658,11.391289 19.8284778,11.3842225 19.8355443,11.3771561 C19.8419683,11.3636656 19.8490348,11.3533871 19.8522468,11.3398966 C19.8561012,11.3328301 19.8593133,11.323194 19.8663797,11.3161276 C19.8728038,11.3052067 19.8766582,11.2917162 19.8798702,11.2814377 C19.8830823,11.2705168 19.8901487,11.2608807 19.8940031,11.2499598 L19.9042816,11.2191244 C19.9074937,11.2094883 19.9145601,11.1953554 19.9177721,11.1850769 C19.9216266,11.1747984 19.9241962,11.167732 19.9280506,11.1580959 C19.9312626,11.143963 19.9383291,11.1304725 19.9415411,11.1195516 C19.9453956,11.1124851 19.9453956,11.1028491 19.9486076,11.0957826 L19.9588861,11.0546687 C19.9620981,11.0476022 19.9620981,11.0405358 19.9620981,11.0334693 C19.9659525,11.0199788 19.9691646,11.0026339 19.973019,10.9891434 C19.973019,10.9820769 19.976231,10.9750104 19.976231,10.9653744 C19.979443,10.9512414 19.9826551,10.9345389 19.9826551,10.9210484 C19.9826551,10.9101275 19.9865095,10.9030611 19.9865095,10.893425 C19.9897215,10.8792921 19.9897215,10.8658016 19.9897215,10.8516686 C19.9897215,10.8413902 19.9935759,10.8278997 19.9935759,10.8169788 C19.9935759,10.8073427 19.996788,10.7970642 19.996788,10.7835737 C19.996788,10.7591623 20,10.7386053 20,10.7141939 C20,10.690425 20,10.666656 19.996788,10.646099 C19.996788,10.6351781 19.996788,10.625542 19.9935759,10.6114091 C19.9935759,10.6011306 19.9935759,10.5876401 19.9897215,10.5767192 C19.9897215,10.5632287 19.9865095,10.5490958 19.9865095,10.5356053 C19.9865095,10.5253268 19.9826551,10.5189028 19.9826551,10.5086243 C19.979443,10.4944914 19.979443,10.4771464 19.976231,10.4642983 C19.976231,10.4572319 19.973019,10.4501654 19.973019,10.4398869 C19.9691646,10.425754 19.9659525,10.4090515 19.9620981,10.3949186 C19.9588861,10.3878521 19.9588861,10.3814281 19.9588861,10.3743616 L19.9486076,10.3326053 C19.9453956,10.3261812 19.9453956,10.3159027 19.9415411,10.3088363 C19.9383291,10.2953458 19.9351171,10.2812129 19.9280506,10.2715768 C19.9241962,10.2606559 19.9216266,10.2535894 19.9177721,10.2439534 C19.9145601,10.2330325 19.9074937,10.2201844 19.9042816,10.2092635 L19.8940031,10.178428 C19.8901487,10.1681496 19.8830823,10.1578711 19.8798702,10.1475926 C19.8766582,10.1373141 19.8695918,10.1231812 19.8663797,10.1135451 C19.8631677,10.1064787 19.8593133,10.0955578 19.8522468,10.0891337 C19.8458228,10.0756432 19.8387563,10.0647223 19.8355443,10.0512318 C19.8316898,10.0441654 19.8284778,10.0377413 19.8214114,10.0306748 C19.8143449,10.0165419 19.8079209,10.0069059 19.8008544,9.99277294 C19.7976424,9.98570649 19.7937879,9.97928243 19.7873639,9.97221598 C19.7802974,9.95808306 19.770019,9.94844699 19.7629525,9.93431407 C19.7597405,9.92789002 19.752674,9.92082356 19.749462,9.91375711 C19.7423955,9.9002666 19.732117,9.88998812 19.7218386,9.87649761 C19.7147721,9.86943115 19.7115601,9.86236469 19.705136,9.85529824 C19.6980696,9.84566216 19.6877911,9.83474127 19.6807246,9.82446279 C19.6736582,9.81482671 19.6633797,9.80776025 19.6563132,9.79683937 C19.6498892,9.79041531 19.6428227,9.78013683 19.6363987,9.77307038 C19.6190537,9.75572544 19.6049208,9.7390229 19.5875759,9.72167796 C19.5708733,9.70433302 19.5535284,9.69020011 19.5361835,9.67349757 C19.5297594,9.66643112 19.5194809,9.66000707 19.5124145,9.65294061 C19.502136,9.64587415 19.4950695,9.63623808 19.4847911,9.62917162 C19.4745126,9.61825073 19.4642341,9.61182668 19.4539556,9.60540263 C19.4475316,9.59833617 19.4398227,9.59448174 19.4333986,9.58741528 C19.4199081,9.57777921 19.4096297,9.57071275 19.3954967,9.55979186 C19.3884303,9.55657983 19.3820062,9.55015578 19.3749398,9.54630135 C19.3614493,9.5392349 19.3505284,9.52959882 19.3370379,9.52253236 C19.3306138,9.51932034 19.3235474,9.5154659 19.3164809,9.50839945 C19.3029904,9.5019754 19.2927119,9.49490894 19.2792214,9.48784248 C19.2721549,9.48463046 19.2650885,9.48077603 19.258022,9.47435197 C19.2445315,9.46728552 19.234253,9.46021906 19.2201201,9.45700703 C19.2136961,9.4531526 19.2034176,9.44994058 19.1963511,9.44351653 C19.1860727,9.43645007 19.1719397,9.43323804 19.1616613,9.42938361 C19.1513828,9.42617159 19.1417467,9.41974753 19.1308258,9.4158931 L19.0999904,9.40561462 C19.0897119,9.40176019 19.0762214,9.39533614 19.0653005,9.39212411 C19.0556644,9.38826968 19.048598,9.38505766 19.0383195,9.38120322 C19.024829,9.3779912 19.010696,9.37092474 19.0004176,9.36771272 C18.9933511,9.36450069 18.983715,9.36450069 18.9766486,9.36128866 L18.9348922,9.35036778 C18.9284682,9.34715575 18.9214017,9.34715575 18.9111232,9.34330132 C18.8976327,9.3407317 18.8802878,9.33687727 18.8661549,9.33366524 C18.8597308,9.33366524 18.8526644,9.32981081 18.8423859,9.32981081 C18.8288954,9.32659879 18.8115504,9.32274435 18.7974175,9.32274435 C18.787139,9.32274435 18.780715,9.31953233 18.7704365,9.31953233 C18.756946,9.3156779 18.7428131,9.3156779 18.7293226,9.3156779 C18.7190441,9.3156779 18.7049112,9.31310828 18.6946327,9.31310828 C18.6843542,9.31310828 18.6740757,9.30925385 18.6637973,9.30925385 C18.6400283,9.30925385 18.6156169,9.30604182 18.5950599,9.30604182 L1.4801015,9.30604182 C0.704076061,9.30604182 0.0719493785,9.93431407 0.0719493785,10.7141939 C0.0719493785,11.4908618 0.700864035,12.1229885 1.4801015,12.1229885 L15.194167,12.1229885 L14.3012238,13.0159316 C13.751325,13.5658305 13.751325,14.4549192 14.3012238,15.0054604 C14.8504802,15.5547169 15.7402114,15.5547169 16.2901102,15.0054604 L19.5843639,11.7105644 C19.6017088,11.6938618 19.6151993,11.6758745 19.6325442,11.6591719 C19.6396107,11.6521055 19.6460348,11.6424694 19.6531012,11.6354029 C19.6633797,11.6244821 19.6704462,11.614846 19.6807246,11.6039251 M0.00321202582,4.80599364 C0.00321202582,4.81627212 0.00321202582,4.82976263 0.00706645681,4.84004111 C0.00706645681,4.85353162 0.0102784826,4.86766454 0.0102784826,4.88115504 C0.0102784826,4.89143353 0.0134905085,4.89849998 0.0134905085,4.90877847 C0.0173449395,4.92291138 0.0173449395,4.93961391 0.0205569653,4.95310442 C0.0205569653,4.96017088 0.0237689911,4.96723734 0.0237689911,4.97751582 C0.0269810169,4.99100633 0.0308354479,5.00835127 0.0340474737,5.02248418 C0.0340474737,5.02890823 0.0379019047,5.03533228 0.0379019047,5.04239874 L0.0475379822,5.08415508 C0.0513924132,5.09057913 0.0513924132,5.10085761 0.054604439,5.10792407 C0.05845887,5.12141458 0.0616708958,5.13554749 0.0687373526,5.14582597 C0.0719493785,5.15610446 0.0751614043,5.16317091 0.0790158353,5.17280699 C0.0822278611,5.18372788 0.0892943179,5.19721839 0.0925063438,5.20749687 L0.102784826,5.23833232 C0.105996852,5.2486108 0.113063309,5.25888928 0.116275335,5.26981017 C0.120129766,5.27944625 0.127196223,5.29357916 0.130408248,5.30385764 C0.133620274,5.3109241 0.137474705,5.32120258 0.143898757,5.32762663 C0.150965214,5.34175955 0.157389265,5.35203803 0.161243696,5.36552854 C0.164455722,5.372595 0.168310153,5.37966145 0.174734205,5.3860855 C0.181800662,5.40021842 0.188867118,5.4098545 0.19529117,5.42398741 C0.199145601,5.43105387 0.202357627,5.43747792 0.209424084,5.44454437 C0.216490541,5.45867729 0.226769023,5.46895577 0.23383548,5.48244628 C0.236405101,5.48887033 0.243471558,5.49593679 0.247325989,5.50300324 C0.25375004,5.51649375 0.264028523,5.52741464 0.274949411,5.54090515 C0.281373462,5.5473292 0.285227893,5.55439566 0.291651945,5.56146211 C0.298718402,5.5717406 0.308996884,5.58201908 0.315420936,5.59293997 C0.322487393,5.60257604 0.332765875,5.6096425 0.339832332,5.61992098 C0.346898789,5.62634504 0.353965246,5.63726592 0.360389298,5.64433238 C0.377734237,5.66103491 0.391224745,5.67773745 0.408569685,5.69572479 C0.425914624,5.71242733 0.442617159,5.72656024 0.460604503,5.74390518 C0.467028555,5.75032923 0.477307038,5.75675328 0.484373494,5.76381974 C0.494651977,5.7708862 0.501718434,5.78180709 0.511996916,5.78823114 C0.521632994,5.79850962 0.531911477,5.80557608 0.542189959,5.81200013 C0.549256416,5.81906659 0.556322873,5.82227861 0.56338933,5.82934507 C0.576879838,5.83962355 0.587158321,5.84669001 0.600648829,5.85696849 C0.607715286,5.86082292 0.614781743,5.86724697 0.6218482,5.870459 C0.635338708,5.87752546 0.645617191,5.88780394 0.659107699,5.89422799 C0.666174156,5.89808242 0.673240613,5.90129445 0.679664665,5.9083609 C0.693797578,5.91542736 0.704076061,5.92185141 0.717566569,5.92891787 C0.724633026,5.9327723 0.731699483,5.93598433 0.73876594,5.94240838 C0.752256448,5.94947483 0.762534931,5.95654129 0.776025439,5.95975332 C0.783091896,5.96360775 0.793370379,5.96681977 0.79979443,5.97324382 C0.810715318,5.98031028 0.824205827,5.98416471 0.834484309,5.98737674 C0.844762792,5.99123117 0.855041275,5.99765522 0.865319757,6.00086725 L0.89679761,6.01114573 C0.906433688,6.01500016 0.920566601,6.02206662 0.930845084,6.02463624 C0.941123567,6.02849067 0.948190023,6.03170269 0.957826101,6.03555713 C0.971959015,6.03876915 0.985449523,6.04583561 0.996370411,6.04969004 C1.00279446,6.05225966 1.01307295,6.05225966 1.0201394,6.05611409 L1.06125333,6.06639257 C1.06831979,6.070247 1.07538625,6.070247 1.08566473,6.07345903 C1.09915524,6.07667106 1.11650018,6.07988308 1.12999069,6.08373751 C1.13705714,6.08373751 1.1441236,6.08694954 1.15440208,6.08694954 C1.16789259,6.09080397 1.18459512,6.094016 1.19872804,6.094016 C1.20900652,6.094016 1.21607298,6.09722802 1.22635146,6.09722802 C1.23984197,6.10108245 1.25397488,6.10108245 1.26746539,6.10108245 C1.27774387,6.10108245 1.29187679,6.10365207 1.30151286,6.10365207 C1.31243375,6.10365207 1.32206983,6.1075065 1.33234831,6.1075065 C1.35675971,6.1075065 1.3805287,6.11071853 1.40108566,6.11071853 L18.512832,6.11071853 C19.2894999,6.11071853 19.9216266,5.48244628 19.9216266,4.70256641 C19.9216266,3.92654097 19.2927119,3.29377188 18.512832,3.29377188 L4.80197861,3.29377188 L5.69556419,2.4008287 C6.24482061,1.85092988 6.24482061,0.961841133 5.69556419,0.411942312 C5.14630778,-0.137314104 4.25593422,-0.137314104 3.7066778,0.411942312 L0.411781711,3.706196 C0.395079176,3.72354094 0.381588668,3.74088588 0.364243729,3.75823082 C0.357177272,3.76529727 0.350110815,3.77493335 0.343044358,3.78199981 C0.336620306,3.79227829 0.326341824,3.79934475 0.319275367,3.80962323 C0.308996884,3.81990171 0.301930428,3.82953779 0.295506376,3.84045868 C0.288439919,3.84752513 0.285227893,3.85459159 0.278161436,3.86101564 C0.267882954,3.87514856 0.260816497,3.88478463 0.250538014,3.89891755 C0.247325989,3.905984 0.240259532,3.91240806 0.236405101,3.91947451 C0.229981049,3.93360743 0.219702566,3.9432435 0.21263611,3.95737642 C0.209424084,3.96380047 0.206212058,3.97086693 0.199145601,3.97793338 C0.192079144,3.99142389 0.185012688,4.00170237 0.178588636,4.01519288 C0.174734205,4.02225934 0.171522179,4.0293258 0.164455722,4.03639225 C0.157389265,4.04988276 0.150965214,4.06016124 0.147753188,4.07365175 C0.143898757,4.08071821 0.140686731,4.0916391 0.133620274,4.09806315 C0.127196223,4.10834163 0.123341792,4.12247454 0.120129766,4.13211062 C0.116275335,4.14303151 0.109851283,4.15266759 0.105996852,4.16358848 L0.0963607747,4.19442392 C0.0925063438,4.20406 0.0854398869,4.21819291 0.0822278611,4.2291138 C0.0790158353,4.23874988 0.0751614043,4.24581634 0.0719493785,4.25609482 C0.0687373526,4.26958533 0.0616708958,4.28307584 0.05845887,4.29399672 C0.054604439,4.30042078 0.054604439,4.31069926 0.0513924132,4.31776571 L0.0411139306,4.35952205 C0.0379019047,4.3659461 0.0379019047,4.37301256 0.0379019047,4.37943661 C0.0340474737,4.39292712 0.0308354479,4.41091446 0.0269810169,4.42440497 C0.0269810169,4.43147143 0.0237689911,4.43853789 0.0237689911,4.44817396 C0.0205569653,4.46230688 0.0173449395,4.47900941 0.0173449395,4.49314232 C0.0173449395,4.50342081 0.0134905085,4.51048726 0.0134905085,4.52076575 C0.0102784826,4.53425626 0.0102784826,4.54838917 0.0102784826,4.56187968 C0.0102784826,4.57215816 0.00706645681,4.58564867 0.00706645681,4.59656956 C0.00706645681,4.60620563 0.00321202582,4.61712652 0.00321202582,4.63061703 C0.00321202582,4.65502843 0,4.67558539 0,4.69935438 C0,4.72312337 0,4.74753477 0.00321202582,4.76744933 C0,4.78543667 0.00321202582,4.79507275 0.00321202582,4.80599364" id="Fill-1" fill="#6A6E7E" mask="url(#mask-2)"></path>
                </g>
            </g>
        </g>
    </g>
</svg>