<?xml version="1.0" encoding="UTF-8"?>
<svg width="96px" height="96px" viewBox="0 0 96 96" version="1.1" xmlns="http://www.w3.org/2000/svg" xmlns:xlink="http://www.w3.org/1999/xlink">
    <title>ic_subscript_taobao</title>
    <defs>
        <linearGradient x1="0%" y1="0%" x2="100%" y2="100%" id="linearGradient-1">
            <stop stop-color="#FF3D00" offset="0%"></stop>
            <stop stop-color="#FF7100" offset="100%"></stop>
        </linearGradient>
        <polygon id="path-2" points="1.8189894e-12 -1.8189894e-12 40 -1.8189894e-12 40 31.4285714 1.8189894e-12 31.4285714"></polygon>
    </defs>
    <g id="页面-1" stroke="none" stroke-width="1" fill="none" fill-rule="evenodd">
        <g id="4-9我收藏的名片" transform="translate(-630.000000, -540.000000)">
            <g id="编组-3" transform="translate(24.000000, 540.000000)">
                <g id="ic_subscript_taobao" transform="translate(606.000000, 0.000000)">
                    <path d="M72,0 L0,0 L0,0 L96,96 L96,24 C96,10.745166 85.254834,-2.4348735e-15 72,0 Z" id="路径-3备份" fill="url(#linearGradient-1)"></path>
                    <g id="淘" transform="translate(67.000000, 29.714286) rotate(45.000000) translate(-67.000000, -29.714286) translate(47.000000, 14.000000)">
                        <mask id="mask-3" fill="white">
                            <use xlink:href="#path-2"></use>
                        </mask>
                        <g id="Clip-2"></g>
                        <path d="M4.18694781,8.70846249 L1.59885433,12.5131444 C1.59885433,12.5131444 7.16348204,15.3705467 7.62119723,17.6705272 C8.07866051,19.9705077 0,26.8758965 0,26.8758965 L5.76615338,31.2377407 C5.76615338,31.2377407 11.7343363,20.3707412 11.2766211,16.7992478 C10.8191578,13.227495 4.18694781,8.70846249 4.18694781,8.70846249 M12.9495361,5.37508592 C14.3959866,2.83698852 14.9322968,0.298891122 14.9322968,0.298891122 L19.1242828,2.0466377 L17.9040448,4.5038065 C17.9040448,4.5038065 18.2091043,4.82285196 19.2766866,4.66073536 C20.3442688,4.5038065 27.3553471,0.851125089 32.1524139,1.72733286 C37.0185032,2.61391609 40.0000756,6.56567019 40.0000756,9.6609299 L40.0000756,24.494728 C40.0000756,24.494728 39.4685516,29.0186888 35.7342808,30.6045782 C32.0000101,32.1902082 26.2877648,30.9996239 26.2877648,30.9996239 L26.5928243,28.5424551 C26.5928243,28.5424551 30.0220356,29.3379936 32.157452,28.6236431 C34.2928684,27.9092925 34.9027355,26.1664743 34.9027355,26.1664743 L34.9027355,8.47034563 C34.9027355,8.47034563 34.597676,6.64659879 32.6149153,5.37508592 C30.6321546,4.10357305 29.6431673,4.26568964 27.5080028,4.57954737 C25.3725863,4.89885221 22.0960308,6.4844822 22.0960308,6.4844822 L20.2656738,10.2131639 L32.6101291,10.2131639 L32.6101291,12.7512613 L25.0675268,12.7512613 L25.0675268,15.9227806 L32.9151885,15.9227806 L32.9151885,18.1467609 L25.2201825,18.4660658 L25.2201825,24.494728 L28.8758583,22.82791 L28.5707988,20.2086246 L31.5425468,19.575462 L33.7515201,25.6041242 L30.0958444,27.3518708 L29.6383811,25.2090785 C29.6383811,25.2090785 22.7207604,28.2436418 19.9457518,28.4817586 C17.1709952,28.7198755 14.4451085,28.0309448 13.1266268,26.080358 C11.8031069,24.1300305 12.1132045,20.2138123 12.1132045,20.2138123 L17.0430264,20.340393 C17.0430264,20.340393 16.6593719,22.569561 17.6284584,23.9829583 C18.5977969,25.3914273 20.7969459,25.0518903 20.7969459,25.0518903 L20.7969459,18.3088775 L13.1757487,18.0707607 L13.1757487,15.9279684 L20.8707547,15.9279684 L20.7969459,12.756449 L18.4353169,12.2802153 C18.4353169,12.2802153 16.4525561,15.4517346 15.1585094,15.3757344 C13.8647146,15.2945464 13.7120589,13.4707996 13.7120589,13.4707996 L17.9040448,8.07529992 L15.6162246,7.83718306 L12.1870133,12.0420984 L9.59413359,9.6609299 C9.59891982,9.6609299 11.5030855,7.91318332 12.9495361,5.37508592" id="Fill-1" fill="#FFFFFF" mask="url(#mask-3)"></path>
                        <path d="M7.29145084,7.09248427 C9.17092967,7.09248427 10.6962271,5.50685429 10.6962271,3.54615135 C10.6962271,1.59063615 9.17092967,-0.000181570587 7.29145084,-0.000181570587 C5.41197201,-0.000181570587 3.88667456,1.5857078 3.88667456,3.54615135 C3.88667456,5.50685429 5.41197201,7.09248427 7.29145084,7.09248427" id="路径" fill="#FDFF00" mask="url(#mask-3)"></path>
                    </g>
                </g>
            </g>
        </g>
    </g>
</svg>