<?xml version="1.0" encoding="UTF-8"?>
<svg width="32px" height="32px" viewBox="0 0 32 32" version="1.1" xmlns="http://www.w3.org/2000/svg" xmlns:xlink="http://www.w3.org/1999/xlink">
    <title>ic_storage</title>
    <g id="页面-1" stroke="none" stroke-width="1" fill="none" fill-rule="evenodd">
        <g id="1-0授权协议" transform="translate(-64.000000, -997.000000)">
            <g id="ic_storage" transform="translate(64.000000, 997.000000)">
                <rect id="矩形" fill="#D8D8D8" opacity="0" x="0" y="0" width="32" height="32"></rect>
                <path d="M19.7825286,4 C14.0331736,4 9.22963509,7.95281976 7.9240693,13.3055658 C7.81054184,13.3055658 7.69701438,13.3055658 7.56505713,13.2863988 C3.38518245,13.2863988 0,16.6715813 0,20.851456 C0,22.8566163 0.793955031,24.7851087 2.21231109,26.185035 C3.63066716,27.6033911 5.55989679,28.3973461 7.56505713,28.3973461 C9.56948028,28.3973461 11.4987099,27.6033911 12.917066,26.165868 C14.1091043,24.9745669 14.7703649,23.3859196 14.9598231,21.6269812 L12.2174714,21.4183561 C11.5938076,21.3431626 11.4043494,20.8706229 11.7825286,20.3789163 L16.4157759,14.6479912 C16.7946922,14.1562846 17.3048286,14.2130483 17.5510505,14.7806856 L20.1798747,21.2104681 C20.4253594,21.7972724 20.1231109,22.1946185 19.4987099,22.1186878 L17.45669,21.9292296 C17.2296351,24.0663472 16.2653889,25.9388131 14.9222263,27.4330999 C16.4541098,28.0950977 18.0995208,28.4349429 19.7825286,28.4349429 C26.5344637,28.4349429 32,22.9694066 32,16.2174714 C32,9.4662735 26.5344637,4 19.7825286,4" id="Fill-1" fill="#FFFFFF"></path>
            </g>
        </g>
    </g>
</svg>