<?xml version="1.0" encoding="UTF-8"?>
<svg width="40px" height="40px" viewBox="0 0 40 40" version="1.1" xmlns="http://www.w3.org/2000/svg" xmlns:xlink="http://www.w3.org/1999/xlink">
    <title>ic_safety</title>
    <g id="页面-1" stroke="none" stroke-width="1" fill="none" fill-rule="evenodd">
        <g id="5-1设置" transform="translate(-24.000000, -360.000000)">
            <g id="ic_safety" transform="translate(24.000000, 360.000000)">
                <polygon id="Fill-1" fill="#000000" opacity="0" points="0 40 40 40 40 0 0 0"></polygon>
                <g id="编组" transform="translate(3.999400, 2.453800)" fill="#FFFFFF">
                    <path d="M29.001,23.038 C29.001,23.727 28.646,24.369 28.061,24.734 L17.061,31.609 C16.412,32.015 15.589,32.015 14.941,31.609 L3.941,24.734 C3.356,24.369 3.001,23.727 3.001,23.038 L3.001,8.486 C3.001,7.611 3.569,6.838 4.404,6.577 L15.404,3.14 C15.793,3.018 16.209,3.018 16.597,3.14 L27.597,6.577 C28.432,6.838 29.001,7.611 29.001,8.486 L29.001,23.038 Z M29.194,3.933 L17.194,0.183 C16.417,-0.061 15.584,-0.061 14.808,0.183 L2.808,3.933 C1.138,4.454 0,6.001 0,7.75 L0,23.593 C0,24.972 0.711,26.254 1.881,26.984 L13.881,34.484 C15.178,35.295 16.824,35.295 18.121,34.484 L30.121,26.984 C31.29,26.254 32.001,24.972 32.001,23.593 L32.001,7.75 C32.001,6.001 30.864,4.454 29.194,3.933 L29.194,3.933 Z" id="Fill-2"></path>
                    <path d="M21.0005,18.0458 L11.0005,18.0458 C10.4505,18.0458 10.0005,17.5968 10.0005,17.0458 L10.0005,16.0458 C10.0005,15.4958 10.4505,15.0458 11.0005,15.0458 L21.0005,15.0458 C21.5505,15.0458 22.0005,15.4958 22.0005,16.0458 L22.0005,17.0458 C22.0005,17.5968 21.5505,18.0458 21.0005,18.0458" id="Fill-4"></path>
                    <path d="M14.5005,21.5458 L14.5005,11.5458 C14.5005,10.9958 14.9505,10.5458 15.5005,10.5458 L16.5005,10.5458 C17.0505,10.5458 17.5005,10.9958 17.5005,11.5458 L17.5005,21.5458 C17.5005,22.0968 17.0505,22.5458 16.5005,22.5458 L15.5005,22.5458 C14.9505,22.5458 14.5005,22.0968 14.5005,21.5458" id="Fill-6"></path>
                </g>
            </g>
        </g>
    </g>
</svg>