<?xml version="1.0" standalone="no"?><!DOCTYPE svg PUBLIC "-//W3C//DTD SVG 1.1//EN" "http://www.w3.org/Graphics/SVG/1.1/DTD/svg11.dtd"><svg t="1640317515124" class="icon" viewBox="0 0 1024 1024" version="1.1" xmlns="http://www.w3.org/2000/svg" p-id="2886" width="48" height="48" xmlns:xlink="http://www.w3.org/1999/xlink"><defs><style type="text/css"></style></defs><path d="M514.06 959.47c-37.42 0-74.74-4.71-111.03-14.15l-28.06-7.3 2.59-28.88c2.89-32.21-13.23-63.28-41.06-79.16-27.92-15.93-62.95-13.95-89.23 5.05l-23.44 16.95-20.62-20.29c-28.75-28.3-53.15-59.45-72.51-92.58-18.91-32.37-33.85-68.14-44.39-106.33l-7.7-27.87 26.19-12.25c29.2-13.65 47.96-43.09 47.8-75.01-0.17-32.26-19.47-61.65-49.18-74.86L76.92 431l7.28-28.08c19.52-75.35 58.98-144.71 114.1-200.58l20.29-20.57 23.68 16.55c26.42 18.47 61.31 20 88.87 3.9 27.75-16.21 43.55-47.53 40.24-79.77l-2.95-28.74 27.84-7.73c75.67-21 155.47-21.76 230.75-2.18l28.07 7.3-2.57 28.9c-2.89 32.21 13.23 63.28 41.06 79.16 27.92 15.93 62.95 13.95 89.23-5.05l23.45-16.95 20.62 20.29c28.76 28.3 53.15 59.45 72.51 92.58 18.91 32.37 33.85 68.14 44.39 106.33l7.7 27.87-26.19 12.25c-29.2 13.65-47.96 43.09-47.8 75 0.16 32.26 19.47 61.65 49.18 74.86l26.5 11.79-7.28 28.08c-19.52 75.35-58.98 144.71-114.1 200.58l-20.29 20.57-23.68-16.55c-26.43-18.47-61.31-20-88.87-3.9-27.75 16.21-43.55 47.53-40.24 79.77l2.95 28.74-27.84 7.73c-39.23 10.87-79.54 16.32-119.76 16.32z m-68.66-74.79c47.77 8.92 97.14 8.42 145.14-1.47 4.75-47.53 31.83-90.86 73.85-115.42 25.4-14.84 54.32-21.86 83.61-20.32 18.17 0.96 35.91 5.17 52.44 12.35 31.96-37.11 56.4-80.01 71.84-126.12-38.94-27.85-63.02-73.04-63.27-121.88-0.15-29.41 8.22-57.96 24.2-82.56A151.62 151.62 0 0 1 870.15 390c-8.04-23.26-18.05-45.19-29.89-65.45-12.2-20.88-26.84-40.89-43.68-59.73-43.54 19.68-94.64 17.9-136.93-6.22-25.62-14.62-46.2-36.21-59.51-62.44a151.54 151.54 0 0 1-15.47-51.71c-47.77-8.92-97.14-8.42-145.14 1.47-4.75 47.53-31.83 90.86-73.85 115.42-25.4 14.84-54.32 21.86-83.61 20.32-18.17-0.96-35.91-5.17-52.44-12.35-31.96 37.11-56.4 80.01-71.84 126.12 38.94 27.85 63.02 73.05 63.27 121.87 0.15 29.42-8.22 57.96-24.21 82.56a151.62 151.62 0 0 1-36.94 39.26c8.04 23.26 18.05 45.19 29.89 65.45 12.2 20.88 26.84 40.89 43.68 59.72 43.54-19.68 94.64-17.9 136.93 6.23 25.62 14.62 46.2 36.21 59.51 62.44a151.322 151.322 0 0 1 15.48 51.72z" fill="#231815" p-id="2887"></path><path d="M510.47 673.83c-14.27 0-28.64-1.84-42.81-5.56-43.28-11.36-79.56-38.9-102.13-77.54-22.57-38.64-28.75-83.76-17.39-127.04s38.9-79.55 77.54-102.13c38.64-22.57 83.76-28.75 127.04-17.39 43.29 11.36 79.55 38.9 102.13 77.54 22.58 38.64 28.75 83.76 17.39 127.04s-38.9 79.55-77.54 102.13c-25.99 15.18-54.91 22.95-84.23 22.95z m-0.45-266.73c-17.34 0-34.44 4.59-49.81 13.57-22.85 13.35-39.14 34.8-45.85 60.4s-3.07 52.28 10.28 75.13c13.35 22.85 34.8 39.14 60.4 45.86 25.6 6.72 52.28 3.07 75.13-10.28 22.85-13.35 39.14-34.8 45.85-60.4 6.72-25.6 3.07-52.28-10.28-75.13-13.35-22.85-34.8-39.14-60.4-45.85a99.23 99.23 0 0 0-25.32-3.3z" fill="#F7B52C" p-id="2888"></path></svg>