<?xml version="1.0" encoding="UTF-8"?>
<svg width="44px" height="44px" viewBox="0 0 44 44" version="1.1" xmlns="http://www.w3.org/2000/svg" xmlns:xlink="http://www.w3.org/1999/xlink">
    <title>ic_share</title>
    <defs>
        <polygon id="path-1" points="0 0 14 0 14 13.9996 0 13.9996"></polygon>
        <polygon id="path-3" points="0 0 39 0 39 38.9996 0 38.9996"></polygon>
    </defs>
    <g id="页面-1" stroke="none" stroke-width="1" fill="none" fill-rule="evenodd">
        <g id="2-5达人主页-向上滑动" transform="translate(-682.000000, -110.000000)">
            <g id="ic_share" transform="translate(682.000000, 110.000000)">
                <rect id="矩形" fill="#D8D8D8" opacity="0" x="0" y="0" width="44" height="44"></rect>
                <g id="编组" transform="translate(3.000000, 3.000000)">
                    <g transform="translate(25.000000, 0.000000)">
                        <mask id="mask-2" fill="white">
                            <use xlink:href="#path-1"></use>
                        </mask>
                        <g id="Clip-2"></g>
                        <path d="M10,5.9996 L10,12.9996 C10,13.5526 10.448,13.9996 11,13.9996 L13,13.9996 C13.552,13.9996 14,13.5526 14,12.9996 L14,3.9996 C14,1.7906 12.209,-0.0004 10,-0.0004 L1,-0.0004 C0.448,-0.0004 0,0.4476 0,0.9996 L0,2.9996 C0,3.5526 0.448,3.9996 1,3.9996 L8,3.9996 C9.104,3.9996 10,4.8956 10,5.9996" id="Fill-1" fill="#FFFFFF" mask="url(#mask-2)"></path>
                    </g>
                    <g>
                        <mask id="mask-4" fill="white">
                            <use xlink:href="#path-3"></use>
                        </mask>
                        <g id="Clip-4"></g>
                        <path d="M35,22.9996 L35,32.9996 C35,34.1036 34.104,34.9996 33,34.9996 L6,34.9996 C4.896,34.9996 4,34.1036 4,32.9996 L4,5.9996 C4,4.8956 4.896,3.9996 6,3.9996 L16,3.9996 C16.552,3.9996 17,3.5526 17,2.9996 L17,0.9996 C17,0.4476 16.552,-0.0004 16,-0.0004 L4,-0.0004 C1.791,-0.0004 0,1.7906 0,3.9996 L0,34.9996 C0,37.2096 1.791,38.9996 4,38.9996 L35,38.9996 C37.209,38.9996 39,37.2096 39,34.9996 L39,22.9996 C39,22.4476 38.552,21.9996 38,21.9996 L36,21.9996 C35.448,21.9996 35,22.4476 35,22.9996" id="Fill-3" fill="#FFFFFF" mask="url(#mask-4)"></path>
                    </g>
                    <path d="M16.4951,23.9195 L15.0811,22.5045 C14.6921,22.1155 14.6921,21.4805 15.0811,21.0905 L34.8801,1.2915 C35.2691,0.9025 35.9051,0.9025 36.2941,1.2915 L37.7081,2.7055 C38.0971,3.0955 38.0971,3.7315 37.7081,4.1195 L17.9091,23.9195 C17.5201,24.3085 16.8841,24.3085 16.4951,23.9195" id="Fill-5" fill="#FFFFFF"></path>
                </g>
            </g>
        </g>
    </g>
</svg>