<?xml version="1.0" encoding="UTF-8"?>
<svg width="96px" height="96px" viewBox="0 0 96 96" version="1.1" xmlns="http://www.w3.org/2000/svg" xmlns:xlink="http://www.w3.org/1999/xlink">
    <title>ic_subscript_xiaohongshu</title>
    <g id="页面-1" stroke="none" stroke-width="1" fill="none" fill-rule="evenodd">
        <g id="4-9我收藏的名片" transform="translate(-630.000000, -200.000000)">
            <g id="编组-4" transform="translate(24.000000, 200.000000)">
                <g id="ic_subscript_xiaohongshu" transform="translate(606.000000, 0.000000)">
                    <path d="M72,0 L0,0 L0,0 L96,96 L96,24 C96,10.745166 85.254834,-2.4348735e-15 72,0 Z" id="路径-3" fill="#FF0000"></path>
                    <g id="编组" transform="translate(62.666667, 32.000000) rotate(45.000000) translate(-62.666667, -32.000000) translate(30.000000, 20.000000)" fill="#FFFFFF">
                        <g id="小" transform="translate(0.000000, 0.277963)">
                            <path d="M5.64323567,18.8526173 L8.06775783,18.8526173 L8.06775783,-1.24375344e-13 L12.5353987,-1.24375344e-13 L12.5353987,18.8526173 C12.3814444,21.0771886 11.2504204,22.1894742 9.14232652,22.1894742 C7.03423267,22.1894742 5.86786905,21.0771886 5.64323567,18.8526173 Z" id="路径-20"></path>
                            <path d="M1.08060164,5.57542809 L5.45102205,5.57542809 C5.2609438,13.6920554 4.34450817,18.5416868 2.70171517,20.1243222 C1.67712675,18.4736803 0.776555023,16.9156628 1.74902827e-13,15.4502698 C0.404689447,14.9583131 0.675372022,14.1183323 0.812047725,12.9303274 C0.948723427,11.7423225 1.0382414,9.29068937 1.08060164,5.57542809 Z" id="路径-21"></path>
                            <path d="M15.2648164,5.57542809 L19.4396462,5.57542809 C19.4669457,11.2347707 19.8298321,14.4535456 20.5283054,15.231753 C19.9369536,16.6753397 18.1993688,19.7309817 17.9466973,20.0522955 C17.7026521,19.8809109 16.5532464,18.887389 16.0424396,16.0222903 C15.7564142,14.4179828 15.4972064,10.9356954 15.2648164,5.57542809 Z" id="路径-22"></path>
                        </g>
                        <g id="红" transform="translate(19.703641, 0.000000)">
                            <path d="M5.3597986,9.71682374e-16 L9.94151079,9.71682374e-16 L6.95057089,5.85339117 L11.1817675,5.85339117 L7.89639453,13.0918249 L10.7948741,13.1278382 L8.90720565,16.7518023 L3.81722919,16.7518023 C3.13749412,16.7518023 2.58645996,16.2007681 2.58645996,15.5210331 C2.58645996,15.3459315 2.62382278,15.1728455 2.69605289,15.0133357 C3.49485507,13.2492964 4.29365725,11.4852571 5.09245942,9.72121781 C4.099259,9.72121781 3.10605857,9.72121781 2.11285815,9.72121781 C1.65970143,9.72121781 1.29234533,9.3538617 1.29234533,8.90070498 C1.29234533,8.78084254 1.31860631,8.66243556 1.36928124,8.5538121 L5.3597986,9.71682374e-16 L5.3597986,9.71682374e-16 Z" id="路径-23"></path>
                            <polygon id="路径-24" points="2.2374337 18.1735649 8.94731695 18.1735649 6.78483635 22.4674373 -2.48750688e-13 22.4674373"></polygon>
                            <path d="M22.0404906,1.36934607 L22.0404906,5.74541445 L19.305317,5.74534607 L19.305317,18.1733461 L23.0398984,18.1735649 L23.0398984,22.4674373 L8.94731695,22.4674373 L11.1817675,18.1735649 L14.382317,18.1733461 L14.382317,5.74534607 L12.1943368,5.74541445 L12.1943368,1.36934607 L22.0404906,1.36934607 Z" id="形状结合"></path>
                        </g>
                        <g id="书" transform="translate(42.743540, 0.000000)">
                            <path d="M8.25025847,0 L8.25025847,1.71644101 L11.7299644,1.71644101 C13.5425912,1.71644101 15.0120157,3.18586543 15.0120157,4.9984923 L15.0120157,9.32263666 L16.9166984,9.32263666 C18.7293253,9.32263666 20.1987497,10.7920611 20.1987497,12.6046879 L20.1987497,19.5161791 C20.1987497,21.328806 18.7293253,22.7982304 16.9166984,22.7982304 L14.0666997,22.7982304 C12.7072295,22.7982304 11.6051612,21.6961621 11.6051612,20.336692 L11.6051612,18.8736196 L15.6610717,18.8736196 L15.6610717,13.0918249 L7.86190597,13.0918249 L7.86190597,22.7982304 L3.84758851,22.7982304 L3.84758851,13.0918249 L0,13.0918249 L0,9.32263666 L3.84758851,9.32263666 L3.84758851,5.85339117 L1.29003268,5.74541445 L1.29003268,1.71644101 L3.84758851,1.71644101 L3.84758851,0 L8.25025847,0 Z M11.0347802,5.74541445 L7.75272897,5.74541445 L7.75272897,9.57447428 L11.0347802,9.57447428 L11.0347802,5.74541445 Z" id="形状结合"></path>
                            <path d="M17.8723871,5.74541445 C19.2318572,5.74541445 20.3339255,4.64334614 20.3339255,3.28387599 C20.3339255,1.92440584 19.2318572,0.822337527 17.8723871,0.822337527 C16.5129169,0.822337527 15.4108486,1.92440584 15.4108486,3.28387599 C15.4108486,3.90058905 15.4126227,4.76625903 15.4108486,5.74541445 C16.1196551,5.74541445 17.12963,5.74541445 17.8723871,5.74541445 Z" id="椭圆形"></path>
                        </g>
                    </g>
                </g>
            </g>
        </g>
    </g>
</svg>