<?xml version="1.0" encoding="UTF-8"?>
<svg width="44px" height="44px" viewBox="0 0 44 44" version="1.1" xmlns="http://www.w3.org/2000/svg" xmlns:xlink="http://www.w3.org/1999/xlink">
    <title>ic_settings</title>
    <defs>
        <polygon id="path-1" points="1.77635684e-15 0 43.99995 0 43.99995 39.9996 1.77635684e-15 39.9996"></polygon>
    </defs>
    <g id="页面-1" stroke="none" stroke-width="1" fill="none" fill-rule="evenodd">
        <g id="4-3我的-已审核" transform="translate(-682.000000, -110.000000)">
            <g id="ic_settings" transform="translate(682.000000, 110.000000)">
                <rect id="矩形" fill="#D8D8D8" opacity="0" x="0" y="0" width="44" height="44"></rect>
                <g id="编组" transform="translate(0.000000, 2.000000)">
                    <g>
                        <mask id="mask-2" fill="white">
                            <use xlink:href="#path-1"></use>
                        </mask>
                        <g id="Clip-2"></g>
                        <path d="M39.90775,21.0006 L31.82075,35.0006 C31.46275,35.6186 30.80275,35.9996 30.08875,35.9996 L13.91075,35.9996 C13.19675,35.9996 12.53675,35.6186 12.17975,35.0006 L4.09175,21.0006 C3.73475,20.3816 3.73475,19.6186 4.09175,18.9996 L12.17975,4.9996 C12.53675,4.3806 13.19675,3.9996 13.91075,3.9996 L30.08875,3.9996 C30.80275,3.9996 31.46275,4.3806 31.82075,4.9996 L39.90775,18.9996 C40.26575,19.6186 40.26575,20.3816 39.90775,21.0006 M43.48275,18.0326 L34.44575,2.0326 C33.73575,0.7766 32.40475,-0.0004 30.96275,-0.0004 L13.03775,-0.0004 C11.59475,-0.0004 10.26375,0.7766 9.55475,2.0326 L0.51675,18.0326 C-0.17225,19.2536 -0.17225,20.7466 0.51675,21.9676 L9.55475,37.9676 C10.26375,39.2236 11.59475,39.9996 13.03775,39.9996 L30.96275,39.9996 C32.40475,39.9996 33.73575,39.2236 34.44575,37.9676 L43.48275,21.9676 C44.17275,20.7466 44.17275,19.2536 43.48275,18.0326" id="Fill-1" fill="#FFFFFF" mask="url(#mask-2)"></path>
                    </g>
                    <path d="M22.00005,10.9997 C17.02905,10.9997 13.00005,15.0287 13.00005,19.9997 C13.00005,24.9707 17.02905,28.9997 22.00005,28.9997 C26.97105,28.9997 31.00005,24.9707 31.00005,19.9997 C31.00005,15.0287 26.97105,10.9997 22.00005,10.9997 M22.00005,14.9997 C24.75705,14.9997 27.00005,17.2427 27.00005,19.9997 C27.00005,22.7577 24.75705,24.9997 22.00005,24.9997 C19.24305,24.9997 17.00005,22.7577 17.00005,19.9997 C17.00005,17.2427 19.24305,14.9997 22.00005,14.9997" id="Fill-3" fill="#FFFFFF"></path>
                </g>
            </g>
        </g>
    </g>
</svg>