<?xml version="1.0" encoding="UTF-8"?>
<svg width="28px" height="28px" viewBox="0 0 28 28" version="1.1" xmlns="http://www.w3.org/2000/svg" xmlns:xlink="http://www.w3.org/1999/xlink">
    <title>ic_select</title>
    <defs>
        <polygon id="path-1" points="2.09062325e-15 0 11.0162304 0 11.0162304 11.0159362 2.09062325e-15 11.0159362"></polygon>
        <polygon id="path-3" points="0 0 8.51910834 0 8.51910834 8.5189318 0 8.5189318"></polygon>
    </defs>
    <g id="页面-1" stroke="none" stroke-width="1" fill="none" fill-rule="evenodd">
        <g id="1-1登录-勾选后" transform="translate(-40.000000, -1116.000000)">
            <g id="ic_select" transform="translate(40.000000, 1116.000000)">
                <g id="勾选" fill="#FFFFFF">
                    <circle id="椭圆形" cx="14" cy="14" r="14"></circle>
                </g>
                <g id="编组" transform="translate(6.000000, 9.000000)">
                    <g transform="translate(4.983770, 0.000000)">
                        <mask id="mask-2" fill="white">
                            <use xlink:href="#path-1"></use>
                        </mask>
                        <g id="Clip-2"></g>
                        <path d="M0.514606634,10.5015061 L0.514606634,10.5015061 C1.20074881,11.1876483 2.32470384,11.1876483 3.01202294,10.5015061 L10.5007411,3.01161101 C11.1880602,2.32546884 11.1880602,1.20151381 10.5007411,0.51537163 C9.81459891,-0.171947465 8.6918208,-0.171947465 8.0045017,0.51537163 L0.514606634,8.00408978 C-0.171535545,8.69140888 -0.171535545,9.81418699 0.514606634,10.5015061" id="Fill-1" fill="#121212" mask="url(#mask-2)"></path>
                    </g>
                    <g transform="translate(-0.000000, 2.497004)">
                        <mask id="mask-4" fill="white">
                            <use xlink:href="#path-3"></use>
                        </mask>
                        <g id="Clip-4"></g>
                        <path d="M8.0045017,8.0045017 L8.0045017,8.0045017 C8.69064388,7.31718261 8.69064388,6.1944045 8.0045017,5.5070854 L3.01084602,0.514606634 C2.32470384,-0.171535545 1.20074881,-0.171535545 0.514606634,0.514606634 C-0.171535545,1.20074881 -0.171535545,2.32470384 0.514606634,3.01084602 L5.50826232,8.0045017 C6.1944045,8.69064388 7.31835953,8.69064388 8.0045017,8.0045017" id="Fill-3" fill="#121212" mask="url(#mask-4)"></path>
                    </g>
                </g>
            </g>
        </g>
    </g>
</svg>