<?xml version="1.0" standalone="no"?><!DOCTYPE svg PUBLIC "-//W3C//DTD SVG 1.1//EN" "http://www.w3.org/Graphics/SVG/1.1/DTD/svg11.dtd"><svg t="1651112624768" class="icon" viewBox="0 0 1024 1024" version="1.1" xmlns="http://www.w3.org/2000/svg" p-id="38360" xmlns:xlink="http://www.w3.org/1999/xlink" width="48" height="48"><defs><style type="text/css"></style></defs><path d="M504.3712 509.5936m-450.816 0a450.816 450.816 0 1 0 901.632 0 450.816 450.816 0 1 0-901.632 0Z" fill="#59ADF8" p-id="38361"></path><path d="M143.0528 584.8576l183.808 69.0688a11.264 11.264 0 0 0 11.6224-2.304l279.7568-261.4272c0.9216-0.8704 2.3552 0.4096 1.536 1.4336l-213.8624 272.0768c-4.6592 5.9392-2.2528 14.6944 4.8128 17.408l231.9872 88.8832c6.5536 2.5088 13.7216-1.536 15.0528-8.3968l102.2976-536.7296c1.792-9.472-8.3456-16.64-16.6912-11.776L141.312 564.6848c-8.1408 4.7616-7.1168 16.8448 1.7408 20.1728zM399.2576 714.7008l54.4768 23.7568c7.3216 3.1744 9.0624 12.8512 3.2768 18.3808l-54.4768 52.4288c-7.1168 6.8608-18.9952 1.792-18.9952-8.0896V724.992c0-8.0896 8.2944-13.5168 15.7184-10.2912z" fill="#FFFFFF" p-id="38362"></path></svg>