<?xml version="1.0" encoding="UTF-8"?>
<svg width="40px" height="40px" viewBox="0 0 40 40" version="1.1" xmlns="http://www.w3.org/2000/svg" xmlns:xlink="http://www.w3.org/1999/xlink">
    <title>ic_tiktok</title>
    <g id="页面-1" stroke="none" stroke-width="1" fill="none" fill-rule="evenodd">
        <g id="2-1首页-探索" transform="translate(-462.000000, -1251.000000)">
            <g id="ic_tiktok" transform="translate(462.000000, 1251.000000)">
                <path d="M20,0 C8.954305,0 0,8.954305 0,20 C0,31.045695 8.954305,40 20,40 C31.045695,40 40,31.045695 40,20 C40,8.954305 31.045695,0 20,0 Z" id="路径" fill="#280A1F" fill-rule="nonzero"></path>
                <g id="编组" transform="translate(8.750000, 7.500000)">
                    <path d="M15.870502,1.14478712 L11.9028907,1.14478712 L11.9028907,17.1734097 C11.9028907,19.0739463 10.3781943,20.6081145 8.50208097,20.6081145 C6.6202996,20.6081145 5.10127126,19.0739463 5.10127126,17.1734097 C5.10127126,15.2785975 6.6202996,13.7387048 8.50208097,13.7387048 C8.89884211,13.7387048 9.27859919,13.8073989 9.63568421,13.9396351 L9.63568421,9.82314132 C9.26726316,9.76017174 8.88750607,9.73154919 8.50208097,9.73154919 C4.43244534,9.73154919 1.13365992,13.0632129 1.13365992,17.1734097 C1.13365992,21.2836064 4.43244534,24.6152701 8.50208097,24.6152701 C12.5717166,24.6152701 15.870502,21.2836064 15.870502,17.1734097 L15.870502,9.01026118 C17.4575466,10.1837853 19.4186802,10.8764508 21.5385182,10.8764508 L21.5385182,6.86929517 C18.4092065,6.86929517 15.870502,4.30528801 15.870502,1.14478712" id="Fill-1" fill="#FF004A"></path>
                    <path d="M14.7368988,-0.000114490161 L10.7692874,-0.000114490161 L10.7692874,16.0285081 C10.7692874,17.9290447 9.24459109,19.4632129 7.36847773,19.4632129 C5.48669636,19.4632129 3.96766802,17.9290447 3.96766802,16.0285081 C3.96766802,14.1336959 5.48669636,12.5938032 7.36847773,12.5938032 C7.76523887,12.5938032 8.14499595,12.6624973 8.50208097,12.7947335 L8.50208097,8.67823971 C8.13365992,8.61527013 7.75390283,8.58664758 7.36847773,8.58664758 C3.29884211,8.58664758 5.66801619e-05,11.9183113 5.66801619e-05,16.0285081 C5.66801619e-05,20.1387048 3.29884211,23.4703685 7.36847773,23.4703685 C11.4381134,23.4703685 14.7368988,20.1387048 14.7368988,16.0285081 L14.7368988,7.86535957 C16.3239433,9.03888372 18.2850769,9.73154919 20.404915,9.73154919 L20.404915,5.72439356 C17.2756032,5.72439356 14.7368988,3.1603864 14.7368988,-0.000114490161" id="Fill-3" fill="#4BF2EE"></path>
                    <path d="M20.404915,6.75469052 L20.404915,9.7314347 C18.2850769,9.7314347 16.3239433,9.03876923 14.7368988,7.86524508 L14.7368988,16.0283936 C14.7368988,20.1385903 11.4381134,23.470254 7.36847773,23.470254 C5.62272874,23.470254 4.02434818,22.8577317 2.76038057,21.8336172 C1.74580567,20.5564794 1.13365992,18.9364436 1.13365992,17.1732952 C1.13365992,13.0636708 4.43244534,9.7314347 8.50208097,9.7314347 L8.50208097,12.794619 C8.14499595,12.6623828 7.76523887,12.5936887 7.36847773,12.5936887 C5.48669636,12.5936887 3.96766802,14.1341538 3.96766802,16.0283936 C3.96766802,17.2763363 4.61948988,18.3639928 5.6057247,18.9650662 C6.19519838,19.950254 7.27212146,20.608 8.50208097,20.608 C10.3781943,20.608 11.9028907,19.0744043 11.9028907,17.1732952 L11.9028907,1.14467263 L14.8502591,1.14467263 C15.1336599,2.54202504 15.9158462,3.74932379 16.9984372,4.56850089 C17.0041053,4.57937746 17.0097733,4.57937746 17.0154413,4.58510197 C17.8259676,5.67848301 19.021919,6.46846512 20.404915,6.75469052" id="Fill-5" fill="#FFFFFF"></path>
                </g>
            </g>
        </g>
    </g>
</svg>