<?xml version="1.0" encoding="UTF-8"?>
<svg width="112px" height="112px" viewBox="0 0 112 112" version="1.1" xmlns="http://www.w3.org/2000/svg" xmlns:xlink="http://www.w3.org/1999/xlink">
    <title>ic_tiktok</title>
    <defs>
        <path d="M20.5110816,7.81618931e-17 L91.4889184,-2.27113894e-15 C98.6210683,1.31959713e-15 101.207358,0.742604889 103.814766,2.13706163 C106.422173,3.53151837 108.468482,5.57782696 109.862938,8.18523437 C111.257395,10.7926418 112,13.3789317 112,20.5110816 L112,91.4889184 C112,98.6210683 111.257395,101.207358 109.862938,103.814766 C108.468482,106.422173 106.422173,108.468482 103.814766,109.862938 C101.207358,111.257395 98.6210683,112 91.4889184,112 L20.5110816,112 C13.3789317,112 10.7926418,111.257395 8.18523437,109.862938 C5.57782696,108.468482 3.53151837,106.422173 2.13706163,103.814766 C0.742604889,101.207358 2.12206786e-15,98.6210683 -3.65225935e-15,91.4889184 L1.4592823e-15,20.5110816 C-8.47885043e-16,13.3789317 0.742604889,10.7926418 2.13706163,8.18523437 C3.53151837,5.57782696 5.57782696,3.53151837 8.18523437,2.13706163 C10.7926418,0.742604889 13.3789317,-4.54143108e-17 20.5110816,7.81618931e-17 Z" id="path-1"></path>
    </defs>
    <g id="页面-1" stroke="none" stroke-width="1" fill="none" fill-rule="evenodd">
        <g id="2-3达人主页-达人名片" transform="translate(-49.000000, -1536.000000)">
            <g id="ic_tiktok" transform="translate(49.000000, 1536.000000)">
                <mask id="mask-2" fill="white">
                    <use xlink:href="#path-1"></use>
                </mask>
                <use id="蒙版" fill="#280A1F" xlink:href="#path-1"></use>
                <g id="编组" mask="url(#mask-2)">
                    <g transform="translate(20.000000, 16.000000)">
                        <path d="M50.7856065,3.66331878 L38.0892502,3.66331878 L38.0892502,54.9549109 C38.0892502,61.0366283 33.2102219,65.9459664 27.2066591,65.9459664 C21.1849587,65.9459664 16.324068,61.0366283 16.324068,54.9549109 C16.324068,48.891512 21.1849587,43.9638555 27.2066591,43.9638555 C28.4762947,43.9638555 29.6915174,44.1836766 30.8341895,44.6068322 L30.8341895,31.4340522 C29.6552421,31.2325496 28.4400194,31.1409574 27.2066591,31.1409574 C14.1838251,31.1409574 3.62771174,41.8022812 3.62771174,54.9549109 C3.62771174,68.1075406 14.1838251,78.7688644 27.2066591,78.7688644 C40.2294931,78.7688644 50.7856065,68.1075406 50.7856065,54.9549109 L50.7856065,28.8328358 C55.864149,32.5881131 62.1397765,34.8046426 68.9232583,34.8046426 L68.9232583,21.9817445 C58.9094607,21.9817445 50.7856065,13.7769216 50.7856065,3.66331878" id="Fill-1" fill="#FF004A"></path>
                        <path d="M47.1580761,-0.000366368515 L34.4617198,-0.000366368515 L34.4617198,51.2912258 C34.4617198,57.3729431 29.5826915,62.2822812 23.5791287,62.2822812 C17.5574283,62.2822812 12.6965377,57.3729431 12.6965377,51.2912258 C12.6965377,45.2278268 17.5574283,40.3001703 23.5791287,40.3001703 C24.8487644,40.3001703 26.063987,40.5199914 27.2066591,40.943147 L27.2066591,27.7703671 C26.0277117,27.5688644 24.8124891,27.4772723 23.5791287,27.4772723 C10.5562947,27.4772723 0.000181376518,38.1385961 0.000181376518,51.2912258 C0.000181376518,64.4438555 10.5562947,75.1051792 23.5791287,75.1051792 C36.6019628,75.1051792 47.1580761,64.4438555 47.1580761,51.2912258 L47.1580761,25.1691506 C52.2366186,28.9244279 58.5122462,31.1409574 65.2957279,31.1409574 L65.2957279,18.3180594 C55.2819304,18.3180594 47.1580761,10.1132365 47.1580761,-0.000366368515" id="Fill-3" fill="#4BF2EE"></path>
                        <path d="M65.2957279,21.6150097 L65.2957279,31.1405911 C58.5122462,31.1405911 52.2366186,28.9240615 47.1580761,25.1687843 L47.1580761,51.2908594 C47.1580761,64.4434891 36.6019628,75.1048129 23.5791287,75.1048129 C17.992732,75.1048129 12.8779142,73.1447413 8.83321781,69.867575 C5.58657814,65.7807342 3.62771174,60.5966197 3.62771174,54.9545445 C3.62771174,41.8037467 14.1838251,31.1405911 27.2066591,31.1405911 L27.2066591,40.9427807 C26.063987,40.519625 24.8487644,40.2998039 23.5791287,40.2998039 C17.5574283,40.2998039 12.6965377,45.2292923 12.6965377,51.2908594 C12.6965377,55.2842762 14.7823676,58.7647771 17.938319,60.6882118 C19.8246348,63.8408129 23.2707887,65.9456 27.2066591,65.9456 C33.2102219,65.9456 38.0892502,61.0380937 38.0892502,54.9545445 L38.0892502,3.66295242 L47.5208291,3.66295242 C48.4277117,8.13448014 50.9307077,11.9978361 54.3949992,14.6192029 C54.4131368,14.6540079 54.4312745,14.6540079 54.4494121,14.6723263 C57.0430964,18.1711456 60.8701409,20.6990884 65.2957279,21.6150097" id="Fill-5" fill="#FFFFFF"></path>
                    </g>
                </g>
            </g>
        </g>
    </g>
</svg>