<?xml version="1.0" encoding="UTF-8"?>
<svg width="63px" height="34px" viewBox="0 0 63 34" version="1.1" xmlns="http://www.w3.org/2000/svg" xmlns:xlink="http://www.w3.org/1999/xlink">
    <title>ic_logo_zhenxiang</title>
    <g id="页面-1" stroke="none" stroke-width="1" fill="none" fill-rule="evenodd">
        <g id="2-8达人主页-海报已生成-1个平台" transform="translate(-206.000000, -478.000000)" fill="#FFFFFF">
            <g id="ic_logo_zhenxiang" transform="translate(206.000000, 478.000000)">
                <path d="M26.1218817,5.14767215 L3.16472345,5.14767215 C2.20208705,5.14767215 1.42159177,4.37459223 1.42159177,3.42100678 C1.42159177,2.46732643 2.20208705,1.6942465 3.16472345,1.6942465 L26.1218817,1.6942465 C27.0847097,1.6942465 27.8651092,2.46732643 27.8651092,3.42100678 C27.8651092,4.37459223 27.0847097,5.14767215 26.1218817,5.14767215" id="Fill-3"></path>
                <path d="M16.3866354,1.72666537 L16.3866354,7.10472408 C16.3866354,8.05840443 15.6061402,8.83138945 14.643408,8.83138945 C13.6805799,8.83138945 12.9000846,8.05840443 12.9000846,7.10472408 L12.9000846,1.72666537 C12.9000846,0.773079924 13.6805799,0 14.643408,0 C15.6061402,0 16.3866354,0.773079924 16.3866354,1.72666537" id="Fill-5"></path>
                <path d="M17.3311056,15.0704557 L6.77870596,15.0704557 C5.81587793,15.0704557 5.03547846,14.2973758 5.03547846,13.3437903 C5.03547846,12.39011 5.81587793,11.6170301 6.77870596,11.6170301 L17.3311056,11.6170301 C18.2938379,11.6170301 19.0743331,12.39011 19.0743331,13.3437903 C19.0743331,14.2973758 18.2938379,15.0704557 17.3311056,15.0704557" id="Fill-7"></path>
                <path d="M18.3941256,14.7486776 L8.20351705,22.5296805 C7.48137208,23.0809721 6.4814643,22.8970501 5.969917,22.1189403 C5.4583697,21.3408305 5.62901322,20.2631119 6.35106238,19.7118203 L16.541671,11.9309123 C17.2636243,11.3796207 18.2637237,11.5634478 18.775271,12.3415576 C19.2867225,13.1196674 19.116079,14.197386 18.3941256,14.7486776" id="Fill-9"></path>
                <path d="M18.7663412,23.1258138 L6.46898941,23.1258138 C5.60523235,23.1258138 4.90502863,22.4322626 4.90502863,21.5767119 L4.90502863,21.2215849 C4.90502863,20.3659393 5.60523235,19.6723881 6.46898941,19.6723881 L18.7663412,19.6723881 C19.6300983,19.6723881 20.330302,20.3659393 20.330302,21.2215849 L20.330302,21.5767119 C20.330302,22.4322626 19.6300983,23.1258138 18.7663412,23.1258138" id="Fill-11"></path>
                <path d="M27.5434543,28.5778304 L1.74332331,28.5778304 C0.780495281,28.5778304 0,27.8047505 0,26.851165 C0,25.8974847 0.780495281,25.1244047 1.74332331,25.1244047 L27.5434543,25.1244047 C28.5061865,25.1244047 29.2866818,25.8974847 29.2866818,26.851165 C29.2866818,27.8047505 28.5061865,28.5778304 27.5434543,28.5778304" id="Fill-13"></path>
                <path d="M21.5779255,6.28292095 C23.9598334,6.28292095 25.8945703,8.1660857 25.9725471,10.5120649 L25.9749903,10.6592784 L25.9749903,25.3119236 L22.4875772,25.3119236 L22.4875772,10.6592784 C22.4875772,10.1754363 22.1214937,9.78304765 21.6602535,9.74094225 L21.5779255,9.73720072 L7.70875624,9.73720072 C7.23729439,9.73720072 6.84507026,10.102676 6.80294493,10.574891 L6.79920042,10.6592784 L6.79920042,25.18333 L3.31178731,25.18333 L3.31178731,10.6592784 C3.31178731,8.29463257 5.19782063,6.3632089 7.56048204,6.28536014 L7.70875624,6.28292095 L21.5779255,6.28292095 Z" id="Stroke-15" fill-rule="nonzero"></path>
                <path d="M9.45824455,25.9719403 C10.2971814,25.5040527 11.3602103,25.7983861 11.8325859,26.6293524 C12.2867932,27.4283584 12.0295247,28.4325816 11.263251,28.924598 L11.1688679,28.9811355 L2.60842712,33.7554212 C1.76949022,34.2233089 0.706461403,33.9289755 0.234085797,33.0980092 C-0.220121518,32.2990031 0.0371469883,31.2947799 0.803420626,30.8027635 L0.897803729,30.7462261 L9.45824455,25.9719403 Z" id="Stroke-19" fill-rule="nonzero"></path>
                <path d="M17.4255339,26.6293524 C17.8797413,25.8303463 18.8800407,25.5274875 19.7021267,25.9213231 L19.7998753,25.9719403 L28.3603161,30.7462261 C29.199253,31.2141137 29.4964096,32.2670429 29.024034,33.0980092 C28.5698267,33.8970152 27.5695273,34.199874 26.7474412,33.8060384 L26.6496927,33.7554212 L18.0892519,28.9811355 C17.250315,28.5132478 16.9531583,27.4603187 17.4255339,26.6293524 Z" id="Stroke-22" fill-rule="nonzero"></path>
                <path d="M57.5770967,4.10128105 L38.3528253,4.10128105 C37.380895,4.10128105 36.5928305,3.32079869 36.5928305,2.35800765 L36.5928305,2.22637718 C36.5928305,1.26358613 37.380895,0.483103775 38.3528253,0.483103775 L57.5770967,0.483103775 C58.5491228,0.483103775 59.3370915,1.26358613 59.3370915,2.22637718 L59.3370915,2.35800765 C59.3370915,3.32079869 58.5491228,4.10128105 57.5770967,4.10128105" id="Fill-23"></path>
                <path d="M49.7283572,3.10137344 L49.7283572,12.8492413 C49.7283572,13.8139304 48.9388554,14.5959312 47.9650089,14.5959312 C46.9910665,14.5959312 46.2015648,13.8139304 46.2015648,12.8492413 L46.2015648,3.10137344 C46.2015648,2.13668434 46.9910665,1.35468353 47.9650089,1.35468353 C48.9388554,1.35468353 49.7283572,2.13668434 49.7283572,3.10137344" id="Fill-25"></path>
                <path d="M60.2118671,9.30496496 L35.7180549,9.30496496 C34.7517776,9.30496496 33.9685995,8.52913285 33.9685995,7.57203599 C33.9685995,6.61493913 34.7517776,5.83910702 35.7180549,5.83910702 L60.2118671,5.83910702 C61.1781444,5.83910702 61.9614183,6.61493913 61.9614183,7.57203599 C61.9614183,8.52913285 61.1781444,9.30496496 60.2118671,9.30496496" id="Fill-27"></path>
                <path d="M45.2036603,6.88895566 C46.0084616,6.35930733 47.0943652,6.57616435 47.6290939,7.37331935 C48.1432561,8.13981455 47.9606119,9.16373543 47.2303363,9.71222013 L47.1400842,9.7757093 L35.6656729,17.3271418 C34.8608717,17.8567902 33.774968,17.6399332 33.2402394,16.8427781 C32.7260771,16.076283 32.9087213,15.0523621 33.6389969,14.5038774 L33.7292491,14.4403882 L45.2036603,6.88895566 Z" id="Stroke-31" fill-rule="nonzero"></path>
                <path d="M48.3641912,7.38698 C48.8710294,6.63139682 49.880206,6.40469048 50.662365,6.8525176 L50.7550878,6.90950393 L62.2295948,14.4609365 C63.0229387,14.9830402 63.2387626,16.043311 62.7116508,16.8291175 C62.2048126,17.5847007 61.1956361,17.811407 60.413477,17.3635799 L60.3207543,17.3065936 L48.8462472,9.75516102 C48.0529033,9.23305727 47.8370795,8.17278651 48.3641912,7.38698 Z" id="Stroke-34" fill-rule="nonzero"></path>
                <path d="M48.0854941,17.2635789 C51.1620438,17.2635789 53.6723192,19.6578244 53.8248732,22.6675625 L53.831802,22.8888599 C53.8330476,22.8965471 53.8324727,22.9040444 53.8323769,22.9116366 L53.8314616,22.9125789 L53.8333159,22.9133923 L53.8324616,29.0705789 L53.8364616,29.0705789 L53.8367651,29.6113242 C53.8367651,30.0809382 54.1935774,30.467986 54.6533568,30.5208826 L54.761172,30.5270433 L54.8689886,30.5208826 C55.3287799,30.467986 55.6856747,30.0809382 55.6856747,29.6113242 L55.6856747,29.6113242 L55.6856747,27.4752472 C55.6856747,27.4522898 55.6848218,27.4295297 55.6831457,27.4069963 L55.6824171,22.9133923 L59.1316965,22.9133923 L59.1309048,29.0713923 L59.1409425,29.0720663 L59.1409425,29.6640713 C59.1409425,31.9882348 57.2946717,33.8854117 54.9755201,33.9949998 L54.7634236,34 C52.345862,34 50.3859048,32.058664 50.3859048,29.6640713 L50.3854616,29.1795789 L50.3840364,29.1796483 L50.3838572,28.0944055 C49.6799879,28.3990467 48.9025827,28.5680459 48.0852067,28.5680459 C45.008657,28.5680459 42.4984729,26.1738003 42.3458341,23.1640622 L42.3388988,22.9427648 L42.3376532,22.9427648 L42.3374616,22.8888599 C42.3765534,19.7760412 44.9339067,17.2635789 48.0854941,17.2635789 Z M48.0854941,20.6661365 C46.8239202,20.6661365 45.8004423,21.672488 45.7866452,22.9187544 C45.8037,24.1623634 46.8257406,25.1654882 48.0853025,25.1654882 C49.3467806,25.1654882 50.3702585,24.1591367 50.3840556,22.9128704 C50.3670008,21.6692613 49.3449602,20.6661365 48.0854941,20.6661365 Z" id="形状结合"></path>
                <path d="M48.1626909,12.2178041 C54.2243325,12.2178041 59.1383938,17.0851778 59.1383938,23.0892286 C59.1383938,24.0326714 58.3662463,24.7974828 57.4137541,24.7974828 C56.4612619,24.7974828 55.6891144,24.0326714 55.6891144,23.0892286 C55.6891144,18.9720633 52.319348,15.6343125 48.1626909,15.6343125 C44.0059738,15.6343125 40.6362674,18.9720277 40.6362674,23.0892286 C40.6362674,27.2064296 44.0059738,30.5441448 48.1626909,30.5441448 C49.1151831,30.5441448 49.8873306,31.3089563 49.8873306,32.252399 C49.8873306,33.1958418 49.1151831,33.9606532 48.1626909,33.9606532 C42.1009839,33.9606532 37.186988,29.0933096 37.186988,23.0892286 C37.186988,17.0851477 42.1009839,12.2178041 48.1626909,12.2178041 Z" id="Stroke-41" fill-rule="nonzero"></path>
            </g>
        </g>
    </g>
</svg>