<?xml version="1.0" standalone="no"?><!DOCTYPE svg PUBLIC "-//W3C//DTD SVG 1.1//EN" "http://www.w3.org/Graphics/SVG/1.1/DTD/svg11.dtd"><svg t="1651112891077" class="icon" viewBox="0 0 1024 1024" version="1.1" xmlns="http://www.w3.org/2000/svg" p-id="49435" xmlns:xlink="http://www.w3.org/1999/xlink" width="48" height="48"><defs><style type="text/css"></style></defs><path d="M791.3 1024H232.7C104.7 1024 0 919.3 0 791.3V232.8C0 104.7 104.7 0 232.7 0h558.5c128 0 232.7 104.7 232.7 232.7v558.5c0.1 128.1-104.6 232.8-232.6 232.8z" fill="#F6F1FF" p-id="49436"></path><path d="M515.3 532.1l-121.6 70.2c-3.6 2.1-7.6 3.1-11.6 3.1s-8.1-1-11.6-3.1c-7.1-4.1-11.6-11.9-11.6-20.1V441.8c0-8.3 4.4-16 11.6-20.1 7.2-4.2 16.1-4.2 23.2-0.1l121.6 70.2c7.2 4.2 11.6 11.9 11.6 20.1 0 8.4-4.4 16.1-11.6 20.2z m272-130.7c-14.5-8.4-31.9-8.4-46.5 0l-69.2 39.9V328.7c0-25.7-20.9-46.6-46.5-46.6H260c-25.7 0-46.5 20.9-46.5 46.6v366.7c0 25.7 20.9 46.5 46.5 46.5h365c25.7 0 46.5-20.9 46.5-46.5V578.5l69.2 40c14.6 8.4 32 8.4 46.5 0 14.6-8.4 23.3-23.5 23.3-40.3V441.7c0.1-16.9-8.7-32-23.2-40.3z" fill="#D97DFC" p-id="49437"></path></svg>