<?xml version="1.0" standalone="no"?><!DOCTYPE svg PUBLIC "-//W3C//DTD SVG 1.1//EN" "http://www.w3.org/Graphics/SVG/1.1/DTD/svg11.dtd"><svg t="1651112922890" class="icon" viewBox="0 0 1024 1024" version="1.1" xmlns="http://www.w3.org/2000/svg" p-id="50472" xmlns:xlink="http://www.w3.org/1999/xlink" width="48" height="48"><defs><style type="text/css"></style></defs><path d="M0 0h1024v1024H0z" fill="#FFFFFF" fill-opacity="0" p-id="50473"></path><path d="M56.888889 142.222222m85.333333 0l739.555556 0q85.333333 0 85.333333 85.333334l0 455.111111q0 85.333333-85.333333 85.333333l-739.555556 0q-85.333333 0-85.333333-85.333333l0-455.111111q0-85.333333 85.333333-85.333334Z" fill="#00C5CD" p-id="50474"></path><path d="M256 824.888889m28.444444 0l455.111112 0q28.444444 0 28.444444 28.444444l0 0q0 28.444444-28.444444 28.444445l-455.111112 0q-28.444444 0-28.444444-28.444445l0 0q0-28.444444 28.444444-28.444444Z" fill="#00C5CD" p-id="50475"></path><path d="M443.505778 316.871111a30.378667 30.378667 0 0 0-30.179556 0.056889c-9.358222 5.376-15.075556 15.274667-15.104 25.998222v224.369778c0 10.723556 5.745778 20.622222 15.075556 25.998222 9.358222 5.376 20.849778 5.404444 30.208 0.056889l195.555555-112.156444a30.008889 30.008889 0 0 0 0-52.053334l-195.555555-112.270222z" fill="#FFFFFF" p-id="50476"></path></svg>