<?xml version="1.0" standalone="no"?><!DOCTYPE svg PUBLIC "-//W3C//DTD SVG 1.1//EN" "http://www.w3.org/Graphics/SVG/1.1/DTD/svg11.dtd"><svg t="1651112100326" class="icon" viewBox="0 0 1024 1024" version="1.1" xmlns="http://www.w3.org/2000/svg" p-id="26865" xmlns:xlink="http://www.w3.org/1999/xlink" width="48" height="48"><defs><style type="text/css"></style></defs><path d="M807.5776 894.464H214.3232c-79.3088 0-140.032-73.728-128.1536-155.5968l47.5648-475.6992c9.5744-66.2016 64.0512-115.0976 128.1536-115.0976h489.7792c64.9216 0 119.808 50.1248 128.4608 117.2992l55.9104 475.6992c10.496 81.2032-49.9712 153.3952-128.4608 153.3952z" fill="#FF5D50" p-id="26866"></path><path d="M510.976 645.4784c-124.6208 0-225.9456-101.376-225.9456-225.9456v-4.608c0-32.4608 26.3168-58.7776 58.7776-58.7776 32.4608 0 58.7776 26.3168 58.7776 58.7776v4.608c0 59.8016 48.64 108.4416 108.4416 108.4416s108.4416-48.64 108.4416-108.4416v-4.608c0-32.4608 26.3168-58.7776 58.7776-58.7776 32.4608 0 58.7776 26.3168 58.7776 58.7776v4.608c-0.1024 124.6208-101.4784 225.9456-226.048 225.9456z" fill="#FFDF99" p-id="26867"></path></svg>