<?xml version="1.0" encoding="UTF-8"?>
<svg width="40px" height="40px" viewBox="0 0 40 40" version="1.1" xmlns="http://www.w3.org/2000/svg" xmlns:xlink="http://www.w3.org/1999/xlink">
    <title>ic_taobao</title>
    <defs>
        <linearGradient x1="100%" y1="100%" x2="0%" y2="1.4328323%" id="linearGradient-1">
            <stop stop-color="#FF6000" offset="0%"></stop>
            <stop stop-color="#FF3D00" offset="100%"></stop>
        </linearGradient>
        <polygon id="path-2" points="0 0 28 0 28 22 0 22"></polygon>
    </defs>
    <g id="页面-1" stroke="none" stroke-width="1" fill="none" fill-rule="evenodd">
        <g id="2-1首页-探索" transform="translate(-259.000000, -1251.000000)">
            <g id="ic_taobao" transform="translate(259.000000, 1251.000000)">
                <circle id="椭圆形" fill="url(#linearGradient-1)" cx="20" cy="20" r="20"></circle>
                <g id="淘" transform="translate(6.000000, 9.000000)">
                    <mask id="mask-3" fill="white">
                        <use xlink:href="#path-2"></use>
                    </mask>
                    <g id="Clip-2"></g>
                    <path d="M2.93085793,6.0960049 L1.11919591,8.75926218 C1.11919591,8.75926218 5.01442795,10.7594287 5.33482798,12.3694029 C5.65505167,13.9793772 0,18.8131129 0,18.8131129 L4.03629974,21.8663808 C4.03629974,21.8663808 8.21401986,14.2595385 7.89361984,11.7595119 C7.57339614,9.25930381 2.93085793,6.0960049 2.93085793,6.0960049 M9.06465813,3.76265889 C10.0771716,1.9860041 10.452588,0.209349308 10.452588,0.209349308 L13.3869726,1.43276269 L12.5328077,3.15276789 C12.5328077,3.15276789 12.7463489,3.37609803 13.4936551,3.26261727 C14.2409613,3.15276789 19.1487068,0.595910171 22.5066472,1.20925099 C25.9129033,1.82985457 28,4.5960616 28,6.76272707 L28,17.1463075 C28,17.1463075 27.6279339,20.3130562 25.0139493,21.4231704 C22.3999647,22.533103 18.4014006,21.6997003 18.4014006,21.6997003 L18.6149418,19.9796951 C18.6149418,19.9796951 21.0153852,20.5365679 22.5101739,20.0365263 C24.0049626,19.5364846 24.4318687,18.3165211 24.4318687,18.3165211 L24.4318687,5.92932436 C24.4318687,5.92932436 24.2183275,4.65271119 22.8303976,3.76265889 C21.4424677,2.87260659 20.7501779,2.98608735 19.2555656,3.2057861 C17.7607769,3.42929781 15.4671923,4.53923043 15.4671923,4.53923043 L14.1859449,7.14928793 L22.8270472,7.14928793 L22.8270472,8.92594272 L17.5472356,8.92594272 L17.5472356,11.1459895 L23.0405885,11.1459895 L23.0405885,12.702764 L17.6540944,12.9262757 L17.6540944,17.1463075 L20.2130626,15.9795437 L19.9995214,14.1460577 L22.079741,13.7028473 L23.6260194,17.922879 L21.0670512,19.1462924 L20.7468276,17.6463491 C20.7468276,17.6463491 15.9045022,19.7705274 13.9619999,19.9372079 C12.0196739,20.1038885 10.1115568,19.6216406 9.18862138,18.2562401 C8.26215922,16.8910212 8.47922715,14.1496891 8.47922715,14.1496891 L11.9300959,14.2382949 C11.9300959,14.2382949 11.6615383,15.7987007 12.3398976,16.7880714 C13.0184333,17.7739923 14.5578346,17.5363182 14.5578346,17.5363182 L14.5578346,12.8162448 L9.22300663,12.6495642 L9.22300663,11.1496209 L14.6095007,11.1496209 L14.5578346,8.92957411 L12.9046974,8.59621303 C12.9046974,8.59621303 11.5167675,10.8162598 10.6109365,10.7630601 C9.70528185,10.7062289 9.59842306,9.42961573 9.59842306,9.42961573 L12.5328077,5.65279444 L10.9313366,5.4861139 L8.5308932,8.42953248 L6.71588082,6.76272707 C6.71923118,6.76272707 8.05214467,5.53931368 9.06465813,3.76265889" id="Fill-1" fill="#FFFFFF" mask="url(#mask-3)"></path>
                    <path d="M5.10400594,4.96482868 C6.41963864,4.96482868 7.48734484,3.85489605 7.48734484,2.48241434 C7.48734484,1.11356401 6.41963864,0 5.10400594,0 C3.78837325,0 2.72066705,1.11011419 2.72066705,2.48241434 C2.72066705,3.85489605 3.78837325,4.96482868 5.10400594,4.96482868" id="路径" fill="#FDFF00" mask="url(#mask-3)"></path>
                </g>
            </g>
        </g>
    </g>
</svg>