<?xml version="1.0" encoding="UTF-8"?>
<svg width="112px" height="112px" viewBox="0 0 112 112" version="1.1" xmlns="http://www.w3.org/2000/svg" xmlns:xlink="http://www.w3.org/1999/xlink">
    <title>ic_taobao</title>
    <defs>
        <linearGradient x1="100%" y1="100%" x2="0%" y2="1.4328323%" id="linearGradient-1">
            <stop stop-color="#FF6000" offset="0%"></stop>
            <stop stop-color="#FF3D00" offset="100%"></stop>
        </linearGradient>
        <path d="M25.638852,-1.03584031e-15 L86.361148,-3.97246635e-15 C95.2763354,2.30811735e-15 98.5091978,0.928256111 101.768457,2.67132704 C105.027716,4.41439796 107.585602,6.97228371 109.328673,10.231543 C111.071744,13.4908022 112,16.7236646 112,25.638852 L112,86.361148 C112,95.2763354 111.071744,98.5091978 109.328673,101.768457 C107.585602,105.027716 105.027716,107.585602 101.768457,109.328673 C98.5091978,111.071744 95.2763354,112 86.361148,112 L25.638852,112 C16.7236646,112 13.4908022,111.071744 10.231543,109.328673 C6.97228371,107.585602 4.41439796,105.027716 2.67132704,101.768457 C0.928256111,98.5091978 3.31120576e-15,95.2763354 -5.69886686e-15,86.361148 L6.90560205e-16,25.638852 C-4.01235366e-16,16.7236646 0.928256111,13.4908022 2.67132704,10.231543 C4.41439796,6.97228371 6.97228371,4.41439796 10.231543,2.67132704 C13.4908022,0.928256111 16.7236646,6.01853049e-16 25.638852,-1.03584031e-15 Z" id="path-2"></path>
        <polygon id="path-4" points="0 0 83 0 83 64 0 64"></polygon>
    </defs>
    <g id="页面-1" stroke="none" stroke-width="1" fill="none" fill-rule="evenodd">
        <g id="2-3达人主页-达人名片" transform="translate(-49.000000, -1204.000000)">
            <g id="ic_taobao" transform="translate(49.000000, 1204.000000)">
                <mask id="mask-3" fill="white">
                    <use xlink:href="#path-2"></use>
                </mask>
                <use id="蒙版" fill="url(#linearGradient-1)" xlink:href="#path-2"></use>
                <g id="淘" mask="url(#mask-3)">
                    <g transform="translate(15.000000, 24.000000)">
                        <mask id="mask-5" fill="white">
                            <use xlink:href="#path-4"></use>
                        </mask>
                        <g id="Clip-2" stroke="none" fill="none"></g>
                        <path d="M8.6879003,17.7338324 L3.31761646,25.48149 C3.31761646,25.48149 14.8641971,31.3001562 15.8139544,35.9837176 C16.7631889,40.6672791 0,54.7290557 0,54.7290557 L11.9647457,63.6112897 C11.9647457,63.6112897 24.3487017,41.4822938 23.3989445,34.2094893 C22.44971,26.9361565 8.6879003,17.7338324 8.6879003,17.7338324 M26.8702366,10.9459168 C29.8716158,5.77746647 30.9844574,0.609016168 30.9844574,0.609016168 L39.6828118,4.16803693 L37.1508228,9.17168841 C37.1508228,9.17168841 37.78382,9.82137608 39.9990491,9.49125023 C42.2142781,9.17168841 56.7622379,1.73355686 66.7161327,3.51782105 C76.813249,5.3232133 83,13.370361 83,19.6733878 L83,49.8801672 C83,49.8801672 81.8970898,59.0925271 74.1484927,62.3219502 C66.3998955,65.5508451 54.5470089,63.1264009 54.5470089,63.1264009 L55.1800062,58.1227494 C55.1800062,58.1227494 62.2956061,59.742743 66.7265869,58.2880764 C71.1575676,56.8334099 72.4230394,53.284425 72.4230394,53.284425 L72.4230394,17.2489436 C72.4230394,17.2489436 71.7900421,13.5351598 67.6758214,10.9459168 C63.5616006,8.35667371 61.5094559,8.68679956 57.0789979,9.3259232 C52.6480172,9.97613908 45.8491772,13.205034 45.8491772,13.205034 L42.0511937,20.7979285 L67.66589,20.7979285 L67.66589,25.9663788 L52.0150199,25.9663788 L52.0150199,32.4246969 L68.2988872,32.4246969 L68.2988872,36.9534953 L52.3317799,37.6037112 L52.3317799,49.8801672 L59.9172928,46.4859453 L59.2842955,41.1521679 L65.4506609,39.8628284 L70.0342719,52.1392844 L62.448759,55.6983052 L61.4995245,51.3348337 C61.4995245,51.3348337 47.1454887,57.5142614 41.3873568,57.9991503 C35.6297477,58.4840391 29.9735435,57.0811363 27.2376991,53.1090621 C24.4914005,49.1375161 25.1348519,41.162732 25.1348519,41.162732 L35.3642129,41.4204942 C35.3642129,41.4204942 34.5681313,45.9598567 36.5789822,48.8380259 C38.5903558,51.7061593 43.1535812,51.0147437 43.1535812,51.0147437 L43.1535812,37.2836212 L27.3396268,36.7987323 L27.3396268,32.4352609 L43.3067341,32.4352609 L43.1535812,25.9769429 L38.2532102,25.0071652 C38.2532102,25.0071652 34.1389895,31.4654832 31.4538476,31.3107202 C28.7692283,31.1453932 28.4524684,27.4316094 28.4524684,27.4316094 L37.1508228,16.4444929 L32.4036048,15.9596041 L25.2880048,24.5222763 L19.9077896,19.6733878 C19.917721,19.6733878 23.8688574,16.1143671 26.8702366,10.9459168" id="Fill-1" stroke="none" fill="#FFFFFF" fill-rule="evenodd" mask="url(#mask-5)"></path>
                        <path d="M15.1297319,14.443138 C19.0296431,14.443138 22.1946294,11.2142431 22.1946294,7.22156899 C22.1946294,3.23945894 19.0296431,0 15.1297319,0 C11.2298207,0 8.06483447,3.22942311 8.06483447,7.22156899 C8.06483447,11.2142431 11.2298207,14.443138 15.1297319,14.443138" id="路径" stroke="none" fill="#FDFF00" fill-rule="evenodd" mask="url(#mask-5)"></path>
                    </g>
                </g>
            </g>
        </g>
    </g>
</svg>