<?xml version="1.0" encoding="UTF-8"?>
<svg width="48px" height="48px" viewBox="0 0 48 48" version="1.1" xmlns="http://www.w3.org/2000/svg" xmlns:xlink="http://www.w3.org/1999/xlink">
    <title>ic_collect</title>
    <defs>
        <polygon id="path-1" points="-1.33226763e-15 0 47.9999122 0 47.9999122 45.992 -1.33226763e-15 45.992"></polygon>
    </defs>
    <g id="页面-1" stroke="none" stroke-width="1" fill="none" fill-rule="evenodd">
        <g id="2-9达人主页-名片详情-未收藏" transform="translate(-236.000000, -2452.000000)">
            <g id="ic_collect" transform="translate(236.000000, 2452.000000)">
                <rect id="矩形" fill="#D8D8D8" opacity="0" x="0" y="0" width="48" height="48"></rect>
                <g id="编组" transform="translate(0.000000, 1.000000)">
                    <mask id="mask-2" fill="white">
                        <use xlink:href="#path-1"></use>
                    </mask>
                    <g id="Clip-2"></g>
                    <path d="M41.6932122,21.066 L35.9422122,28.181 C35.6322122,28.564 35.4752122,29.048 35.5002122,29.541 L35.9712122,38.677 C36.0452122,40.122 34.6092122,41.165 33.2582122,40.648 L26.6812122,38.13 C25.8222122,37.801 24.9202122,37.634 24.0002122,37.634 C23.0792122,37.634 22.1772122,37.801 21.3182122,38.13 L14.7412122,40.648 C13.3902122,41.165 11.9542122,40.122 12.0282122,38.677 L12.3912122,31.644 C12.4852122,29.794 11.8972122,27.983 10.7352122,26.544 L6.30721219,21.066 C5.39721219,19.941 5.94621219,18.253 7.34321219,17.877 L16.1782122,15.502 C16.6542122,15.374 17.0662122,15.074 17.3352122,14.661 L22.3242122,6.993 C23.1122122,5.78 24.8882122,5.78 25.6762122,6.993 L30.6652122,14.662 C30.9342122,15.075 31.3462122,15.374 31.8222122,15.503 L40.6572122,17.878 C42.0542122,18.253 42.6032122,19.941 41.6932122,21.066 M45.4062122,15.012 L34.8952122,12.186 C34.0622122,11.962 33.3402122,11.438 32.8702122,10.715 L26.9342122,1.591 C26.2432122,0.53 25.1222122,0 24.0002122,0 C22.8782122,0 21.7562122,0.53 21.0662122,1.591 L15.1302122,10.715 C14.6592122,11.438 13.9382122,11.962 13.1052122,12.186 L2.59321219,15.012 C0.149212187,15.67 -0.810787813,18.624 0.780212187,20.592 L7.62321219,29.058 C8.16521219,29.729 8.44121219,30.576 8.39721219,31.438 L7.83621219,42.309 C7.72921219,44.388 9.41121219,45.992 11.3262122,45.992 C11.7392122,45.992 12.1642122,45.918 12.5832122,45.757 L22.7482122,41.865 C23.1512122,41.711 23.5752122,41.634 24.0002122,41.634 C24.4242122,41.634 24.8482122,41.711 25.2512122,41.865 L35.4172122,45.757 C35.8362122,45.918 36.2602122,45.992 36.6732122,45.992 C38.5892122,45.992 40.2712122,44.388 40.1632122,42.309 L39.6032122,31.438 C39.5592122,30.576 39.8342122,29.729 40.3772122,29.058 L47.2192122,20.592 C48.8112122,18.624 47.8512122,15.67 45.4062122,15.012" id="Fill-1" fill="#FFFFFF" mask="url(#mask-2)"></path>
                </g>
            </g>
        </g>
    </g>
</svg>