<?xml version="1.0" encoding="UTF-8"?>
<svg width="40px" height="40px" viewBox="0 0 40 40" version="1.1" xmlns="http://www.w3.org/2000/svg" xmlns:xlink="http://www.w3.org/1999/xlink">
    <title>ic_warn</title>
    <g id="页面-1" stroke="none" stroke-width="1" fill="none" fill-rule="evenodd">
        <g id="5-4设置-账号安全-弹框确认" transform="translate(-311.000000, -541.000000)">
            <g id="ic_warn" transform="translate(311.000000, 541.000000)">
                <circle id="椭圆形" fill="#FF193C" cx="20" cy="20" r="20"></circle>
                <g id="编组" transform="translate(17.142857, 8.571429)" fill="#FFFFFF">
                    <path d="M3.21429911,12.8571964 L3.21429911,12.8571964 C1.4464346,12.8571964 0,11.4107618 0,9.64289732 L0,3.21429911 C0,1.4464346 1.4464346,0 3.21429911,0 C4.98216362,0 6.42859821,1.4464346 6.42859821,3.21429911 L6.42859821,9.64289732 C6.42859821,11.4107618 4.98216362,12.8571964 3.21429911,12.8571964" id="Fill-3"></path>
                    <path d="M6.42859821,18.2143616 C6.42859821,19.9886547 4.98859221,21.4286607 3.21429911,21.4286607 C1.43786313,21.4286607 0,19.9886547 0,18.2143616 C0,16.4400685 1.43786313,15.0000625 3.21429911,15.0000625 C4.98859221,15.0000625 6.42859821,16.4400685 6.42859821,18.2143616" id="Fill-5"></path>
                </g>
            </g>
        </g>
    </g>
</svg>