<?xml version="1.0" encoding="UTF-8"?>
<svg width="120px" height="120px" viewBox="0 0 120 120" version="1.1" xmlns="http://www.w3.org/2000/svg" xmlns:xlink="http://www.w3.org/1999/xlink">
    <title>ic_wechat</title>
    <defs>
        <polygon id="path-1" points="0 0 41.895919 0 41.895919 38.0948561 0 38.0948561"></polygon>
    </defs>
    <g id="页面-1" stroke="none" stroke-width="1" fill="none" fill-rule="evenodd">
        <g id="2-6达人主页-分享" transform="translate(-81.000000, -1218.000000)">
            <g id="ic_wechat" transform="translate(81.000000, 1218.000000)">
                <circle id="椭圆形" fill="#383A4A" cx="60" cy="60" r="60"></circle>
                <g id="编组" transform="translate(31.000000, 36.000000)">
                    <path d="M47.1941843,28.4472075 C45.8886594,28.4472075 44.8310037,27.390755 44.8310037,26.0852301 C44.8310037,24.7797052 45.8886594,23.7220495 47.1941843,23.7220495 C48.4997092,23.7220495 49.5573649,24.7797052 49.5573649,26.0852301 C49.5573649,27.390755 48.4997092,28.4472075 47.1941843,28.4472075 M35.7175975,28.4652562 C34.4120726,28.4652562 33.3544169,27.4088038 33.3544169,26.1032789 C33.3544169,24.7977539 34.4120726,23.7400983 35.7175975,23.7400983 C37.0219192,23.7400983 38.0795749,24.7977539 38.0795749,26.1032789 C38.0795749,27.4027875 37.0219192,28.4652562 35.7175975,28.4652562 M58.9186403,30.7803068 C58.9186403,22.4405896 50.5729068,15.647047 41.2044119,15.647047 C31.280016,15.647047 23.4661185,22.4466058 23.4661185,30.7803068 C23.4661185,39.1332598 31.280016,45.9147699 41.2044119,45.9147699 C43.2836258,45.9147699 45.3808884,45.3889502 47.4661185,44.8679434 L53.1839567,48 L51.6125138,42.7899328 C55.7998195,39.6482503 58.9186403,35.482603 58.9186403,30.7803068" id="Fill-1" fill="#00C800"></path>
                    <g>
                        <mask id="mask-2" fill="white">
                            <use xlink:href="#path-1"></use>
                        </mask>
                        <g id="Clip-4"></g>
                        <path d="M28.4099067,14.3126441 C26.8444801,14.3126441 25.5750526,13.0420134 25.5750526,11.47779 C25.5750526,9.91116013 26.8444801,8.64173268 28.4099067,8.64173268 C29.9753334,8.64173268 31.2447609,9.91116013 31.2447609,11.47779 C31.2447609,13.0420134 29.9753334,14.3126441 28.4099067,14.3126441 M13.8433771,14.3126441 C12.2779505,14.3126441 11.008523,13.0420134 11.008523,11.47779 C11.008523,9.91116013 12.2779505,8.64173268 13.8433771,8.64173268 C15.4088038,8.64173268 16.6782312,9.91116013 16.6782312,11.47779 C16.6782312,13.0420134 15.4088038,14.3126441 13.8433771,14.3126441 M20.8486915,0 C9.38293392,0 -0.0084227414,7.81510077 -0.0084227414,17.7382934 C-0.0084227414,23.468164 3.11641432,28.1704602 8.33851399,31.821117 L6.25328387,38.0948561 L13.5425649,34.4381831 C16.1524115,34.9507671 18.2436579,35.482603 20.8486915,35.482603 C21.504462,35.482603 22.1542164,35.4525218 22.7979545,35.3995789 C22.3912564,34.0062168 22.1542164,32.546676 22.1542164,31.0293793 C22.1542164,21.9147699 29.9813496,14.5196029 39.8876968,14.5196029 C40.5675323,14.5196029 41.2341322,14.5665296 41.895919,14.6435376 C40.0874361,6.24365788 31.1027775,0 20.8486915,0" id="Fill-3" fill="#00C800" mask="url(#mask-2)"></path>
                    </g>
                </g>
            </g>
        </g>
    </g>
</svg>