<?xml version="1.0" encoding="UTF-8"?>
<svg width="580px" height="229px" viewBox="0 0 580 229" version="1.1" xmlns="http://www.w3.org/2000/svg" xmlns:xlink="http://www.w3.org/1999/xlink">
    <title>ic_word</title>
    <g id="页面-1" stroke="none" stroke-width="1" fill="none" fill-rule="evenodd">
        <g id="5-9落地页" transform="translate(-64.000000, -430.000000)" fill="#FFFFFF" fill-rule="nonzero">
            <g id="ic_word" transform="translate(64.000000, 430.000000)">
                <path d="M17.7339901,93.2515337 L17.7339901,54.396728 C19.2118227,57.6022495 20.9852217,61.9734151 21.4778325,63.8190184 C22.2660099,63.3333333 23.1527094,62.8476483 24.0394089,62.2648262 L24.0394089,85.4805726 L35.862069,85.4805726 L35.862069,81.8865031 L63.7438424,81.8865031 L63.7438424,61.7791411 C64.4334975,62.4591002 65.1231527,63.0419223 65.7142857,63.6247444 L71.6256158,57.4079755 L71.6256158,81.109407 C71.6256158,82.4693252 71.0344828,82.9550102 69.4581281,82.9550102 C68.0788177,83.0521472 62.4630542,83.0521472 58.3251232,82.8578732 C59.9014778,85.5777096 61.5763547,89.9488753 62.1674877,93.0572597 C69.7536946,93.0572597 75.3694581,92.9601227 79.3103448,91.3087935 C83.3497537,89.6574642 84.729064,87.0347648 84.729064,81.206544 L84.729064,32.2494888 L65.2216749,32.2494888 C66.8965517,29.6267894 68.6699507,26.6155419 70.5418719,23.4100204 L61.2807882,21.6615542 L88.7684729,21.6615542 L88.7684729,9.90797546 L54.8768473,9.90797546 C53.5960591,6.89672802 52.0197044,3.3997955 50.4433498,0.582822086 L35.862069,4.0797546 C36.6502463,5.82822086 37.635468,7.86809816 38.4236453,9.90797546 L0,9.90797546 L0,21.6615542 L26.4039409,21.6615542 L20.0985222,23.6042945 C21.2807882,26.2269939 22.7586207,29.5296524 23.7438424,32.2494888 L4.13793103,32.2494888 L4.13793103,93.2515337 L17.7339901,93.2515337 Z M50.9359606,32.2494888 L32.2167488,32.2494888 L38.6206897,30.1124744 C37.9433498,28.5764954 36.94004,26.5354798 35.8988945,24.4628994 L35.3289765,23.3321164 C35.0438732,22.7680055 34.7598522,22.2079499 34.4827586,21.6615542 L54.8768473,21.6615542 C53.8916256,24.9642127 52.4137931,28.8496933 50.9359606,32.2494888 Z M71.6256158,52.4539877 C69.6305419,50.9240798 67.2302186,49.1790285 64.7753425,47.4262935 L63.1345251,46.2589418 C61.7668565,45.2889946 60.4064039,44.3309049 59.1133005,43.4202454 L71.6256158,43.4202454 L71.6256158,52.4539877 Z M57.9310345,57.0194274 L31.8226601,57.0194274 C36.1576355,53.8139059 40.3940887,50.3169734 43.6453202,47.1114519 L36.2561576,43.4202454 L52.7093596,43.4202454 L47.2906404,48.7627812 C50.4433498,51.1912065 54.3842365,54.202454 57.9310345,57.0194274 Z M17.7339901,51.5797546 L17.7339901,43.4202454 L32.6108374,43.4202454 C28.4729064,46.3343558 22.5615764,49.3456033 17.7339901,51.5797546 Z M52.4137931,72.3670757 L35.862069,72.3670757 L35.862069,66.5388548 L52.4137931,66.5388548 L52.4137931,72.3670757 Z M113.497537,31.7638037 L113.497537,21.1758691 L171.724138,21.1758691 L171.724138,31.7638037 L186.403941,31.7638037 L186.403941,8.45092025 L152.118227,8.45092025 C151.133005,5.63394683 149.55665,2.52556237 148.17734,0 L132.906404,4.27402863 C133.497537,5.53680982 134.08867,6.99386503 134.679803,8.45092025 L99.5073892,8.45092025 L99.5073892,31.7638037 L113.497537,31.7638037 Z M138.719212,93.5429448 C144.236453,93.4458078 147.684729,92.2801636 151.330049,88.394683 C156.256158,84.0235174 158.522167,73.3384458 156.157635,62.0705521 L158.128079,60.904908 C162.758621,73.7269939 169.852217,83.6349693 181.280788,89.2689162 C183.251232,85.6748466 187.487685,80.3323108 190.640394,77.7096115 C179.901478,73.3384458 173.004926,64.3047035 169.458128,53.8139059 C173.300493,51.1912065 177.241379,48.4713701 180.788177,45.7515337 L168.965517,36.4263804 C164.433498,40.894683 158.029557,46.0429448 151.82266,50.4141104 C149.852217,46.7229039 147.29064,43.3231084 144.039409,40.2147239 C146.009852,38.9519427 147.783251,37.5920245 149.359606,36.1349693 L169.852217,36.1349693 L169.852217,24.2842536 L115.270936,24.2842536 L115.270936,36.1349693 L128.866995,36.1349693 C120.394089,40.2147239 109.753695,43.1288344 99.408867,44.9744376 C101.674877,47.597137 105.221675,53.2310838 106.600985,55.9509202 C115.566502,53.7167689 124.926108,50.5112474 133.300493,46.4314928 C133.891626,47.0143149 134.384236,47.597137 134.876847,48.1799591 C126.305419,53.5224949 110.44335,59.1564417 98.3251232,61.4877301 C100.8867,64.4018405 103.743842,69.1615542 105.320197,72.2699387 C116.35468,68.9672802 130.44335,62.9447853 140.394089,57.0194274 C140.689655,57.6993865 140.985222,58.3793456 141.182266,59.0593047 C131.330049,66.9274029 112.610837,74.795501 97.044335,78.0981595 C99.8029557,81.206544 102.857143,86.2576687 104.433498,89.7546012 C111.625616,87.5204499 119.704433,84.3149284 127.29064,80.7208589 C129.655172,84.5092025 130.738916,89.7546012 130.935961,93.4458078 C133.694581,93.5429448 136.453202,93.6400818 138.719212,93.5429448 Z M135.960591,80.6237219 C133.793103,80.6237219 131.231527,80.5265849 128.17734,80.2351738 C133.399015,77.7096115 138.423645,74.9897751 142.857143,72.0756646 C142.561576,74.892638 141.773399,77.0296524 140.788177,78.0981595 C139.605911,80.2351738 138.128079,80.6237219 135.960591,80.6237219 Z M248.472906,93.7372188 L248.472906,88.006135 L287.881773,88.006135 L287.881773,75.1840491 L271.428571,75.1840491 L271.428571,68.190184 L284.433498,68.190184 L284.433498,55.8537832 L271.428571,55.8537832 L271.428571,49.3456033 L284.630542,49.3456033 L284.630542,37.0092025 L271.428571,37.0092025 L271.428571,30.5981595 L285.615764,30.5981595 L285.615764,17.7760736 L267.783251,17.7760736 L273.891626,15.1533742 C272.70936,11.4621677 270.147783,6.02249489 267.586207,2.0398773 L255.270936,6.89672802 C257.044335,10.1993865 258.916256,14.3762781 260.098522,17.7760736 L250.049261,17.7760736 C251.82266,13.696319 253.497537,9.5194274 254.975369,5.4396728 L241.477833,1.84560327 C238.423645,11.6564417 233.596059,21.4672802 227.881773,29.3353783 L227.881773,18.4560327 L218.817734,18.4560327 L218.817734,1.3599182 L205.024631,1.3599182 L205.024631,18.4560327 L194.975369,18.4560327 L194.975369,31.3752556 L205.024631,31.3752556 L205.024631,46.8200409 C200.788177,47.791411 196.945813,48.6656442 193.694581,49.2484663 L196.650246,62.7505112 L205.024631,60.6134969 L205.024631,77.7096115 C205.024631,79.0695297 204.630542,79.3609407 203.448276,79.3609407 C202.26601,79.4580777 198.916256,79.4580777 195.862069,79.2638037 C197.635468,83.2464213 199.310345,89.2689162 199.605911,93.0572597 C206.206897,93.0572597 210.837438,92.5715746 214.384236,90.2402863 C217.832512,87.908998 218.817734,84.2177914 218.817734,77.8067485 L218.817734,56.9222904 L227.586207,54.493865 L226.305419,45.8486708 C227.586207,47.305726 228.768473,48.6656442 229.55665,49.6370143 C231.330049,47.791411 233.103448,45.7515337 234.778325,43.5173824 L234.778325,93.7372188 L248.472906,93.7372188 Z M258.128079,37.0092025 L248.472906,37.0092025 L248.472906,30.5981595 L258.128079,30.5981595 L258.128079,37.0092025 Z M218.817734,43.5173824 L218.817734,31.3752556 L226.403941,31.3752556 C224.236453,34.192229 221.871921,36.8149284 219.507389,39.0490798 C220.591133,39.9233129 221.871921,41.0889571 223.152709,42.4488753 L218.817734,43.5173824 Z M258.128079,55.8537832 L248.472906,55.8537832 L248.472906,49.3456033 L258.128079,49.3456033 L258.128079,55.8537832 Z M258.128079,75.1840491 L248.472906,75.1840491 L248.472906,68.190184 L258.128079,68.190184 L258.128079,75.1840491 Z M304.433498,95 C316.256158,82.9550102 318.325123,61.4877301 318.325123,46.5286299 L318.325123,29.0439673 L383.64532,29.0439673 L383.64532,15.2505112 L353.399015,15.2505112 C352.512315,10.8793456 350.935961,5.14826176 349.458128,0.6799591 L334.187192,3.30265849 C335.172414,6.89672802 336.256158,11.2678937 337.044335,15.2505112 L302.857143,15.2505112 L302.857143,46.3343558 C302.857143,58.6707566 302.167488,74.309816 292.512315,84.5092025 C295.763547,86.4519427 302.068966,92.0858896 304.433498,95 Z M402.857143,95 C412.315271,83.4406953 414.285714,64.4989775 414.285714,51.8711656 L414.285714,51.7740286 L481.773399,51.7740286 L481.773399,37.9805726 L462.857143,37.9805726 C465.221675,34.9693252 467.783251,31.5695297 470.541872,28.0725971 L456.551724,23.7985685 L479.901478,23.7985685 L479.901478,10.3936605 L448.078818,10.3936605 C446.896552,7.38241309 444.630542,3.49693252 442.463054,0.6799591 L427.487685,4.0797546 C428.669951,5.92535787 429.950739,8.1595092 431.034483,10.3936605 L398.719212,10.3936605 L398.719212,23.7985685 L420.985222,23.7985685 L412.315271,27.4897751 C414.581281,30.5981595 416.945813,34.5807771 418.522167,37.9805726 L399.211823,37.9805726 L399.211823,51.5797546 C399.211823,61.390593 398.62069,75.1840491 390.837438,84.8006135 C393.990148,86.6462168 400.492611,92.1830266 402.857143,95 Z M447.684729,37.9805726 L426.502463,37.9805726 L433.103448,35.0664622 C431.82266,31.7638037 428.965517,27.392638 426.206897,23.7985685 L454.08867,23.7985685 C452.610837,28.2668712 450.049261,33.900818 447.684729,37.9805726 Z M567.389163,41.8660532 L567.389163,4.95398773 L506.896552,4.95398773 L506.896552,41.8660532 L567.389163,41.8660532 Z M552.70936,28.4611452 L520.689655,28.4611452 L520.689655,18.4560327 L552.70936,18.4560327 L552.70936,28.4611452 Z M507.29064,93.5429448 L507.29064,88.8803681 L518.62069,88.8803681 L518.62069,93.1543967 L532.906404,93.1543967 L532.906404,48.7627812 L493.793103,48.7627812 L493.793103,93.5429448 L507.29064,93.5429448 Z M553.596059,93.5429448 L553.596059,88.8803681 L565.615764,88.8803681 L565.615764,93.1543967 L580,93.1543967 L580,48.7627812 L539.901478,48.7627812 L539.901478,93.5429448 L553.596059,93.5429448 Z M518.62069,75.3783231 L507.29064,75.3783231 L507.29064,62.2648262 L518.62069,62.2648262 L518.62069,75.3783231 Z M565.615764,75.3783231 L553.596059,75.3783231 L553.596059,62.2648262 L565.615764,62.2648262 L565.615764,75.3783231 Z" id="商家推广产品"></path>
                <path d="M5.53676101,203.770984 C5.66109529,203.704746 5.78807168,203.639287 5.91890243,203.574389 L6.11819086,203.477436 C9.290413,201.964236 14.9259421,200.700642 38.7573271,196.854922 C38.2716463,193.835233 37.9802378,188.282902 38.1745101,184.483938 L24.7697203,186.334715 C31.3749791,179.126425 37.5916932,171.041451 42.4485011,162.956477 L30.112209,154.774093 C28.4608943,158.08601 26.5181712,161.495337 24.4783118,164.612435 L18.5530062,165.002073 C23.5069503,157.793782 28.3637582,149.319171 31.7635237,141.234197 L17.6787808,135.487047 C14.2790152,146.494301 8.15943728,157.988601 6.0224418,160.910881 C3.88544632,163.93057 2.23413164,165.781347 0,166.463212 C0.589515994,167.86725 1.29083675,169.719765 1.97673615,171.632689 L2.34856902,172.67976 C3.33196657,175.475486 4.23379668,178.249741 4.66253559,179.80829 C6.31385028,179.029016 8.64511807,178.34715 15.2503768,177.567876 C12.8219729,180.684974 10.6849774,183.120207 9.42220734,184.289119 C6.0224418,187.698446 3.88544632,189.646632 0.874225423,190.328497 C2.52554011,194.127461 4.8568079,201.043523 5.53676101,203.770984 Z M92.8621671,223.25285 L92.8621671,209.031088 L73.143527,209.031088 L73.143527,158.08601 L90.8223078,158.08601 L90.8223078,143.864249 L40.0200971,143.864249 L40.0200971,158.08601 L57.6988779,158.08601 L57.6988779,209.031088 L38.1745101,209.031088 L38.1745101,223.25285 L92.8621671,223.25285 Z M3.39976553,225.882902 C13.3076537,223.447668 25.6439457,220.525389 37.1060124,217.603109 L35.5518339,204.258031 C33.5513541,204.700322 31.5253308,205.145175 29.4965461,205.586358 L27.4676846,206.026087 C17.6652285,208.143304 7.97566617,210.126285 0.971361581,211.271503 L3.39976553,225.882902 Z M109.958131,228.707772 C128.511137,217.213472 138.710434,201.140933 144.247195,185.165803 C150.1725,201.043523 161.05175,218.187565 181.450343,228.025907 C183.490203,224.032124 187.472785,219.161658 191.843912,215.752332 C158.234802,200.751295 152.115224,166.365803 150.658181,152.533679 C151.143862,146.299482 151.338134,140.74715 151.43527,136.266321 L135.116396,136.266321 C134.630715,153.8 137.156255,195.393782 98.1075197,217.116062 C102.867191,220.33057 107.432591,224.908808 109.958131,228.707772 Z M277.518004,229 L285.871713,218.284974 C282.083403,215.94715 277.129459,213.414508 271.592698,210.881865 C274.215374,207.27772 276.35237,202.796891 277.906548,197.439378 L288.008709,197.439378 L288.008709,185.750259 L257.993636,185.750259 C258.964997,183.704663 259.936359,181.756477 260.713448,179.80829 L252.942556,178.249741 L286.648803,178.249741 L286.648803,166.365803 L272.661196,166.365803 C274.215374,163.93057 275.866689,161.00829 277.61514,157.988601 L270.5242,155.943005 L284.900352,155.943005 L284.900352,144.156477 L264.501758,144.156477 C263.433261,141.818653 262.170491,139.28601 260.907721,137.240415 L247.600067,138.993782 C248.377156,140.552332 249.251382,142.305699 250.028471,144.156477 L230.406967,144.156477 L230.406967,155.943005 L241.96617,155.943005 L236.623681,157.891192 C238.080723,160.423834 239.44063,163.638342 240.314855,166.365803 L227.784291,166.365803 L227.784291,178.249741 L247.211522,178.249741 C246.143025,180.684974 244.977391,183.217617 243.714621,185.750259 L226.327248,185.750259 L226.327248,188.672539 L224.77307,177.373057 L218.556356,178.931606 L218.556356,167.047668 L225.550159,167.047668 L225.550159,154.092228 L218.556356,154.092228 L218.556356,136.363731 L205.637247,136.363731 L205.637247,154.092228 L196.603584,154.092228 L196.603584,167.047668 L205.637247,167.047668 L205.637247,182.048705 C201.654664,183.022798 198.060626,183.802073 194.952269,184.386528 L197.866354,197.926425 L205.637247,195.880829 L205.637247,213.414508 C205.637247,214.680829 205.248702,215.070466 204.083068,215.070466 L203.340156,215.069564 C201.851635,215.065055 199.193882,215.037997 196.603584,214.875648 C198.254899,218.674611 199.809077,224.519171 200.100486,228.025907 C206.414336,228.123316 210.979735,227.53886 214.282365,225.395855 C217.584994,223.15544 218.556356,219.648705 218.556356,213.511917 L218.556356,192.276684 C221.179032,191.594819 223.801708,190.815544 226.327248,190.133679 L226.327248,197.439378 L237.012226,197.439378 C234.680958,201.238342 232.252554,204.647668 230.018422,207.569948 C235.166639,209.225907 240.800536,211.271503 246.434433,213.609326 C240.7034,215.460104 233.515324,216.434197 224.481661,217.018653 C226.521521,219.746114 228.755652,224.811399 229.727014,228.707772 C243.423212,226.856995 253.622509,224.324352 261.199129,220.038342 C267.707252,223.15544 273.438285,226.272539 277.518004,229 Z M259.547814,166.365803 L248.182884,166.365803 L252.748283,164.612435 C252.06833,162.177202 250.417016,158.865285 248.765701,155.943005 L264.21035,155.943005 C263.044716,159.352332 261.199129,163.346114 259.547814,166.365803 Z M259.15927,205.719171 C255.662368,204.35544 252.262603,203.089119 248.959973,201.920207 C249.834199,200.556477 250.80556,198.997927 251.679786,197.439378 L263.821805,197.439378 C262.656171,200.653886 261.101993,203.381347 259.15927,205.719171 Z M346.096131,228.415544 L346.096131,213.219689 L383.493552,213.219689 L383.493552,200.166839 L346.096131,200.166839 L346.096131,195.296373 L376.014068,195.296373 L376.014068,152.825907 L363.483504,152.825907 C365.911908,149.41658 368.534584,145.617617 371.060124,141.623834 L355.22693,137.143005 C353.478479,142.013472 350.467258,148.150259 347.456038,152.825907 L327.834534,152.825907 L332.497069,150.682902 C330.554346,146.59171 326.183219,140.74715 322.589181,136.655959 L310.350025,142.110881 C312.875565,145.325389 315.595378,149.319171 317.538101,152.825907 L303.064813,152.825907 L303.064813,195.296373 L331.525708,195.296373 L331.525708,200.166839 L294.711104,200.166839 L294.711104,213.219689 L331.525708,213.219689 L331.525708,228.415544 L346.096131,228.415544 Z M331.525708,168.703627 L316.858148,168.703627 L316.858148,164.222798 L331.525708,164.222798 L331.525708,168.703627 Z M361.443644,168.703627 L346.096131,168.703627 L346.096131,164.222798 L361.443644,164.222798 L361.443644,168.703627 Z M331.525708,183.802073 L316.858148,183.802073 L316.858148,179.321244 L331.525708,179.321244 L331.525708,183.802073 Z M361.443644,183.802073 L346.096131,183.802073 L346.096131,179.321244 L361.443644,179.321244 L361.443644,183.802073 Z M431.187406,183.315026 L431.187406,157.696373 L440.706749,157.696373 L440.706749,183.315026 L454.985765,183.315026 L454.985765,167.729534 C460.133981,171.918135 465.670742,177.373057 468.681963,181.366839 L479.269804,173.574093 C475.675766,169.288083 468.681963,163.053886 462.562385,158.865285 L454.985765,163.833161 L454.985765,157.696373 L478.589851,157.696373 L478.589851,145.325389 L445.75783,145.325389 C444.495059,142.403109 442.260928,138.117098 440.512477,135 L426.622006,138.117098 C427.690504,140.260104 428.856138,142.890155 429.8275,145.325389 L393.692849,145.325389 L393.692849,157.696373 L416.908391,157.696373 L416.908391,183.315026 L431.187406,183.315026 Z M402.823648,181.561658 C407.874728,176.98342 413.411489,169.67772 416.616982,162.46943 L403.989282,159.060104 C401.560878,164.709845 396.995478,170.456995 391.944398,174.158549 C394.955619,175.814508 400.298108,179.321244 402.823648,181.561658 Z M473.733043,229 C475.481494,225.395855 478.881259,219.648705 481.698208,216.629016 C470.624686,215.752332 460.425389,214.193782 451.585999,211.758549 C459.939709,206.303627 466.73924,199.387565 471.596048,190.718135 L462.562385,184.678756 L460.328253,185.165803 L399.035337,185.165803 L399.035337,197.439378 L406.320549,197.439378 C410.497404,202.894301 415.451348,207.569948 420.988109,211.563731 C411.760174,214.096373 401.463741,215.654922 390.584492,216.531606 C392.91576,219.453886 396.121253,225.493264 397.18975,229 C410.885949,227.246632 424.096466,224.421762 435.655669,219.843523 C446.437783,224.519171 459.065483,227.441451 473.733043,229 Z M436.238486,206.206218 C431.09027,203.673575 426.52487,200.848705 422.833696,197.439378 L449.643276,197.439378 C445.952102,200.848705 441.386702,203.770984 436.238486,206.206218 Z M539.202814,192.374093 L539.202814,152.533679 L561.349858,152.533679 L561.349858,192.374093 L575.337464,192.374093 L575.337464,140.454922 L525.89516,140.454922 L525.89516,192.374093 L539.202814,192.374093 Z M488.497739,219.551295 C498.988444,216.823834 512.393234,213.414508 524.729526,210.102591 L522.981075,197.341969 C519.678446,198.218653 516.27868,199.095337 512.878915,199.874611 L512.878915,182.243523 L521.426897,182.243523 L521.426897,169.288083 L512.878915,169.288083 L512.878915,154.384456 L523.466756,154.384456 L523.466756,141.331606 L488.012058,141.331606 L488.012058,154.384456 L499.279853,154.384456 L499.279853,169.288083 L489.469101,169.288083 L489.469101,182.243523 L499.279853,182.243523 L499.279853,203.186528 C494.325909,204.35544 489.760509,205.329534 485.875063,206.108808 L488.497739,219.551295 Z M525.118071,229 C535.705912,223.25285 542.893988,215.752332 547.750796,207.667358 L547.750796,215.265285 C547.750796,224.61658 551.247697,227.246632 560.087088,227.246632 L566.206666,227.246632 C576.988779,227.246632 578.931502,222.376166 580,207.180311 C576.794507,206.401036 572.326244,204.550259 569.217886,202.115026 C568.926478,214.193782 568.343661,217.116062 566.206666,217.116062 L563.001172,217.116062 C561.349858,217.116062 560.669905,216.239378 560.669905,213.706736 L560.669905,192.86114 L554.064646,192.86114 C556.201641,185.165803 556.881594,177.665285 556.881594,171.13886 L556.881594,157.306736 L543.865349,157.306736 L543.865349,170.846632 C543.865349,185.847668 541.339809,205.81658 516.27868,218.966839 C518.901357,221.012435 523.466756,226.272539 525.118071,229 Z" id="红人接单变现"></path>
            </g>
        </g>
    </g>
</svg>