<?xml version="1.0" encoding="UTF-8"?>
<svg width="112px" height="112px" viewBox="0 0 112 112" version="1.1" xmlns="http://www.w3.org/2000/svg" xmlns:xlink="http://www.w3.org/1999/xlink">
    <title>ic_xiaohongshu</title>
    <g id="页面-1" stroke="none" stroke-width="1" fill="none" fill-rule="evenodd">
        <g id="2-3达人主页-达人名片" transform="translate(-49.000000, -872.000000)">
            <g id="ic_xiaohongshu" transform="translate(49.000000, 872.000000)">
                <path d="M25.638852,-1.03584031e-15 L86.361148,-3.97246635e-15 C95.2763354,2.30811735e-15 98.5091978,0.928256111 101.768457,2.67132704 C105.027716,4.41439796 107.585602,6.97228371 109.328673,10.231543 C111.071744,13.4908022 112,16.7236646 112,25.638852 L112,86.361148 C112,95.2763354 111.071744,98.5091978 109.328673,101.768457 C107.585602,105.027716 105.027716,107.585602 101.768457,109.328673 C98.5091978,111.071744 95.2763354,112 86.361148,112 L25.638852,112 C16.7236646,112 13.4908022,111.071744 10.231543,109.328673 C6.97228371,107.585602 4.41439796,105.027716 2.67132704,101.768457 C0.928256111,98.5091978 3.31120576e-15,95.2763354 -5.69886686e-15,86.361148 L6.90560205e-16,25.638852 C-4.01235366e-16,16.7236646 0.928256111,13.4908022 2.67132704,10.231543 C4.41439796,6.97228371 6.97228371,4.41439796 10.231543,2.67132704 C13.4908022,0.928256111 16.7236646,6.01853049e-16 25.638852,-1.03584031e-15 Z" id="矩形" fill="#FF0000"></path>
                <g id="小红书" transform="translate(15.000000, 42.000000)" fill="#FFFFFF">
                    <path d="M65.4829365,0 L65.4829365,2.18336198 L70.8838963,2.18336198 C72.6965232,2.18336198 74.1659476,3.65278639 74.1659476,5.46541326 L74.1659476,11.85866 L77.5443646,11.85866 C79.3569915,11.85866 80.8264159,13.3280844 80.8264159,15.1407113 L80.8264159,25.7179487 C80.8264159,27.5305756 79.3569915,29 77.5443646,29 L72.252624,29 C70.8931539,29 69.7910856,27.8979317 69.7910856,26.5384615 L69.7910856,24.007783 L74.9994234,24.007783 L74.9994234,16.653175 L64.9842394,16.653175 L64.9842394,29 L59.8293126,29 L59.8293126,16.653175 L54.8884883,16.653175 L54.8884883,11.85866 L59.8293126,11.85866 L59.8293126,7.44568069 L56.5450649,7.30833121 L56.5450649,2.18336198 L59.8293126,2.18336198 L59.8293126,0 L65.4829365,0 Z M16.097148,0.353576978 L16.097148,24.3346444 C15.8994499,27.1643626 14.447062,28.5792217 11.7399842,28.5792217 C9.0329065,28.5792217 7.53513781,27.1643626 7.24667816,24.3346444 L10.3600927,24.3346444 L10.3600927,0.353576978 L16.097148,0.353576978 Z M36.791707,23.1172935 L34.0147893,28.5792217 L25.3021414,28.5792217 L28.175309,23.1172935 L36.791707,23.1172935 Z M53.6051135,1.7418473 L53.6051135,7.30833121 L50.092707,7.3078473 L50.092707,23.1168473 L54.8884883,23.1172935 L54.8884883,28.5792217 L36.791707,28.5792217 L39.6610438,23.1172935 L43.770707,23.1168473 L43.770707,7.3078473 L40.9613198,7.30833121 L40.9613198,1.7418473 L53.6051135,1.7418473 Z M6.99984986,7.44568069 C6.75576366,17.7702624 5.57893632,23.9391319 3.46936783,25.9522893 C2.15365766,23.8526257 0.99720172,21.8707831 0,20.0067613 C0.519676006,19.3809784 0.867269057,18.3124988 1.04277915,16.8013226 C1.21828925,15.2901464 1.33324244,12.1715991 1.38763872,7.44568069 L6.99984986,7.44568069 Z M24.963136,7.44568069 C24.9981922,14.644526 25.4641875,18.7388997 26.3611217,19.7288017 C25.601746,21.5650852 23.370452,25.451949 23.0459875,25.8606694 C22.7326005,25.6426633 21.256608,24.3788751 20.6006631,20.7343877 C20.2333677,18.6936627 19.9005099,14.2640937 19.6020896,7.44568069 L24.963136,7.44568069 Z M38.0683864,0 L34.2276149,7.44568069 L39.6610438,7.44568069 L35.4421804,16.653175 L39.1642204,16.698985 L36.7401987,21.3087708 L29.669238,21.3087708 C28.9895029,21.3087708 28.4384687,20.7577366 28.4384687,20.0780016 C28.4384687,19.9014183 28.4764664,19.7269025 28.5498816,19.5663041 C29.6471039,17.1660916 30.7443261,14.7658791 31.8415484,12.3656666 L27.6545053,12.3656666 L27.6545053,12.3656666 C27.2013485,12.3656666 26.8339924,11.9983105 26.8339924,11.5451538 C26.8339924,11.4242836 26.8606967,11.3049062 26.9121961,11.1955563 L32.184848,0 L38.0683864,0 Z M69.0586392,7.30833121 L64.8440413,7.30833121 L64.8440413,12.1790046 L69.0586392,12.1790046 L69.0586392,7.30833121 Z M77.8390516,1.04603681 C79.5847952,1.04603681 81,2.44789917 81,4.17718401 C81,5.90646886 79.5847952,7.30833121 77.8390516,7.30833121 L77.8390516,7.30833121 L74.6781031,7.30833121 L74.6781031,7.30833121 L74.6789779,6.57972442 C74.6791966,6.22546102 74.6791283,5.88729154 74.6789574,5.56986873 L74.6781031,4.17718401 C74.6781031,2.44789917 76.0933079,1.04603681 77.8390516,1.04603681 Z" id="形状结合"></path>
                </g>
            </g>
        </g>
    </g>
</svg>