<?xml version="1.0" encoding="UTF-8"?>
<svg width="40px" height="40px" viewBox="0 0 40 40" version="1.1" xmlns="http://www.w3.org/2000/svg" xmlns:xlink="http://www.w3.org/1999/xlink">
    <title>ic_xiaohongshu</title>
    <g id="页面-1" stroke="none" stroke-width="1" fill="none" fill-rule="evenodd">
        <g id="2-1首页-探索" transform="translate(-56.000000, -1251.000000)">
            <g id="ic_xiaohongshu" transform="translate(56.000000, 1251.000000)">
                <path d="M20,0 C8.954305,0 0,8.954305 0,20 C0,31.045695 8.954305,40 20,40 C31.045695,40 40,31.045695 40,20 C40,8.954305 31.045695,0 20,0 Z" id="路径" fill="#FF0000" fill-rule="nonzero"></path>
                <g id="小红书" transform="translate(2.500000, 13.750000)" fill="#FFFFFF">
                    <path d="M26.4175093,0 L26.4175093,0.880226161 L26.6384091,0.880226161 C28.451036,0.880226161 29.9204604,2.34965057 29.9204604,4.16227744 L29.9204604,4.78083931 C31.4044523,4.78083931 32.6074655,5.98385246 32.6074655,7.46784438 L32.6074655,9.46543146 C32.6074655,10.6948001 31.6108653,11.6914002 30.3814967,11.6914002 L30.1681489,11.6914002 C29.1071336,11.6914002 28.2378792,10.8703739 28.1610483,9.82898353 L28.155528,9.67877927 L30.2567061,9.67877927 L30.2567061,6.71375635 L26.2163219,6.71375635 L26.2163219,11.6914002 L24.1366912,11.6914002 L24.1366912,6.71375635 L22.143435,6.71375635 L22.143435,4.78083931 L24.1366912,4.78083931 L24.1366912,3.00173906 L22.8117408,2.94636638 L22.8117408,0.880226161 L24.1366912,0.880226161 L24.1366912,0 L26.4175093,0 Z M6.49400561,0.142545171 L6.49400561,9.81055403 C6.41424908,10.9513598 5.82831824,11.5217627 4.73621311,11.5217627 C3.64410797,11.5217627 3.03986937,10.9513598 2.92349729,9.81055403 L4.17952918,9.81055403 L4.17952918,0.142545171 L6.49400561,0.142545171 Z M14.8427256,9.31977689 L13.7224453,11.5217627 L10.2075379,11.5217627 L11.366648,9.31977689 L14.8427256,9.31977689 Z M21.6256884,0.702228756 L21.6256884,2.94636638 L20.2087256,2.94622876 L20.2087256,9.31922876 L22.143435,9.31977689 L22.143435,11.5217627 L14.8427256,11.5217627 L16.0002903,9.31977689 L17.6577256,9.31922876 L17.6577256,2.94622876 L16.5248552,2.94636638 L16.5248552,0.702228756 L21.6256884,0.702228756 Z M2.82392037,3.00173906 C2.72544969,7.16411205 2.25068712,9.6511025 1.39963266,10.4627104 C0.868841171,9.61622737 0.402296951,8.81724407 1.02812203e-12,8.06576047 C0.209650734,7.81347499 0.349878756,7.3827156 0.420684065,6.7734823 C0.491489374,6.16424901 0.537864462,4.90700126 0.559809329,3.00173906 L2.82392037,3.00173906 Z M10.0707743,3.00173906 C10.0849169,5.90396602 10.2729114,7.55461986 10.6347579,7.95370056 C10.3284061,8.69400144 9.42824443,10.2609973 9.29734709,10.4257736 C9.17091868,10.3378841 8.57546515,9.8283857 8.31083999,8.35910431 C8.16266355,7.53638249 8.0283801,5.75059407 7.90798964,3.00173906 L10.0707743,3.00173906 Z M15.3577711,2.66453526e-15 L13.8083046,3.00173906 L16.0002903,3.00173906 L14.2982917,6.71375635 L15.7998589,6.73222473 L14.8219458,8.59066784 L13.1128554,8.59066784 C12.4331203,8.59066784 11.8820861,8.03963369 11.8820861,7.35989861 C11.8820861,7.18320865 11.9201297,7.00858998 11.9936306,6.84791341 L12.8457037,4.9852399 L12.8457037,4.9852399 L11.9285162,4.9852399 L11.9285162,4.9852399 C11.4753595,4.9852399 11.1080034,4.6178838 11.1080034,4.16472708 C11.1080034,4.04378439 11.1347397,3.92433717 11.1862987,3.81493512 L12.9841996,2.66453526e-15 L15.3577711,2.66453526e-15 Z M27.8600402,2.94636638 L26.1597624,2.94636638 L26.1597624,4.90998681 L27.8600402,4.90998681 L27.8600402,2.94636638 Z M31.4022855,0.421711552 C32.1065636,0.421711552 32.6774938,0.986874787 32.6774938,1.68403897 C32.6774938,2.38120315 32.1065636,2.94636638 31.4022855,2.94636638 L31.4022855,2.94636638 L30.1270772,2.94636638 L30.1270772,2.94636638 L30.1270772,1.68403897 C30.1270772,0.986874787 30.6980074,0.421711552 31.4022855,0.421711552 Z" id="形状结合"></path>
                </g>
            </g>
        </g>
    </g>
</svg>