<?xml version="1.0" encoding="UTF-8"?>
<svg width="44px" height="44px" viewBox="0 0 44 44" version="1.1" xmlns="http://www.w3.org/2000/svg" xmlns:xlink="http://www.w3.org/1999/xlink">
    <title>ic_zhenxiang</title>
    <defs>
        <linearGradient x1="11.1047889%" y1="12.0240694%" x2="86.1991822%" y2="86.9711367%" id="linearGradient-1">
            <stop stop-color="#F0E212" offset="0%"></stop>
            <stop stop-color="#A5D955" offset="100%"></stop>
        </linearGradient>
    </defs>
    <g id="页面-1" stroke="none" stroke-width="1" fill="none" fill-rule="evenodd">
        <g id="4-1我的-未登录" transform="translate(-472.000000, -936.000000)">
            <g id="ic_zhenxiang" transform="translate(472.000000, 936.000000)">
                <g id="编组"></g>
                <rect id="矩形" fill="url(#linearGradient-1)" x="0" y="0" width="44" height="44" rx="22"></rect>
                <g id="编组" transform="translate(6.500494, 13.396325)">
                    <path d="M13.0574562,2.58858122 L1.58193956,2.58858122 C1.10074977,2.58858122 0.710606247,2.19982683 0.710606247,1.72030262 C0.710606247,1.2407307 1.10074977,0.851976302 1.58193956,0.851976302 L13.0574562,0.851976302 C13.5387418,0.851976302 13.9288375,1.2407307 13.9288375,1.72030262 C13.9288375,2.19982683 13.5387418,2.58858122 13.0574562,2.58858122" id="Fill-3" fill="#FFFFFF"></path>
                    <path d="M8.19113179,0.868278598 L8.19113179,3.57271302 C8.19113179,4.05228494 7.80098827,4.44099162 7.31975059,4.44099162 C6.83846501,4.44099162 6.44832149,4.05228494 6.44832149,3.57271302 L6.44832149,0.868278598 C6.44832149,0.388754395 6.83846501,0 7.31975059,0 C7.80098827,0 8.19113179,0.388754395 8.19113179,0.868278598" id="Fill-5" fill="#FFFFFF"></path>
                    <path d="M8.6632409,7.57839611 L3.38844872,7.57839611 C2.90716314,7.57839611 2.51706751,7.18964172 2.51706751,6.71011751 C2.51706751,6.23054559 2.90716314,5.84179119 3.38844872,5.84179119 L8.6632409,5.84179119 C9.14447858,5.84179119 9.5346221,6.23054559 9.5346221,6.71011751 C9.5346221,7.18964172 9.14447858,7.57839611 8.6632409,7.57839611" id="Fill-7" fill="#FFFFFF"></path>
                    <path d="M9.1946091,7.41658533 L4.1006642,11.3293749 C3.73968805,11.6065999 3.23986754,11.514112 2.98416213,11.1228283 C2.72845672,10.7315445 2.81375571,10.1895982 3.17468397,9.91237327 L8.26862887,5.9996314 C8.62950924,5.72240647 9.12942553,5.81484659 9.38513094,6.20613032 C9.64078846,6.59741406 9.55548946,7.1393604 9.1946091,7.41658533" id="Fill-9" fill="#FFFFFF"></path>
                    <path d="M9.38066723,11.6291491 L3.23363176,11.6291491 C2.80186845,11.6291491 2.45186,11.2803869 2.45186,10.8501609 L2.45186,10.6715802 C2.45186,10.2413064 2.80186845,9.89254422 3.23363176,9.89254422 L9.38066723,9.89254422 C9.81243054,9.89254422 10.162439,10.2413064 10.162439,10.6715802 L10.162439,10.8501609 C10.162439,11.2803869 9.81243054,11.6291491 9.38066723,11.6291491" id="Fill-11" fill="#FFFFFF"></path>
                    <path d="M13.7680529,14.3707744 L0.871429098,14.3707744 C0.390143525,14.3707744 0,13.98202 0,13.5024958 C0,13.0229238 0.390143525,12.6341694 0.871429098,12.6341694 L13.7680529,12.6341694 C14.2492906,12.6341694 14.6394341,13.0229238 14.6394341,13.5024958 C14.6394341,13.98202 14.2492906,14.3707744 13.7680529,14.3707744" id="Fill-13" fill="#FFFFFF"></path>
                    <path d="M10.7860843,3.15945746 C11.9767205,3.15945746 12.9438309,4.10643403 12.9828089,5.28614351 L12.9840301,5.36017194 L12.9840301,12.728466 L11.2407888,12.728466 L11.2407888,5.36017194 C11.2407888,5.11686499 11.0577959,4.91954667 10.8272373,4.89837336 L10.7860843,4.89649188 L3.85334979,4.89649188 C3.61768176,4.89649188 3.42162202,5.08027639 3.40056497,5.31773651 L3.39869322,5.36017194 L3.39869322,12.6638009 L1.65545187,12.6638009 L1.65545187,5.36017194 C1.65545187,4.17107567 2.59821694,3.19983141 3.77923247,3.16068404 L3.85334979,3.15945746 L10.7860843,3.15945746 Z" id="Stroke-15" fill="#FFFFFF" fill-rule="nonzero"></path>
                    <path d="M4.72786057,13.0603649 C5.14721711,12.8250809 5.67858971,12.9730907 5.9147145,13.3909541 C6.14175757,13.7927458 6.01315764,14.2977339 5.63012304,14.5451515 L5.58294408,14.5735821 L1.3038656,16.9744006 C0.884509067,17.2096847 0.353136462,17.0616749 0.117011672,16.6438115 C-0.110031395,16.2420198 0.0185685388,15.7370316 0.401603139,15.4896141 L0.4487821,15.4611834 L4.72786057,13.0603649 Z" id="Stroke-19" fill="#FFFFFF" fill-rule="nonzero"></path>
                    <path d="M8.71044245,13.3909541 C8.93748552,12.9891624 9.43750179,12.8368654 9.84843515,13.0349113 L9.89729639,13.0603649 L14.1763749,15.4611834 C14.5957314,15.6964675 14.7442701,16.2259481 14.5081453,16.6438115 C14.2811022,17.0456032 13.7810859,17.1979001 13.3701526,16.9998542 L13.3212914,16.9744006 L9.04221288,14.5735821 C8.62285634,14.3382981 8.47431766,13.8088175 8.71044245,13.3909541 Z" id="Stroke-22" fill="#FFFFFF" fill-rule="nonzero"></path>
                    <path d="M28.7808677,2.06238835 L19.1712965,2.06238835 C18.685461,2.06238835 18.2915338,1.66991154 18.2915338,1.18575817 L18.2915338,1.11956589 C18.2915338,0.63541252 18.685461,0.242935704 19.1712965,0.242935704 L28.7808677,0.242935704 C29.2667511,0.242935704 29.6606303,0.63541252 29.6606303,1.11956589 L29.6606303,1.18575817 C29.6606303,1.66991154 29.2667511,2.06238835 28.7808677,2.06238835" id="Fill-23" fill="#FFFFFF"></path>
                    <path d="M24.857545,1.55957039 L24.857545,6.46142637 C24.857545,6.94653421 24.4628994,7.3397746 23.976106,7.3397746 C23.4892648,7.3397746 23.0946192,6.94653421 23.0946192,6.46142637 L23.0946192,1.55957039 C23.0946192,1.07446255 23.4892648,0.681222162 23.976106,0.681222162 C24.4628994,0.681222162 24.857545,1.07446255 24.857545,1.55957039" id="Fill-25" fill="#FFFFFF"></path>
                    <path d="M30.0979014,4.6791359 L17.8542627,4.6791359 C17.371253,4.6791359 16.9797684,4.28899752 16.9797684,3.80770756 C16.9797684,3.32641759 17.371253,2.93627922 17.8542627,2.93627922 L30.0979014,2.93627922 C30.5809112,2.93627922 30.9724436,3.32641759 30.9724436,3.80770756 C30.9724436,4.28899752 30.5809112,4.6791359 30.0979014,4.6791359" id="Fill-27" fill="#FFFFFF"></path>
                    <path d="M22.5958001,3.46421075 C22.9980934,3.19786945 23.5409003,3.30691913 23.8081933,3.70778003 C24.0652059,4.0932232 23.9739081,4.60811659 23.6088678,4.88393003 L23.5637537,4.91585648 L17.8280788,8.7132033 C17.4257855,8.9795446 16.8829785,8.87049492 16.6156855,8.46963402 C16.358673,8.08419085 16.4499707,7.56929747 16.8150111,7.29348402 L16.8601251,7.26155757 L22.5958001,3.46421075 Z" id="Stroke-31" fill="#FFFFFF" fill-rule="nonzero"></path>
                    <path d="M24.175644,3.71464948 C24.4289955,3.33469358 24.9334491,3.22069102 25.3244243,3.44588735 L25.3707733,3.47454375 L31.1064961,7.27189057 C31.5030623,7.53443798 31.6109454,8.06761043 31.3474598,8.46276457 C31.0941083,8.84272047 30.5896547,8.95672303 30.1986795,8.7315267 L30.1523305,8.7028703 L24.4166076,4.90552348 C24.0200415,4.64297607 23.9121584,4.10980362 24.175644,3.71464948 Z" id="Stroke-34" fill="#FFFFFF" fill-rule="nonzero"></path>
                    <path d="M24.0362368,12.6548289 C23.4066239,12.6548289 22.8957399,12.1503931 22.8872148,11.5250263 C22.8941115,10.8983233 23.4057139,10.3922649 24.0363326,10.3922649 C24.6658976,10.3922649 25.1767816,10.8967007 25.1853067,11.5220675 C25.17841,12.1487705 24.6668076,12.6548289 24.0362368,12.6548289 L24.0362368,12.6548289 Z M26.9094384,11.5371003 C26.9094384,11.5318508 26.9090552,11.5266967 26.9090074,11.5214471 C26.9090552,11.5176292 26.9093426,11.5138591 26.9093426,11.5099935 L26.90872,11.5099935 C26.8900414,9.94466766 25.6117059,8.68123974 24.0363326,8.68123974 C22.4609593,8.68123974 21.1826238,9.94466766 21.1638973,11.5099935 L21.1630831,11.5099935 C21.1630831,11.515243 21.1634663,11.5203972 21.1635141,11.525599 C21.1635141,11.5294646 21.1631789,11.5332348 21.1631789,11.5371003 L21.1638015,11.5371003 C21.182528,13.1024262 22.4608156,14.3658541 24.0361889,14.3658541 C25.6115622,14.3658541 26.8898977,13.1024262 26.9086242,11.5371003 L26.9094384,11.5371003 Z" id="Fill-35" fill="#FFFFFF"></path>
                    <path d="M27.3744065,17.0973906 L27.3744065,17.0973906 C26.1659482,17.0973906 25.1862311,16.1211618 25.1862311,14.9170063 L25.1862311,14.619308 L29.562582,14.619308 L29.562582,14.9170063 C29.562582,16.1211618 28.5829127,17.0973906 27.3744065,17.0973906" id="Fill-37" fill="#FFFFFF"></path>
                    <path d="M27.373281,15.3509642 L27.373281,15.3509642 C27.1180545,15.3509642 26.9112009,15.1447993 26.9112009,14.8904816 L26.9112009,13.8163245 C26.9112009,13.5620068 27.1180545,13.3558419 27.373281,13.3558419 C27.6285075,13.3558419 27.835409,13.5620068 27.835409,13.8163245 L27.835409,14.8904816 C27.835409,15.1447993 27.6285075,15.3509642 27.373281,15.3509642" id="Fill-39" fill="#A0D85A"></path>
                    <path d="M24.0749207,6.14389908 C27.1049328,6.14389908 29.561308,8.59152817 29.561308,11.6107518 C29.561308,12.0851756 29.1753373,12.4697721 28.6992182,12.4697721 C28.2230992,12.4697721 27.8371284,12.0851756 27.8371284,11.6107518 C27.8371284,9.54037576 26.1526948,7.86193961 24.0749207,7.86193961 C21.9971166,7.86193961 20.3127129,9.5403579 20.3127129,11.6107518 C20.3127129,13.6811457 21.9971166,15.359564 24.0749207,15.359564 C24.5510397,15.359564 24.9370105,15.7441604 24.9370105,16.2185842 C24.9370105,16.693008 24.5510397,17.0776045 24.0749207,17.0776045 C21.0448758,17.0776045 18.5885334,14.6299905 18.5885334,11.6107518 C18.5885334,8.59151307 21.0448758,6.14389908 24.0749207,6.14389908 Z" id="Stroke-41" fill="#FFFFFF" fill-rule="nonzero"></path>
                    <polygon id="Fill-43" fill="#FFFFFF" points="25.1852971 14.6734072 26.9094767 14.6734072 26.9094767 11.52233 25.1852971 11.52233"></polygon>
                    <polygon id="Fill-45" fill="#FFFFFF" points="27.8337807 14.6734072 29.5579602 14.6734072 29.5579602 11.52233 27.8337807 11.52233"></polygon>
                </g>
            </g>
        </g>
    </g>
</svg>