<?xml version="1.0" encoding="UTF-8"?>
<svg width="240px" height="240px" viewBox="0 0 240 240" version="1.1" xmlns="http://www.w3.org/2000/svg" xmlns:xlink="http://www.w3.org/1999/xlink">
    <title>img_default_page</title>
    <defs>
        <linearGradient x1="0%" y1="50%" x2="100%" y2="50%" id="linearGradient-1">
            <stop stop-color="#232633" offset="0%"></stop>
            <stop stop-color="#232633" stop-opacity="0" offset="100%"></stop>
        </linearGradient>
        <linearGradient x1="0%" y1="50%" x2="100%" y2="50%" id="linearGradient-2">
            <stop stop-color="#232633" offset="0%"></stop>
            <stop stop-color="#232633" stop-opacity="0" offset="100%"></stop>
        </linearGradient>
        <polygon id="path-3" points="0 0 44.2055901 0 44.2055901 5.33596381 0 5.33596381"></polygon>
        <polygon id="path-5" points="0 0 57.6072882 0 57.6072882 66.5436785 0 66.5436785"></polygon>
        <polygon id="path-7" points="0 180 187.888529 180 187.888529 0 0 0"></polygon>
    </defs>
    <g id="页面-1" stroke="none" stroke-width="1" fill="none" fill-rule="evenodd">
        <g id="6-8我收藏的名片-缺省页" transform="translate(-255.000000, -368.000000)">
            <g id="img_default_page" transform="translate(255.000000, 368.000000)">
                <rect id="矩形" fill="#D8D8D8" opacity="0" x="0" y="0" width="240" height="240"></rect>
                <g id="编组-3" transform="translate(10.588235, 0.000000)">
                    <rect id="矩形" fill="#13161F" x="11.25" y="12.4038462" width="168.75" height="216.346154" rx="20"></rect>
                    <rect id="矩形" fill="#1C1F2A" x="0" y="0" width="168.75" height="216.346154" rx="16"></rect>
                    <circle id="椭圆形" fill="#232633" cx="31.875" cy="42.1875" r="11.25"></circle>
                    <rect id="矩形" fill="url(#linearGradient-1)" x="58.125" y="32.8125" width="110.625" height="5.625" rx="2.8125"></rect>
                    <rect id="矩形备份-2" fill="url(#linearGradient-2)" x="58.125" y="45.9375" width="57.6171875" height="5.625" rx="2.8125"></rect>
                </g>
                <g id="编组" transform="translate(42.352941, 60.000000)">
                    <path d="M53.8417171,51.0381556 L35.9294317,51.0381556 C34.4251038,51.0381556 33.1942901,49.8073419 33.1942901,48.303014 L33.1942901,13.1737972 C33.1942901,11.6694693 34.4251038,10.4386556 35.9294317,10.4386556 L53.8417171,10.4386556 C55.346045,10.4386556 56.5768587,11.6694693 56.5768587,13.1737972 L56.5768587,48.303014 C56.5768587,49.8073419 55.346045,51.0381556 53.8417171,51.0381556" id="Fill-1" fill="#4A5FFF"></path>
                    <polygon id="Fill-3" fill="#87888E" points="73.1955296 135.760654 52.8377301 135.760654 52.8377301 131.629021"></polygon>
                    <path d="M40.3477183,60.8098416 L40.3477183,91.5211023 L54.7729047,91.5211023 L54.7729047,101.881174 L118.986758,101.881174 L118.986758,100.245874 L123.756316,103.503254 L138.879336,76.3980829 L117.939802,64.1833206 C117.939802,64.1833206 112.356312,60.8098416 107.237631,60.8098416 L40.3477183,60.8098416 Z" id="Fill-5" fill="#FF3E6C"></path>
                    <path d="M187.241515,63.4300411 C186.192493,62.0025616 184.169232,61.7083893 182.671514,62.6545334 L174.250005,67.9735989 C173.964922,68.1537381 173.598447,68.1421695 173.324932,67.9446774 L172.744438,67.5257297 C172.450265,67.3129506 172.328795,66.9332535 172.445721,66.5895015 L175.978681,56.1922449 C176.569091,54.4557192 175.63121,52.5518623 173.894271,51.961865 C172.157746,51.3718677 170.254302,52.3097486 169.663892,54.0466875 L169.028859,55.9154255 C167.397277,60.7167972 164.727829,65.1000475 161.210569,68.7536513 L148.606193,81.8463859 L138.879501,76.3980003 L125.740492,99.9470738 C125.740492,99.9470738 141.277088,109.726651 144.689818,110.036937 C148.102134,110.347223 155.546925,112.053174 161.59605,106.314335 C167.645588,100.575495 182.070362,88.0116099 182.845869,83.5135001 C183.494536,79.7524738 182.402958,76.4260954 179.943397,73.3513335 C179.636003,72.9670915 179.729378,72.4010577 180.145434,72.1382858 L186.337513,68.2276943 C187.954635,67.2063545 188.393827,64.9979962 187.241515,63.4300411" id="Fill-7" fill="#FFCFBC"></path>
                    <polygon id="Fill-9" fill="#9B0A3A" points="138.879418 76.3980829 129.111823 102.02165 125.740409 99.9471564"></polygon>
                    <path d="M85.10703,39.4233892 L85.10703,39.4233892 C81.2439523,39.4233892 78.0832524,42.5840891 78.0832524,46.4471667 C78.0832524,49.0331564 79.503295,51.2989444 81.5988597,52.5177764 C81.4154151,53.0590204 81.3121243,53.6362096 81.3121243,54.2369492 L81.3121243,60.0538765 C81.3121243,63.0286529 83.7464829,65.4630115 86.7212593,65.4630115 L86.7212593,65.4630115 C89.6964489,65.4630115 92.1308075,63.0286529 92.1308075,60.0538765 L92.1308075,53.4709443 L92.1308075,48.8278142 L92.1308075,46.4471667 C92.1308075,42.5840891 88.9701076,39.4233892 85.10703,39.4233892" id="Fill-11" fill="#FFCFBC"></path>
                    <path d="M118.986469,101.881257 L118.986469,173.358523 L104.968662,173.358523 C93.9995868,173.358523 85.1070713,164.466007 85.1070713,153.496932 L85.1070713,101.881257 L118.986469,101.881257 Z" id="Fill-13" fill="#FFFFFF"></path>
                    <polygon id="Fill-15" fill="#FFFFFF" points="85.10703 138.652798 149.26304 138.652798 162.897432 173.358523 109.646043 173.358523"></polygon>
                    <path d="M52.8377301,177.745161 L9.27047741,177.745161 C8.91804904,177.745161 8.63213998,177.459252 8.63213998,177.106823 L8.63213998,176.918834 L52.8377301,176.918834 L52.8377301,177.745161 Z" id="Fill-17" fill="#4A5FFF"></path>
                    <g transform="translate(8.632140, 174.664036)">
                        <mask id="mask-4" fill="white">
                            <use xlink:href="#path-3"></use>
                        </mask>
                        <g id="Clip-20"></g>
                        <path d="M44.2055901,1.9600471 C44.005619,1.84890615 43.8147375,1.68446712 43.5556841,1.45929308 C42.8462826,0.84326647 41.8753486,0 40.0483401,0 C38.2217448,0 37.2508108,0.84326647 36.5414093,1.45929308 C36.0080154,1.9228624 35.764249,2.13440205 35.1337616,2.13440205 C34.5045138,2.13440205 34.2611606,1.9228624 33.7281798,1.45970624 C33.0196046,0.843679633 32.0486706,0 30.2224885,0 C28.3958932,0 27.4249592,0.843679633 26.7159708,1.45970624 C26.1825769,1.9228624 25.9396368,2.13440205 25.3095627,2.13440205 C24.6803148,2.13440205 24.4369616,1.9228624 23.9039808,1.45970624 C23.1954056,0.843679633 22.2244717,0 20.3982895,0 C18.5721073,0 17.6015865,0.843679633 16.8930113,1.4601194 C16.3604437,1.9228624 16.1175037,2.13440205 15.488669,2.13440205 C14.859008,2.13440205 14.6156548,1.9228624 14.0830872,1.45970624 C13.3740988,0.843679633 12.4031648,0 10.5769827,0 C8.7508005,0 7.77986655,0.843679633 7.07129134,1.45970624 C6.53831057,1.9228624 6.29495734,2.13440205 5.6657095,2.13440205 C5.03646167,2.13440205 4.79310843,1.9228624 4.26054083,1.45970624 C3.55155246,0.843679633 2.58103167,0 0.754849505,0 C0.480095854,0 0.226000372,0.0751957362 0,0.197078935 L0,2.40213192 C0,2.82314541 0.325159584,3.19912409 0.746586238,3.20160307 L0.754849505,3.20160307 C1.38368418,3.20160307 1.62703741,3.41314273 2.16001818,3.87629888 C2.86859339,4.49232549 3.83952734,5.33600512 5.6657095,5.33600512 C7.49189167,5.33600512 8.46282562,4.49232549 9.17140083,3.87629888 C9.7043816,3.41314273 9.94773483,3.20160307 10.5769827,3.20160307 C11.2062305,3.20160307 11.4495837,3.41314273 11.9825645,3.87629888 C12.6915529,4.49232549 13.6620737,5.33600512 15.488669,5.33600512 C17.314438,5.33600512 18.2849588,4.49232549 18.9939472,3.87588572 C19.5265148,3.41314273 19.7694548,3.20160307 20.3982895,3.20160307 C21.0275373,3.20160307 21.2708906,3.41314273 21.8038713,3.87629888 C22.5124465,4.49232549 23.4833805,5.33600512 25.3095627,5.33600512 C27.136158,5.33600512 28.1070919,4.49232549 28.8160803,3.87629888 C29.3490611,3.41314273 29.5924143,3.20160307 30.2224885,3.20160307 C30.8517363,3.20160307 31.0950896,3.41314273 31.6280703,3.87629888 C32.3366455,4.49232549 33.3075795,5.33600512 35.1337616,5.33600512 C36.9607701,5.33600512 37.9317041,4.49232549 38.6411056,3.87671205 C39.1744996,3.41314273 39.418266,3.20160307 40.0483401,3.20160307 C40.6788274,3.20160307 40.9225938,3.41314273 41.4559878,3.87671205 C41.8666722,4.23285888 42.3674262,4.6637883 43.0706303,4.96374491 C43.608569,5.19305059 44.2055901,4.78071353 44.2055901,4.19567418 L44.2055901,1.9600471 Z" id="Fill-19" fill="#FFCFBC" mask="url(#mask-4)"></path>
                    </g>
                    <path d="M150.6899,137.887413 C150.720887,138.12085 150.63371,138.310492 150.607681,138.661268 C150.536617,139.619394 150.43911,140.932014 151.545975,142.476832 C152.652839,144.02165 153.926622,144.351767 154.857066,144.592642 C155.556965,144.77402 154.817402,145.459458 155.199579,145.992439 C155.580928,146.524594 156.615489,146.251079 156.561778,146.971636 C156.490301,147.929762 156.392794,149.241969 157.498833,150.786374 C158.605698,152.330779 159.879893,152.660483 160.809924,152.901357 C161.509823,153.082736 159.646043,154.330076 160.027393,154.862644 C160.408743,155.395211 162.567521,154.558969 162.51381,155.279526 C162.442333,156.237652 162.344413,157.549858 163.450865,159.094263 C164.557316,160.638255 165.831099,160.967959 166.761543,161.20842 C167.460615,161.388973 165.46297,162.008718 165.843907,162.540459 C166.225257,163.073027 168.517487,162.864379 168.463776,163.584523 C168.392299,164.543062 168.294792,165.855269 169.401244,167.399674 C170.507695,168.944078 171.781478,169.273783 172.711922,169.514244 C173.411407,169.695209 171.453426,170.587642 171.834776,171.119797 C172.216126,171.651951 174.468279,171.171029 174.414568,171.891173 C174.343504,172.849712 174.245584,174.161506 175.352036,175.70591 C175.518541,175.938108 175.395005,175.88605 175.630508,176.00628 L177.762018,174.945277 C178.10453,174.699857 178.212779,174.206127 177.95951,173.848328 C177.957857,173.846262 177.956205,173.843783 177.954552,173.841304 C177.573615,173.309563 177.597992,172.980685 177.651703,172.260128 C177.723181,171.302002 177.8211,169.989795 176.714649,168.44539 C175.608197,166.900985 174.334001,166.571281 173.403971,166.33082 C172.704485,166.149854 172.38511,166.067635 172.00376,165.535067 C171.62241,165.002913 171.6472,164.674035 171.700498,163.953478 C171.771975,162.995352 171.869895,161.683145 170.763443,160.13874 C169.656992,158.594749 168.383209,158.265044 167.452765,158.024583 C166.753693,157.844031 166.434731,157.761398 166.053794,157.229657 C165.672444,156.697502 165.696821,156.368624 165.750532,155.648067 C165.822009,154.689942 165.919929,153.377735 164.813064,151.83333 C163.706613,150.288925 162.432417,149.958808 161.502386,149.717933 C160.802487,149.536968 160.483525,149.454335 160.101762,148.921768 C159.720412,148.389613 159.744789,148.060735 159.7985,147.340178 C159.869977,146.382465 159.967897,145.069845 158.861446,143.525441 C157.754581,141.980623 156.480385,141.650092 155.549941,141.409218 C154.850042,141.227839 154.530667,141.145206 154.148491,140.612226 C153.766728,140.079245 153.791105,139.749954 153.844403,139.028983 C153.885719,138.473692 153.932406,137.799822 153.750201,137.030512 C153.610965,136.441754 152.913959,136.176917 152.438408,136.517776 L150.6899,137.887413 Z" id="Fill-21" fill="#FFCFBC"></path>
                    <path d="M52.8377301,176.842977 L8.63213998,176.842977 L8.63213998,174.221456 C8.63213998,169.508501 12.4968703,165.687566 17.2643626,165.687566 L52.8377301,165.687566 L52.8377301,176.842977 Z" id="Fill-23" fill="#4A5FFF"></path>
                    <path d="M118.943872,135.760654 L18.1320057,135.760654 L18.1320057,121.742847 C18.1320057,110.773359 27.0241081,101.881257 37.993596,101.881257 L118.943872,101.881257 L118.943872,135.760654 Z" id="Fill-25" fill="#FFFFFF"></path>
                    <polygon id="Fill-27" fill="#FFFFFF" points="52.8377301 101.881257 52.8377301 175.126449 18.1320057 165.623278 18.1320057 126.42027"></polygon>
                    <polygon id="Fill-29" fill="#B8B9BF" points="73.3893858 135.760654 52.8378127 135.760654 52.8378127 131.727767"></polygon>
                    <path d="M149.262875,138.652798 L162.659285,172.770591 C164.474725,177.393476 169.928481,179.382032 174.293553,177.01254 L177.374099,175.340467 L150.689942,137.887206 L149.262875,138.652798 Z" id="Fill-31" fill="#4A5FFF"></path>
                    <g transform="translate(0.000000, 21.138351)">
                        <mask id="mask-6" fill="white">
                            <use xlink:href="#path-5"></use>
                        </mask>
                        <g id="Clip-34"></g>
                        <path d="M57.6072882,10.4980653 C57.6072882,8.53512602 55.9715744,6.92915994 53.9726899,6.92915994 L54.1792716,6.92915994 C56.0645361,6.92915994 57.6072882,5.4140898 57.6072882,3.56311784 C57.6072882,1.71131954 56.0645361,0.196662571 54.1792716,0.196662571 C54.1792716,0.196662571 38.1836511,-1.27667806 31.7238416,3.84200312 C25.4379738,8.82227457 5.93170409,34.5970592 1.12165596,44.3675469 C0.801867499,44.9422572 0.546532526,45.556218 0.359369513,46.1999266 C0.345735121,46.2449614 0.328795422,46.2928883 0.316400521,46.3358573 L0.324663788,46.3342047 C0.119321586,47.0853357 -8.26326771e-05,47.8719988 -8.26326771e-05,48.6879965 L-8.26326771e-05,50.598464 C-8.26326771e-05,59.4050415 7.1389675,66.5436785 15.9451319,66.5436785 L40.3321007,66.5436785 L40.3321007,39.788044 L37.5403557,39.788044 C37.5403557,39.788044 39.6408784,35.9600852 42.5272378,32.3730007 C45.3578201,28.8557408 49.6642221,26.8531379 54.1792716,26.8531379 C56.0645361,26.8531379 57.6072882,25.3384809 57.6072882,23.4870958 C57.6072882,22.1587755 56.8107092,21.006876 55.6650071,20.4602608 C56.8107092,19.9136457 57.6072882,18.7617461 57.6072882,17.4330127 C57.6072882,15.5820407 56.0645361,14.0669706 54.1792716,14.0669706 L53.9726899,14.0669706 C55.9715744,14.0669706 57.6072882,12.4610045 57.6072882,10.4980653" id="Fill-33" fill="#FFCFBC" mask="url(#mask-6)"></path>
                    </g>
                    <polygon id="Fill-35" fill="#9B0A3A" points="40.3477183 60.8098416 40.3237548 87.7985002 36.0194187 87.7985002"></polygon>
                    <mask id="mask-8" fill="white">
                        <use xlink:href="#path-7"></use>
                    </mask>
                    <g id="Clip-38"></g>
                    <polygon id="Fill-37" fill="#593F3B" mask="url(#mask-8)" points="36.0195839 44.0551986 36.4327473 44.0551986 36.4327473 27.5286632 36.0195839 27.5286632"></polygon>
                    <polygon id="Fill-39" fill="#593F3B" mask="url(#mask-8)" points="44.0423906 28.1484083 54.1669593 28.1484083 54.1669593 27.7352449 44.0423906 27.7352449"></polygon>
                    <polygon id="Fill-40" fill="#593F3B" mask="url(#mask-8)" points="44.0423906 35.397773 54.1669593 35.397773 54.1669593 34.9846097 44.0423906 34.9846097"></polygon>
                    <polygon id="Fill-41" fill="#593F3B" mask="url(#mask-8)" points="45.58349 41.7960212 55.7080588 41.7960212 55.7080588 41.3828579 45.58349 41.3828579"></polygon>
                    <polygon id="Fill-42" fill="#593F3B" mask="url(#mask-8)" points="27.7759828 73.4524759 27.455368 73.1921829 37.5043279 60.8096763 37.8249427 61.0699692"></polygon>
                    <polygon id="Fill-43" fill="#593F3B" mask="url(#mask-8)" points="144.798356 85.9875638 144.506249 85.6954573 148.461462 81.7402442 148.753569 82.0323507"></polygon>
                    <path d="M174.513438,84.8542153 L181.742558,78.0572644 C181.842543,77.9634764 181.847501,77.8056479 181.7533,77.7056624 C181.704134,77.6531907 181.636788,77.6284009 181.569856,77.6292272 C181.508707,77.626335 181.446733,77.6469932 181.398393,77.692028 L174.10482,84.5493007 C172.708327,85.7974673 170.557399,85.7127688 169.267089,84.34024 C168.011899,83.0053091 168.024294,80.9328816 169.251389,79.6082798 C169.902535,80.2842151 170.778028,80.673415 171.724172,80.7027496 C171.762596,80.7039891 171.800607,80.7044023 171.838618,80.7044023 C172.757494,80.7044023 173.625137,80.362303 174.293635,79.7338815 C174.989402,79.0798438 175.388931,78.1903031 175.418266,77.229285 C175.448014,76.268267 175.103849,75.3560022 174.449811,74.6602351 L167.402483,67.164625 C167.312827,67.0695974 167.163262,67.0650526 167.068647,67.1542959 C166.97362,67.2435392 166.969075,67.3931043 167.058318,67.4881319 L174.105646,74.983742 C174.673332,75.5877869 174.972049,76.3802343 174.94602,77.2148243 C174.920404,78.0498275 174.57376,78.8220299 173.969715,79.3897164 C173.36567,79.957816 172.569504,80.2548805 171.739046,80.2305039 C170.904043,80.2048877 170.13184,79.8582436 169.563741,79.2541988 L169.479455,79.1645423 C169.4683,79.1352077 169.451774,79.1071126 169.42905,79.0831491 C169.406326,79.0587725 169.37947,79.0405933 169.350962,79.0277852 L167.153759,76.69052 C167.139298,76.660359 167.119466,76.6326771 167.093024,76.6091268 C166.989733,76.518644 166.832318,76.5289731 166.741835,76.6322639 C163.534447,80.2879336 157.63654,78.2208771 157.577458,78.1998058 C157.448138,78.1527052 157.305596,78.2200508 157.258909,78.349371 C157.212221,78.4786911 157.279154,78.6212325 157.408474,78.6679199 C157.441527,78.6799017 159.191687,79.2946888 161.342203,79.2946888 C163.191522,79.2946888 165.335427,78.8360774 166.937261,77.1503708 L168.90929,79.2475882 C167.483876,80.7605925 167.461979,83.1470242 168.904332,84.681513 C169.684384,85.5107319 170.739191,85.9296796 171.796476,85.9296796 C172.304254,85.9296796 172.811618,85.8305204 173.290061,85.6367468 C172.662053,86.9266428 172.851695,88.5255851 173.891214,89.6312104 C174.539054,90.3203669 175.420332,90.7161774 176.37226,90.745512 C176.410271,90.7467515 176.447869,90.7475778 176.48588,90.7475778 C177.396079,90.7475778 178.210837,90.2046811 178.872725,89.5820439 C178.967339,89.4932138 178.961968,89.3663726 178.872725,89.2717582 C178.783895,89.1771438 178.689694,89.3548041 178.595492,89.4436342 C177.997645,90.0055364 177.212221,90.3026009 176.386721,90.2757452 C175.560394,90.2505423 174.795629,89.9067903 174.233727,89.3093561 C173.121078,88.125643 173.128101,86.2907844 174.20935,85.1124424 C174.31388,85.0322887 174.415518,84.9463507 174.513438,84.8542153" id="Fill-44" fill="#593F3B" mask="url(#mask-8)"></path>
                    <path d="M80.797364,43.7020679 C80.797364,44.0441672 80.5197182,44.321813 80.1776189,44.321813 C79.8351065,44.321813 79.5578739,44.0441672 79.5578739,43.7020679 C79.5578739,43.3595554 79.8351065,43.0823228 80.1776189,43.0823228 C80.5197182,43.0823228 80.797364,43.3595554 80.797364,43.7020679" id="Fill-45" fill="#35211F" mask="url(#mask-8)"></path>
                    <path d="M83.9801268,45.8177123 C83.9801268,46.1602248 83.702481,46.4374574 83.3603818,46.4374574 C83.0182825,46.4374574 82.7406367,46.1602248 82.7406367,45.8177123 C82.7406367,45.475613 83.0182825,45.1979672 83.3603818,45.1979672 C83.702481,45.1979672 83.9801268,45.475613 83.9801268,45.8177123" id="Fill-46" fill="#35211F" mask="url(#mask-8)"></path>
                    <path d="M80.9298242,46.6440391 C80.8723945,46.6440391 80.8153779,46.6200756 80.7744748,46.5738013 L80.4150226,46.1643564 C80.1683641,45.8838185 80.1687772,45.4607391 80.4162621,45.1806144 L82.5039767,42.7710455 C82.5783461,42.6851075 82.7089057,42.6756048 82.7952569,42.7503873 C82.881608,42.8247568 82.8906976,42.9553164 82.8159151,43.0416675 L80.726961,45.4524759 C80.61582,45.5784907 80.6154069,45.7668932 80.7253083,45.8916686 L81.0847605,46.3011135 C81.1603694,46.3866383 81.1516929,46.5171979 81.0661681,46.5923937 C81.0269176,46.6270994 80.9781643,46.6440391 80.9298242,46.6440391" id="Fill-47" fill="#35211F" mask="url(#mask-8)"></path>
                    <path d="M82.150846,42.1315512 C81.9847543,41.7886256 81.7104138,41.549404 81.3815357,41.4436342 C81.2732869,41.4085153 81.2133782,41.2920032 81.2484971,41.1833413 C81.283616,41.0750924 81.3997149,41.0151838 81.5087901,41.0503026 C81.9438511,41.1907782 82.307848,41.5076745 82.507406,41.9191852 L82.3367695,42.0418948 L82.150846,42.1315512 Z" id="Fill-48" fill="#35211F" mask="url(#mask-8)"></path>
                    <path d="M84.6701923,44.2933873 C84.6007809,44.2933873 84.5375669,44.2586816 84.5041006,44.1896833 C84.3375958,43.8459314 84.0632553,43.6071229 83.7343773,43.5013531 C83.6261285,43.4662342 83.5662198,43.3497221 83.6013386,43.2410602 C83.6364575,43.1323982 83.7529696,43.073729 83.8612184,43.1076084 C84.2966926,43.2484971 84.6606896,43.5649803 84.8598343,43.9769042 C84.9098271,44.0793687 84.8747082,44.2194311 84.7718305,44.2690107 C84.7383643,44.2851241 84.7036586,44.2933873 84.6701923,44.2933873" id="Fill-49" fill="#35211F" mask="url(#mask-8)"></path>
                    <path d="M80.4363832,47.7031834 C80.4363832,47.7031834 82.0501994,47.8899333 82.7405954,47.1991241 C82.7405954,47.1991241 82.7943066,48.7113021 81.8911314,48.7113021 C80.9875431,48.7113021 80.4363832,47.7031834 80.4363832,47.7031834" id="Fill-50" fill="#FF395F" mask="url(#mask-8)"></path>
                    <path d="M85.10703,39.4233892 C84.8839217,39.4233892 84.6641188,39.4366104 84.4463817,39.4572686 C84.4273762,40.2348421 84.4860454,43.6413742 86.7782759,46.6446588 C86.7782759,46.6446588 88.0673456,46.2327349 88.4259715,46.5884686 C88.7651786,46.9243704 88.728407,48.5059599 88.8676431,48.7121284 C89.7629682,49.3847584 90.8388456,49.9834321 92.1308075,50.4565042 L92.1308075,48.8278142 L92.1308075,46.4471667 C92.1308075,42.5840891 88.9701076,39.4233892 85.10703,39.4233892" id="Fill-51" fill="#35211F" mask="url(#mask-8)"></path>
                    <path d="M88.3975458,40.2474849 C88.3975458,40.2474849 87.3117524,32.5254612 91.9652116,28.8024459 C96.6182577,25.080257 101.736526,25.8557647 108.716508,28.8024459 C115.69649,31.7495404 126.554011,27.40678 131.982565,24.3047493 C137.411118,21.2023055 151.836305,24.7699713 155.869192,37.3334435 C159.901667,49.8969157 151.836305,65.2525461 131.672279,62.6161506 C111.508666,59.9789287 109.26147,29.3217923 90.8038094,42.3508997 L88.3975458,40.2474849 Z" id="Fill-52" fill="#35211F" mask="url(#mask-8)"></path>
                    <polygon id="Fill-53" fill="#35211F" mask="url(#mask-8)" points="8.63222261 175.067656 52.8378127 175.067656 52.8378127 174.654492 8.63222261 174.654492"></polygon>
                    <polygon id="Fill-54" fill="#35211F" mask="url(#mask-8)" points="52.7834817 175.266966 18.0777573 165.822464 18.1864193 165.423761 52.8921437 174.868263"></polygon>
                    <polygon id="Fill-55" fill="#35211F" mask="url(#mask-8)" points="84.67577 135.760531 85.0889334 135.760531 85.0889334 110.513356 84.67577 110.513356"></polygon>
                    <path d="M38.3901502,153.175863 L37.9769868,153.175863 L37.9769868,128.736836 C37.9769868,123.155411 42.5180656,118.614333 48.0994897,118.614333 L73.1954469,118.614333 L73.1954469,119.027496 L48.0994897,119.027496 C42.7457186,119.027496 38.3901502,123.383064 38.3901502,128.736836 L38.3901502,153.175863 Z" id="Fill-56" fill="#35211F" mask="url(#mask-8)"></path>
                    <polygon id="Fill-57" fill="#35211F" mask="url(#mask-8)" points="136.296032 153.382445 101.840271 153.382445 101.840271 118.820914 102.253434 118.820914 102.253434 152.969281 136.296032 152.969281"></polygon>
                    <path d="M114.891235,122.699816 C106.906852,122.699816 99.5756812,118.681802 95.2800215,111.951371 L94.0103704,109.961989 L94.3586671,109.739707 L95.6283182,111.729089 C99.8475427,118.339703 107.048567,122.286653 114.891235,122.286653 L114.891235,122.699816 Z" id="Fill-58" fill="#35211F" mask="url(#mask-8)"></path>
                    <polygon id="Fill-59" fill="#35211F" mask="url(#mask-8)" points="174.117958 177.12178 149.957403 138.295164 150.308179 138.077014 174.468734 176.90363"></polygon>
                    <polygon id="Fill-60" fill="#35211F" mask="url(#mask-8)" points="162.705022 173.433966 149.07063 138.728242 149.455285 138.577437 163.089677 173.283162"></polygon>
                    <path d="M37.673477,14.7431157 C37.673477,15.4285537 37.1177722,15.9838453 36.4327473,15.9838453 C35.7473093,15.9838453 35.1916045,15.4285537 35.1916045,14.7431157 C35.1916045,14.0576776 35.7473093,13.502386 36.4327473,13.502386 C37.1177722,13.502386 37.673477,14.0576776 37.673477,14.7431157" id="Fill-61" fill="#FFFFFF" mask="url(#mask-8)"></path>
                    <path d="M37.1954469,17.6124527 C37.1954469,18.0338794 36.8537608,18.3755655 36.4327473,18.3755655 C36.0113207,18.3755655 35.6696346,18.0338794 35.6696346,17.6124527 C35.6696346,17.1910261 36.0113207,16.8497531 36.4327473,16.8497531 C36.8537608,16.8497531 37.1954469,17.1910261 37.1954469,17.6124527" id="Fill-62" fill="#FFFFFF" mask="url(#mask-8)"></path>
                    <g mask="url(#mask-8)">
                        <g transform="translate(49.104716, 3.179871)">
                            <line x1="5.42855372" y1="5.19594274" x2="5.87140484e-15" y2="0" id="Fill-63" stroke="none" fill="#FFFFFF" fill-rule="evenodd"></line>
                            <line x1="5.42855372" y1="5.19594274" x2="5.87140484e-15" y2="0" id="Stroke-64" stroke="#FFFFFF" stroke-width="1" fill="none"></line>
                        </g>
                    </g>
                    <g mask="url(#mask-8)">
                        <g transform="translate(56.808395, 0.000000)">
                            <line x1="0.5" y1="7.1349185" x2="0.5" y2="0" id="Fill-65" stroke="none" fill="#FFFFFF" fill-rule="evenodd"></line>
                            <line x1="0.5" y1="7.1349185" x2="0.5" y2="0" id="Stroke-66" stroke="#FFFFFF" stroke-width="1" fill="none"></line>
                        </g>
                    </g>
                    <g mask="url(#mask-8)">
                        <g transform="translate(59.496684, 3.179871)">
                            <line x1="1.17428097e-14" y1="5.19594274" x2="5.19594274" y2="0" id="Fill-67" stroke="none" fill="#FFFFFF" fill-rule="evenodd"></line>
                            <line x1="1.17428097e-14" y1="5.19594274" x2="5.19594274" y2="0" id="Stroke-68" stroke="#FFFFFF" stroke-width="1" fill="none"></line>
                        </g>
                    </g>
                    <g mask="url(#mask-8)">
                        <g transform="translate(60.504844, 10.728490)">
                            <line x1="0" y1="0.5" x2="7.60014048" y2="0.5" id="Fill-69" stroke="none" fill="#FFFFFF" fill-rule="evenodd"></line>
                            <line x1="0" y1="0.5" x2="7.60014048" y2="0.5" id="Stroke-70" stroke="#FFFFFF" stroke-width="1" fill="none"></line>
                        </g>
                    </g>
                    <g mask="url(#mask-8)">
                        <g transform="translate(59.496684, 13.494329)">
                            <line x1="1.17428097e-14" y1="0" x2="5.19594274" y2="5.19594274" id="Fill-71" stroke="none" fill="#FFFFFF" fill-rule="evenodd"></line>
                            <line x1="1.17428097e-14" y1="0" x2="5.19594274" y2="5.19594274" id="Stroke-72" stroke="#FFFFFF" stroke-width="1" fill="none"></line>
                        </g>
                    </g>
                    <path d="M81.5925383,52.5386824 C81.4136385,53.0741422 81.3120003,53.6438945 81.3120003,54.2371971 L81.3120003,55.9658727 C81.8924949,55.6812031 86.3195406,53.1514037 86.3195406,53.1514037 C83.8546078,53.4154151 82.2354205,52.8361601 81.5925383,52.5386824" id="Fill-73" fill="#35211F" mask="url(#mask-8)"></path>
                    <path d="M92.0606111,60.8098416 C91.645795,63.3681492 89.4275208,65.3294358 86.7543537,65.3294358 C84.0807734,65.3294358 81.8624992,63.3681492 81.4476832,60.8098416 L81.029975,60.8098416 C81.4476832,63.6003471 83.8473361,65.7425992 86.7543537,65.7425992 C89.6609581,65.7425992 92.0606111,63.6003471 92.4783193,60.8098416 L92.0606111,60.8098416 Z" id="Fill-74" fill="#35211F" mask="url(#mask-8)"></path>
                    <path d="M86.347553,50.3722189 L86.3182184,50.3722189 C86.2041853,50.3713926 86.1120499,50.2780176 86.1128707,50.1643977 C86.1137026,50.0499515 86.1913773,49.9503791 86.3211106,49.9590555 C87.8250253,49.9594687 88.3456112,49.1476026 88.5253372,48.6563514 C88.7753011,47.9733923 88.6426756,47.1648315 88.2229016,46.8152953 C87.4411965,46.1633235 86.5553742,46.9673394 86.5181895,47.001632 C86.4339042,47.0793067 86.3037577,47.0743488 86.226083,46.9904766 C86.1488215,46.9070176 86.1537794,46.7760448 86.2372384,46.6987832 C86.6454438,46.3207387 87.6415808,45.7927159 88.4873262,46.4975727 C89.0413783,46.9590762 89.2244097,47.9481893 88.9132977,48.7980664 C88.5468217,49.7995744 87.6126593,50.3722189 86.347553,50.3722189" id="Fill-75" fill="#35211F" mask="url(#mask-8)"></path>
                </g>
            </g>
        </g>
    </g>
</svg>