<?xml version="1.0" encoding="UTF-8"?>
<svg width="324px" height="209px" viewBox="0 0 324 209" version="1.1" xmlns="http://www.w3.org/2000/svg" xmlns:xlink="http://www.w3.org/1999/xlink">
    <title>img_default_page</title>
    <defs>
        <polygon id="path-1" points="0 0 68.3300379 0 68.3300379 30.1379271 0 30.1379271"></polygon>
        <polygon id="path-3" points="0 208.643963 324 208.643963 324 0 0 0"></polygon>
    </defs>
    <g id="页面-1" stroke="none" stroke-width="1" fill="none" fill-rule="evenodd">
        <g id="1-0授权协议" transform="translate(-213.000000, -258.000000)">
            <g id="img_default_page" transform="translate(213.000000, 258.000000)">
                <path d="M166.572963,27.4684875 L101.725774,0.905902596 C101.200849,0.690585988 100.601785,0.942783023 100.386945,1.46887146 L100.27276,1.74927118 L166.070226,28.70127 L166.572963,27.4684875 Z" id="Fill-1" fill="#4A5FFF"></path>
                <g id="编组" transform="translate(99.020895, 0.000000)">
                    <mask id="mask-2" fill="white">
                        <use xlink:href="#path-1"></use>
                    </mask>
                    <g id="Clip-4"></g>
                    <path d="M66.8700448,29.1411233 C66.5047619,29.1845121 66.1205384,29.3135935 65.5977779,29.4914874 C64.1680335,29.9779836 62.2090347,30.6440007 59.4902474,29.5305372 C56.770919,28.4165314 55.8385005,26.5660018 55.1577214,25.214985 C54.645243,24.1986038 54.4120031,23.7343443 53.4730907,23.3498116 C52.5363429,22.9663637 52.0455109,23.1334103 50.9707673,23.4995028 C49.5410229,23.9865413 47.5825653,24.6531008 44.8648604,23.5396373 C42.1460731,22.4256315 41.2141958,20.5756442 40.5334166,19.2240851 C40.0214794,18.2077039 39.7876983,17.7439868 38.8504094,17.3599965 C37.9136616,16.9760061 37.4228296,17.1435951 36.3480861,17.5096876 C34.9183416,17.9967262 32.959884,18.6632856 30.2421791,17.5498222 C27.523933,16.4363587 26.5925968,14.5863714 25.9123588,13.2342699 C25.4015039,12.2189735 25.168264,11.7552563 24.2320574,11.3723507 C23.2953096,10.9883604 22.8044776,11.155407 21.7297341,11.5214995 C20.2999896,12.0085381 18.341532,12.6750976 15.6232859,11.5616341 C12.9044986,10.4481706 11.9731625,8.59764098 11.2929245,7.24662418 C10.7815284,6.23078537 10.5482885,5.76706824 9.61154074,5.38307791 C8.67479297,4.99962995 8.18450212,5.16667659 7.10921742,5.53276906 C5.679473,6.01980763 3.72155654,6.68636711 1.00331043,5.57290364 C0.594734715,5.405857 0.261921385,5.13793155 0,4.81902433 L1.34153536,1.52961569 C1.59750398,0.901021364 2.31021155,0.538725408 2.93903934,0.792007161 C2.94282746,0.793634239 2.94715674,0.795261317 2.95094486,0.796888394 C3.88715146,1.18033636 4.37798348,1.01328972 5.45326817,0.647197251 C6.88247143,0.160158676 8.84092906,-0.506400799 11.5591752,0.607062669 C14.2774213,1.72052614 15.2092986,3.57105578 15.8889954,4.92207258 C16.4009327,5.93845375 16.6341726,6.40217088 17.5709203,6.78561884 C18.5076681,7.16906681 18.9985001,7.00256253 20.0737848,6.63647006 C21.5029881,6.14943148 23.4614457,5.48232965 26.1796918,6.59633548 C28.8979379,7.70925659 29.8292741,9.55978623 30.5089709,10.9113454 C31.020367,11.9266418 31.2536069,12.390359 32.1898135,12.7738069 C33.1260201,13.1572549 33.6168521,12.9902083 34.6915957,12.6241158 C36.1213401,12.1370772 38.0797977,11.4705177 40.7980438,12.5839812 C43.5168311,13.6974447 44.4487084,15.5485167 45.1294875,16.8995335 C45.6408836,17.9159146 45.8746647,18.3796318 46.8124948,18.7636221 C47.7492425,19.1470701 48.2395334,18.9800234 49.3142769,18.613931 C50.7440214,18.1268924 52.702479,17.4603329 55.4207251,18.5737964 C58.1400535,19.6878022 59.072472,21.5377895 59.7532511,22.8893486 C60.2657295,23.9057298 60.4995106,24.3699893 61.4378819,24.754522 C62.3762531,25.1390547 62.8676263,24.9714657 63.9434521,24.6053732 C64.7714268,24.3238888 65.7790665,23.9870837 67.0074994,23.9681011 C67.9480353,23.9539998 68.5860628,24.9335005 68.2299796,25.8056141 L66.8700448,29.1411233 Z" id="Fill-3" fill="#FFCFBC" mask="url(#mask-2)"></path>
                </g>
                <path d="M166.024119,28.8143519 L100.226653,1.86235307 L98.6318549,5.77330537 C95.7642487,12.8039079 99.1924966,20.8595693 106.288726,23.7666147 L157.536026,44.7586281 L166.024119,28.8143519 Z" id="Fill-5" fill="#4A5FFF"></path>
                <polygon id="Fill-7" fill="#35211F" points="164.944072 31.4628546 99.1466062 4.51085583 98.8949669 5.12697589 164.692974 32.0789747"></polygon>
                <polygon id="Fill-9" fill="#FFFFFF" points="84.3580053 60.729046 104.404191 22.8951519 163.804606 33.1750284 126.334695 102.418029 86.817577 88.1534397"></polygon>
                <polygon id="Fill-11" fill="#B8B9BF" points="141.236994 76.6584616 95.943535 76.6584616 92.762056 71.7078066"></polygon>
                <path d="M52.8539496,16.0270402 L0.427462194,50.5118662 C0.00319284333,50.7911812 -0.115321172,51.3617431 0.16337617,51.787495 L0.311653978,52.0136588 L53.5065885,17.0233541 L52.8539496,16.0270402 Z" id="Fill-13" fill="#4A5FFF"></path>
                <path d="M53.7395578,17.3792502 C53.5864095,17.6710395 53.4868361,18.0208612 53.3526285,18.4975949 C52.9857221,19.8014265 52.4835257,21.5874154 50.2847931,23.033345 C48.0866016,24.4792747 46.2520696,24.2308742 44.9121577,24.0491838 C43.9039769,23.9130517 43.443991,23.8506804 42.6852848,24.3496508 C41.9282021,24.8475366 41.8021119,25.2949829 41.5266615,26.2755684 C41.1602962,27.5799423 40.658641,29.3659312 38.4609907,30.8113185 C36.2627993,32.2567058 34.4282673,32.0077629 33.0888965,31.8260726 C32.0807157,31.6893981 31.6212709,31.6270268 30.8631059,32.1254549 C30.1054821,32.623883 29.979933,33.0713294 29.7044826,34.0519148 C29.3381174,35.3557464 28.8364622,37.1417353 26.6388119,38.5871226 C24.4417027,40.0325099 22.6071707,39.783567 21.2678,39.6013343 C20.2612426,39.4641174 19.8017979,39.4017461 19.0447152,39.8990895 C18.2876325,40.3975176 18.1615422,40.8455064 17.8860919,41.8255495 C17.5197266,43.1299234 17.0180714,44.9153699 14.8204211,46.3612996 C12.6222296,47.8072292 10.7882388,47.557744 9.44832691,47.3760537 C8.44176953,47.2388368 7.98178362,47.1764655 7.22415978,47.6743512 C6.4670771,48.1727793 6.34152801,48.6202257 6.06661879,49.6002688 C5.69971238,50.9046427 5.19805717,52.6900892 3.00040687,54.1354766 C2.67029934,54.3529626 2.30447526,54.4636039 1.9370277,54.4956031 L0.195575183,51.8364158 C-0.137238147,51.3282253 -0.0430763269,50.6171923 0.462367007,50.281472 C0.465613966,50.2787602 0.468860925,50.2765907 0.472107885,50.2744213 C1.22919057,49.7765355 1.35473966,49.3290892 1.63019004,48.3490461 C1.99655528,47.0446722 2.4982105,45.2586833 4.69586079,43.813296 C6.89351109,42.3679087 8.72804311,42.6168515 10.0674138,42.7990842 C11.0745124,42.9357588 11.5344983,42.9981301 12.291581,42.5002443 C13.0492048,42.0018162 13.1747539,41.5543698 13.4502043,40.5737844 C13.8165695,39.2699528 14.3187659,37.4839639 16.5164162,36.0380343 C18.7135253,34.592647 20.5480573,34.8421322 21.8874281,35.0243649 C22.8939854,35.1615818 23.3534302,35.2239531 24.1105129,34.7260673 C24.8675955,34.2276392 24.9931446,33.7801929 25.268595,32.8001498 C25.6349603,31.4957758 26.1366155,29.709787 28.3348069,28.2643996 C30.5324572,26.81847 32.3675304,27.0674129 33.7069011,27.2491032 C34.7145408,27.3863201 35.1739856,27.4486914 35.9321506,26.9497209 C36.6897744,26.4518352 36.8153235,26.0043888 37.0907739,25.0238033 C37.4571391,23.7199718 37.9587943,21.9339829 40.1564446,20.4880532 C42.3551773,19.0421236 44.1897093,19.2905241 45.5296212,19.4722144 C46.537802,19.6088889 46.9977879,19.6712602 47.7564941,19.1722898 C48.5152002,18.6733193 48.6412905,18.2253306 48.917282,17.2436604 C49.1294167,16.4892387 49.3924204,15.573194 50.0012253,14.6555222 C50.4677051,13.9526247 51.5116025,13.9775732 51.9737531,14.6826402 L53.7395578,17.3792502 Z" id="Fill-15" fill="#FFCFBC"></path>
                <path d="M53.5664407,17.1149586 L0.371506262,52.1052633 L2.44198399,55.2672175 C6.16408168,60.9511421 13.8323173,62.50012 19.5696944,58.7263846 L62.3770648,30.5687212 L53.5664407,17.1149586 Z" id="Fill-17" fill="#4A5FFF"></path>
                <polygon id="Fill-19" fill="#35211F" points="54.9686401 19.2560843 1.77370564 54.246389 2.10002505 54.7448171 55.2949595 19.7545124"></polygon>
                <path d="M56.1373831,20.933981 L19.142611,59.093833 C19.142611,59.093833 56.1400889,116.323035 56.6498615,117.157726 C58.3242102,119.898809 69.5429958,130.079434 78.5852364,130.079434 L172.688611,130.079434 L172.688611,76.6331876 L95.9153405,76.6331876 L56.1373831,20.933981 Z" id="Fill-21" fill="#FFFFFF"></path>
                <path d="M172.688611,105.238243 L97.4755045,105.238243 C89.0469393,105.238243 81.2304259,101.426 76.0298794,94.7788456 L42.713371,52.1976813 L43.1814743,51.8299618 L76.4979827,94.4111261 C81.5848856,100.913471 89.2309336,104.64219 97.4755045,104.64219 L172.688611,104.64219 L172.688611,105.238243 Z" id="Fill-23" fill="#35211F"></path>
                <polygon id="Fill-25" fill="#35211F" points="111.183193 68.1168463 110.676126 67.8055321 128.425088 38.7963648 128.932155 39.107679"></polygon>
                <polygon id="Fill-27" fill="#35211F" points="92.5260021 71.8890089 84.121789 60.9105736 84.5942216 60.5477353 92.9978935 71.5267129"></polygon>
                <path d="M166.411265,170.880413 L166.411265,133.647995 L135.178222,107.865323 C135.178222,107.865323 153.462391,76.7132941 174.337093,76.7132941 L247.169096,76.7132941 C247.169096,76.7132941 256.463517,76.2550005 262.253928,78.2400353 C268.043797,80.2256123 290.18806,107.356047 292.016098,111.835392 L256.64697,131.890751 L256.64697,171.422772 L166.411265,170.880413 Z" id="Fill-29" fill="#FF3E6C"></path>
                <mask id="mask-4" fill="white">
                    <use xlink:href="#path-3"></use>
                </mask>
                <g id="Clip-32"></g>
                <polygon id="Fill-31" fill="#FFFFFF" mask="url(#mask-4)" points="11.1305765 174.268151 267.099203 174.268151 267.099203 130.337055 11.1305765 130.337055"></polygon>
                <path d="M10.8599966,174.539331 L267.369783,174.539331 L267.369783,130.065875 L10.8599966,130.065875 L10.8599966,174.539331 Z M11.4011565,173.996971 L266.828623,173.996971 L266.828623,130.608234 L11.4011565,130.608234 L11.4011565,173.996971 Z" id="Fill-33" fill="#35211F" mask="url(#mask-4)"></path>
                <path d="M194.993111,158.577753 L22.2337704,158.577753 C20.533446,158.577753 19.1426651,157.18389 19.1426651,155.479797 L19.1426651,149.124974 C19.1426651,147.420882 20.533446,146.026476 22.2337704,146.026476 L194.993111,146.026476 C196.693436,146.026476 198.084758,147.420882 198.084758,149.124974 L198.084758,155.479797 C198.084758,157.18389 196.693436,158.577753 194.993111,158.577753" id="Fill-34" fill="#E4E6E9" mask="url(#mask-4)"></path>
                <polygon id="Fill-35" fill="#4A5FFF" mask="url(#mask-4)" points="211.96908 174.267609 266.626229 174.267609 266.626229 130.336512 211.96908 130.336512"></polygon>
                <path d="M211.6985,174.538788 L266.896809,174.538788 L266.896809,130.065333 L211.6985,130.065333 L211.6985,174.538788 Z M212.23966,173.996429 L266.355649,173.996429 L266.355649,130.607692 L212.23966,130.607692 L212.23966,173.996429 Z" id="Fill-36" fill="#35211F" mask="url(#mask-4)"></path>
                <path d="M191.645875,175.95017 L183.511701,167.797968 L187.843144,167.797968 C190.373067,167.797968 192.443004,165.723444 192.443004,163.187915 C192.443004,160.652386 190.373067,158.577862 187.843144,158.577862 L176.703909,158.577862 C172.536437,159.011207 160.903664,147.944909 156.195032,143.271942 L164.901753,132.491468 L135.178006,107.865106 L117.892276,129.115282 C109.227766,139.735218 110.808494,155.529803 121.405486,164.213516 L132.014926,172.908077 L132.019796,172.902111 L141.89867,182.802336 C143.741861,184.650154 146.757745,184.650154 148.600935,182.802336 L152.715915,178.678779 L156.830895,182.802336 C158.674085,184.650154 161.68997,184.650154 163.53316,182.802336 L167.267163,179.060057 L171.001167,182.802336 C172.844357,184.650154 175.860241,184.650154 177.703432,182.802336 L181.588419,178.909282 L185.140592,182.46987 C186.929667,184.262909 189.8568,184.262909 191.645875,182.46987 C193.43495,180.67683 193.43495,177.743209 191.645875,175.95017" id="Fill-37" fill="#FFCFBC" mask="url(#mask-4)"></path>
                <polygon id="Fill-38" fill="#FFFFFF" mask="url(#mask-4)" points="250.994555 163.625002 248.283885 163.820794 247.683739 166.420322 255.931015 176.261972 259.241832 173.466653"></polygon>
                <path d="M319.371189,146.680778 L313.601342,139.309574 L313.597013,139.304151 L309.401941,133.945099 L309.392742,133.951608 L292.017721,111.832029 L258.755329,130.695283 L279.720945,157.281732 L272.417993,163.023689 C269.87887,162.737323 261.409177,161.808804 258.444162,161.808804 C254.939611,161.808804 254.177657,164.557481 254.177657,164.557481 L254.48233,171.582117 C248.387788,177.766639 252.771183,183.48419 252.771183,183.48419 L252.94706,183.595374 C253.115361,184.206613 253.405963,184.793988 253.822657,185.320076 C254.968833,186.766548 256.783883,187.384838 258.487996,187.08654 L259.352228,187.630526 C258.47122,189.255434 258.582158,191.326162 259.797603,192.859411 C261.417294,194.903563 264.412073,195.247419 266.451705,193.623596 L267.51779,192.775346 L267.535107,192.786193 L266.8132,193.361094 C264.773568,194.984917 264.430473,197.985791 266.050164,200.030485 C267.346783,201.66624 269.522787,202.210227 271.386542,201.530651 C270.447629,203.16966 270.534215,205.290827 271.773471,206.854991 C273.393704,208.899143 276.388483,209.242999 278.428114,207.619175 L284.016672,203.170202 L285.029724,202.364257 C285.325197,202.128873 285.580624,201.862574 285.804124,201.576209 L292.495565,195.607546 L315.67182,177.384818 C325.113978,169.961005 326.778585,156.143862 319.371189,146.680778" id="Fill-39" fill="#FFD1BD" mask="url(#mask-4)"></path>
                <path d="M166.411265,133.918958 L135.178222,107.865106 C135.178222,107.865106 153.462391,76.7130771 174.337093,76.7130771 L247.169096,76.7130771 C247.169096,76.7130771 256.463517,76.2547836 262.253928,78.2403607 C268.043797,80.2253954 290.18806,107.35583 292.016098,111.835718 L255.56465,132.527264 L253.325331,130.066038 L170.255123,130.066038 L166.411265,133.918958 Z" id="Fill-40" fill="#FF3E6C" mask="url(#mask-4)"></path>
                <line x1="169.974911" y1="130.433595" x2="188.25908" y2="108.036871" id="Fill-41" fill="#FFFFFF" mask="url(#mask-4)"></line>
                <polygon id="Fill-42" fill="#35211F" mask="url(#mask-4)" points="170.184448 130.605468 169.76559 130.262155 188.049759 107.865431 188.468617 108.208745"></polygon>
                <path d="M204.483595,76.8104848 C204.584791,80.2110771 207.129866,83.1436134 210.601407,83.6019069 C214.072948,84.0602005 217.289061,81.8875094 218.265313,78.6295576 L218.808097,78.7011491 C217.788551,82.2611949 214.305646,84.637813 210.531056,84.1399273 C206.755925,83.6414991 204.006291,80.4421221 203.940811,76.7388934 L204.483595,76.8104848 Z" id="Fill-43" fill="#35211F" mask="url(#mask-4)"></path>
                <path d="M217.170493,50.1683901 L217.170493,50.1683901 C222.187045,50.8306107 225.751124,55.4856798 225.090368,60.5133497 C224.64824,63.879231 222.416497,66.5845188 219.487198,67.8118777 C219.632229,68.5478591 219.667946,69.3163822 219.565125,70.0984641 L218.570473,77.6687141 C218.061783,81.5406165 214.484716,84.2914624 210.621376,83.7816448 L210.621376,83.7816448 C206.757494,83.2712847 204.012731,79.6862903 204.521422,75.8143879 L205.647575,67.2472817 L206.441457,61.2043154 L206.848409,58.1058172 C207.509165,53.0781473 212.153941,49.5061695 217.170493,50.1683901" id="Fill-44" fill="#FFCFBC" mask="url(#mask-4)"></path>
                <path d="M222.035358,56.4757023 C221.976913,56.9209792 222.289703,57.3299181 222.734536,57.3884929 C223.178829,57.4470677 223.586322,57.1335841 223.644767,56.6883071 C223.703754,56.2424879 223.390422,55.8340914 222.94613,55.7749742 C222.501838,55.7169418 222.093803,56.0304254 222.035358,56.4757023" id="Fill-45" fill="#35211F" mask="url(#mask-4)"></path>
                <path d="M217.54043,58.6838094 C217.481984,59.1290863 217.794775,59.5380252 218.239608,59.5966 C218.6839,59.6551748 219.091394,59.3416911 219.149839,58.8964142 C219.208826,58.4505949 218.895494,58.0421984 218.451202,57.9830813 C218.006909,57.9245065 217.598875,58.2385325 217.54043,58.6838094" id="Fill-46" fill="#35211F" mask="url(#mask-4)"></path>
                <path d="M221.360261,60.2817624 C221.434941,60.2920672 221.512868,60.2703728 221.574019,60.2172216 L222.11085,59.7459114 C222.479379,59.4232077 222.550813,58.8721708 222.277527,58.464859 L219.97868,54.9715233 C219.896423,54.8467807 219.728664,54.8120697 219.603656,54.8945083 C219.479189,54.9769469 219.444555,55.1450782 219.526811,55.2703632 L221.827282,58.7658683 C221.950666,58.9491858 221.918197,59.1943321 221.754766,59.3380573 L221.217395,59.8088251 C221.105375,59.9075345 221.09401,60.07892 221.19196,60.1911884 C221.236876,60.2432548 221.297486,60.273627 221.360261,60.2817624" id="Fill-47" fill="#35211F" mask="url(#mask-4)"></path>
                <path d="M220.54641,54.1998546 C220.820237,53.7816956 221.21799,53.5181091 221.662823,53.4362128 C221.809478,53.4090949 221.906886,53.2680815 221.88037,53.1205598 C221.853312,52.9735804 221.71261,52.8759557 221.565415,52.9025313 C220.976091,53.0110032 220.449002,53.3608249 220.119976,53.8625072 L220.320206,54.0512482 L220.54641,54.1998546 Z" id="Fill-48" fill="#35211F" mask="url(#mask-4)"></path>
                <path d="M216.905054,56.5816793 C216.994886,56.5930689 217.083637,56.5589002 217.138835,56.4753769 C217.413203,56.0566756 217.810955,55.7925467 218.255789,55.7111928 C218.402443,55.6835325 218.499852,55.5425191 218.472794,55.3949974 C218.446277,55.248018 218.305034,55.1514781 218.157839,55.176969 C217.568516,55.2854408 217.041967,55.6352625 216.712942,56.1369448 C216.630686,56.2622297 216.652332,56.449886 216.776799,56.532867 C216.817927,56.5594426 216.861761,56.5757134 216.905054,56.5816793" id="Fill-49" fill="#35211F" mask="url(#mask-4)"></path>
                <path d="M221.82003,61.744939 C221.82003,61.744939 219.692731,61.7113128 218.914002,60.6943892 C218.914002,60.6943892 218.585518,62.6528484 219.758752,62.8079631 C220.931446,62.9625355 221.82003,61.744939 221.82003,61.744939" id="Fill-50" fill="#FF395F" mask="url(#mask-4)"></path>
                <path d="M217.170601,50.1683901 C217.460122,50.2068976 217.743148,50.2616759 218.022387,50.3256742 C217.914696,51.3415131 217.255563,55.7644525 213.765082,59.2800249 C213.765082,59.2800249 212.161625,58.5234338 211.635077,58.9247796 C211.137209,59.3038887 210.914793,61.3686502 210.69887,61.6132542 C209.421191,62.3351343 207.921637,62.92956 206.162868,63.3238552 L206.441565,61.2043154 L206.848517,58.1058172 C207.509274,53.0781473 212.154049,49.5061695 217.170601,50.1683901" id="Fill-51" fill="#35211F" mask="url(#mask-4)"></path>
                <path d="M212.75663,50.677123 C212.75663,50.677123 215.487323,40.813236 210.081136,35.1705307 C204.674949,29.5283678 197.895839,29.6607034 188.327591,32.2998234 C178.759884,34.9389433 165.403517,27.4256411 158.884164,22.4581731 C152.364811,17.490705 133.022674,19.6612266 125.637465,35.3213066 C118.252256,50.9813865 126.100157,72.3481702 152.735505,72.3720453 C179.370854,72.3964401 187.531545,32.8817748 209.272643,53.002217 L212.75663,50.677123 Z" id="Fill-52" fill="#35211F" mask="url(#mask-4)"></path>
                <path d="M219.49169,67.8398634 C219.632391,68.5671671 219.667026,69.32647 219.565288,70.0987896 L219.269814,72.3484956 C218.565224,71.8782701 213.248328,67.8273892 213.248328,67.8273892 C216.404373,68.5932004 218.606352,68.117009 219.49169,67.8398634" id="Fill-53" fill="#35211F" mask="url(#mask-4)"></path>
                <path d="M213.687425,64.2054059 C213.700413,64.2070329 213.71286,64.20866 213.725848,64.2102871 C213.873584,64.2287273 214.008874,64.1235096 214.027815,63.9749032 C214.046214,63.8262968 213.962335,63.6831139 213.79241,63.6722667 C211.839364,63.4146461 211.301993,62.2691835 211.152632,61.5993698 C210.944827,60.6675967 211.255453,59.6376565 211.86047,59.2547509 C212.986623,58.5404639 213.999675,59.7385354 214.042426,59.7895171 C214.138212,59.9050396 214.308136,59.9207681 214.423403,59.8253128 C214.538129,59.7298576 214.554364,59.5584721 214.458578,59.443492 C213.993181,58.8816078 212.790182,58.0235955 211.570949,58.795915 C210.772738,59.3019362 210.365786,60.5574978 210.62446,61.7170618 C210.929133,63.0832646 212.044464,63.9884622 213.687425,64.2054059" id="Fill-54" fill="#35211F" mask="url(#mask-4)"></path>
                <polygon id="Fill-55" fill="#9B0A3A" mask="url(#mask-4)" points="135.178168 107.865323 159.90214 138.681631 164.820201 132.592022"></polygon>
                <polygon id="Fill-56" fill="#9B0A3A" mask="url(#mask-4)" points="292.016314 111.835555 258.755545 130.695554 263.010144 136.090944"></polygon>
                <polygon id="Fill-57" fill="#35211F" mask="url(#mask-4)" points="156.018776 143.477496 149.54921 137.918315 149.901505 137.506664 156.371071 143.065846"></polygon>
                <polygon id="Fill-58" fill="#35211F" mask="url(#mask-4)" points="279.876583 157.503611 279.565416 157.059961 288.436109 150.804932 288.747276 151.248582"></polygon>
                <polygon id="Fill-59" fill="#35211F" mask="url(#mask-4)" points="253.644074 130.066038 243.641274 115.711416 244.085026 115.401187 254.087825 129.755808"></polygon>
                <polygon id="Fill-60" fill="#35211F" mask="url(#mask-4)" points="183.379171 168.034329 177.991924 165.006879 178.256551 164.533942 183.643798 167.561391"></polygon>
                <polygon id="Fill-61" fill="#35211F" mask="url(#mask-4)" points="259.007834 187.463154 258.719396 187.004318 264.347459 183.450238 264.635897 183.909074"></polygon>
                <polygon id="Fill-62" fill="#35211F" mask="url(#mask-4)" points="266.376538 193.89228 266.088099 193.433444 271.716162 189.879364 272.004601 190.3382"></polygon>
                <polygon id="Fill-63" fill="#35211F" mask="url(#mask-4)" points="271.353856 201.913502 271.065418 201.454666 276.69348 197.900586 276.981919 198.359422"></polygon>
                <polyline id="Stroke-64" stroke="#35211F" stroke-width="0.54" mask="url(#mask-4)" points="254.309809 167.599248 256.822955 171.056788 253.68044 175.052891 253.22316 173.04128"></polyline>
                <line x1="142.379545" y1="176.528813" x2="179.117266" y2="176.528813" id="Stroke-65" stroke="#35211F" stroke-width="0.54" mask="url(#mask-4)"></line>
                <g id="编组" mask="url(#mask-4)" fill="#FFFFFF">
                    <g transform="translate(222.687307, 142.439628)">
                        <path d="M1.40433437,0.381176471 C2.84273691,-0.391783759 4.61960191,0.0603518822 5.41671827,1.33411765 L13.6421053,14.8658824 C14.4559012,16.2394467 13.9797917,17.9268399 12.6390093,18.6776471 C11.2006067,19.4506073 9.42374174,18.9984716 8.62662539,17.7247059 L0.40123839,4.19294118 C-0.412557581,2.81937683 0.0635519619,1.13198364 1.40433437,0.381176471 Z" id="矩形"></path>
                        <path d="M14.444582,0.381176471 C15.8829846,-0.391783759 17.6598496,0.0603518822 18.4569659,1.33411765 L26.6823529,14.8658824 C27.4961489,16.2394467 27.0200394,17.9268399 25.679257,18.6776471 C24.2408544,19.4506073 22.4639894,18.9984716 21.6668731,17.7247059 L13.4414861,4.19294118 C12.6276901,2.81937683 13.1037996,1.13198364 14.444582,0.381176471 Z" id="矩形备份-4"></path>
                        <path d="M27.3868529,0.371517028 C28.6975077,-0.381633844 30.3332826,0.0587883502 31.119303,1.3003096 L33.7320181,5.94427245 C34.485062,7.28462432 34.0467575,8.92830233 32.7989056,9.65944272 C31.4882508,10.4125936 29.8524759,9.9721714 29.0664555,8.73065015 L26.4537404,4.08668731 C25.7006965,2.74633543 26.139001,1.10265742 27.3868529,0.371517028 Z" id="矩形备份-5"></path>
                    </g>
                </g>
            </g>
        </g>
    </g>
</svg>